<?xml version="1.0" encoding="UTF-8"?>
<!DOCTYPE svg PUBLIC "-//W3C//DTD SVG 1.1//EN" "http://www.w3.org/Graphics/SVG/1.1/DTD/svg11.dtd">
<!-- Creator: CorelDRAW -->
<svg xmlns="http://www.w3.org/2000/svg" xml:space="preserve" width="750px" height="688px" style="shape-rendering:geometricPrecision; text-rendering:geometricPrecision; image-rendering:optimizeQuality; fill-rule:evenodd; clip-rule:evenodd"
viewBox="0 0 750 688.026"
 xmlns:xlink="http://www.w3.org/1999/xlink">
 <defs>
  <style type="text/css">
   <![CDATA[
    .fil2 {fill:black}
    .fil1 {fill:#2C2C2C}
    .fil0 {fill:#575757}
   ]]>
  </style>
 </defs>
 <g id="Livello_x0020_1">
  <metadata id="CorelCorpID_0Corel-Layer"/>
  <g id="_338616448">
   <path id="_338615512" class="fil0" d="M750 688.025l0 -688.02 -750 0 0 688.02 326.069 0c10.0328,-18.0936 29.3175,-30.3538 51.4593,-30.3538 22.1417,0 41.4276,12.2601 51.4604,30.3538l321.011 0zm-40.4729 -36.6776l-24.0299 0c-4.90476,0 -8.85363,-3.94886 -8.85363,-8.85363l0 -41.7372c0,-4.90476 3.94886,-8.85244 8.85363,-8.85244l24.0299 0c4.90476,0 8.85363,3.94768 8.85363,8.85244l0 41.7372c0,4.90476 -3.94886,8.85363 -8.85363,8.85363zm-94.1452 0l-24.0311 0c-4.90476,0 -8.85244,-3.94886 -8.85244,-8.85363l0 -41.7372c0,-4.90476 3.94768,-8.85244 8.85244,-8.85244l24.0311 0c4.90358,0 8.85244,3.94768 8.85244,8.85244l0 41.7372c0,4.90476 -3.94886,8.85363 -8.85244,8.85363zm-94.1062 0l-24.0299 0c-4.90476,0 -8.85363,-3.94886 -8.85363,-8.85363l0 -41.7372c0,-4.90476 3.94886,-8.85244 8.85363,-8.85244l24.0299 0c4.90476,0 8.85363,3.94768 8.85363,8.85244l0 41.7372c0,4.90476 -3.94886,8.85363 -8.85363,8.85363zm-94.1452 0l-24.0311 0c-4.90476,0 -8.85244,-3.94886 -8.85244,-8.85363l0 -41.7372c0,-4.90476 3.94768,-8.85244 8.85244,-8.85244l24.0311 0c4.90476,0 8.85244,3.94768 8.85244,8.85244l0 41.7372c0,4.90476 -3.94768,8.85363 -8.85244,8.85363zm-94.1452 0l-24.0299 0c-4.90476,0 -8.85363,-3.94886 -8.85363,-8.85363l0 -41.7372c0,-4.90476 3.94886,-8.85244 8.85363,-8.85244l24.0299 0c4.90476,0 8.85363,3.94768 8.85363,8.85244l0 41.7372c0,4.90476 -3.94886,8.85363 -8.85363,8.85363zm-94.1441 0l-24.0299 0c-4.90476,0 -8.85363,-3.94886 -8.85363,-8.85363l0 -41.7372c0,-4.90476 3.94886,-8.85244 8.85363,-8.85244l24.0299 0c4.90476,0 8.85363,3.94768 8.85363,8.85244l0 41.7372c0,4.90476 -3.94886,8.85363 -8.85363,8.85363zm-94.1051 0l-24.0311 0c-4.90358,0 -8.85244,-3.94886 -8.85244,-8.85363l0 -41.7372c0,-4.90476 3.94886,-8.85244 8.85244,-8.85244l24.0311 0c4.90476,0 8.85244,3.94768 8.85244,8.85244l0 41.7372c0,4.90476 -3.94768,8.85363 -8.85244,8.85363zm-94.1464 0l-24.0299 0c-4.90476,0 -8.85363,-3.94886 -8.85363,-8.85363l0 -41.7372c0,-4.90476 3.94886,-8.85244 8.85363,-8.85244l24.0299 0c4.90476,0 8.85363,3.94768 8.85363,8.85244l0 41.7372c0,4.90476 -3.94886,8.85363 -8.85363,8.85363zm665.26 -70.8266l-681.706 0c-9.80835,0 -17.7061,-7.89772 -17.7061,-17.7073l0 -433.815c0,-9.80953 7.89654,-17.7061 17.7061,-17.7061l681.706 0c9.80953,0 17.7061,7.89654 17.7061,17.7061l0 433.815c0,9.80953 -7.89654,17.7073 -17.7061,17.7073zm-5.05955 -483.136l-24.0299 0c-4.90476,0 -8.85363,-3.94768 -8.85363,-8.85244l0 -41.7372c0,-4.90476 3.94886,-8.85363 8.85363,-8.85363l24.0299 0c4.90476,0 8.85363,3.94886 8.85363,8.85363l0 41.7372c0,4.90476 -3.94886,8.85244 -8.85363,8.85244zm-94.1452 0l-24.0311 0c-4.90476,0 -8.85244,-3.94768 -8.85244,-8.85244l0 -41.7372c0,-4.90476 3.94768,-8.85363 8.85244,-8.85363l24.0311 0c4.90476,0 8.85244,3.94886 8.85244,8.85363l0 41.7372c0,4.90476 -3.94768,8.85244 -8.85244,8.85244zm-94.1062 0l-24.0299 0c-4.90476,0 -8.85363,-3.94768 -8.85363,-8.85244l0 -41.7372c0,-4.90476 3.94886,-8.85363 8.85363,-8.85363l24.0299 0c4.90476,0 8.85363,3.94886 8.85363,8.85363l0 41.7372c0,4.90476 -3.94886,8.85244 -8.85363,8.85244zm-94.1441 0l-24.0299 0c-4.90476,0 -8.85363,-3.94768 -8.85363,-8.85244l0 -41.7372c0,-4.90476 3.94886,-8.85363 8.85363,-8.85363l24.0299 0c4.90476,0 8.85363,3.94886 8.85363,8.85363l0 41.7372c0,4.90476 -3.94886,8.85244 -8.85363,8.85244zm-94.1452 0l-24.0311 0c-4.90476,0 -8.85244,-3.94768 -8.85244,-8.85244l0 -41.7372c0,-4.90476 3.94768,-8.85363 8.85244,-8.85363l24.0311 0c4.90358,0 8.85244,3.94886 8.85244,8.85363l0 41.7372c0,4.90476 -3.94886,8.85244 -8.85244,8.85244zm-94.1452 0l-24.0299 0c-4.90476,0 -8.85363,-3.94768 -8.85363,-8.85244l0 -41.7372c0,-4.90476 3.94886,-8.85363 8.85363,-8.85363l24.0299 0c4.90476,0 8.85363,3.94886 8.85363,8.85363l0 41.7372c0,4.90476 -3.94886,8.85244 -8.85363,8.85244zm-94.1051 0l-24.0299 0c-4.90476,0 -8.85363,-3.94768 -8.85363,-8.85244l0 -41.7372c0,-4.90476 3.94886,-8.85363 8.85363,-8.85363l24.0299 0c4.90476,0 8.85363,3.94886 8.85363,8.85363l0 41.7372c0,4.90476 -3.94886,8.85244 -8.85363,8.85244zm-94.1464 0l-24.0299 0c-4.90476,0 -8.85363,-3.94768 -8.85363,-8.85244l0 -41.7372c0,-4.90476 3.94886,-8.85363 8.85363,-8.85363l24.0299 0c4.90476,0 8.85363,3.94886 8.85363,8.85363l0 41.7372c0,4.90476 -3.94886,8.85244 -8.85363,8.85244z"/>
   <path id="_338615224" class="fil1" d="M506.184 688.025l0 -0.0791663 0.0791663 0 0 -17.4308 8.02297 0 0 17.4308 8.97178 0 0 -36.8371c-0.636875,0.145335 -1.29384,0.237499 -1.97561,0.237499l-24.0299 0c-3.75626,0 -6.93,-2.32536 -8.22148,-5.61253l-8.81345 0 0 42.2902 8.97178 0 0 -16.8766 8.02297 0 0 16.8766 8.97178 0 0 0.00118159zm-185.288 0l0 -36.6776 -11.9364 0c-3.78698,0 -6.99026,-2.36081 -8.26047,-5.6917l-5.77087 0 0 42.3705 8.97178 0 0 -16.9558 8.02297 0 0 16.9558 8.97178 0 0.00118159 -0.00118159zm428.714 -0.0791663l0 -17.3516 -8.93279 0 0 17.3516 8.93279 0zm-47.3887 0l0 -36.5984 -16.7183 0c-3.99849,0 -7.35183,-2.61721 -8.45898,-6.24468l-0.790481 0 0 42.8443 8.97178 0 0 -17.4308 8.02415 0 0 17.4308 8.97178 0 0 -0.00118159zm-627.992 0l0 -17.3516 -8.93161 0 0 17.3516 8.93161 0zm-47.3887 0l0 -36.5984 -0.276491 0c-3.99849,0 -7.35183,-2.61721 -8.45779,-6.24468l-17.2334 0 0 42.8443 8.97178 0 0 -17.4308 8.02415 0 0 17.4308 8.97178 0 0 -0.00118159zm704.437 -0.434824l0 -16.9959 8.97178 0 0 -25.4124 -8.97178 0 0 25.0189 -8.93279 0 0 -25.4939 -4.2289 0c-0.638057,2.58767 -2.39271,4.7228 -4.74289,5.85003l0 37.0333 17.9046 0 0 0zm-675.376 0l0 -16.9959 8.97178 0 0 -25.4124 -5.80986 0c-0.556527,1.82319 -1.67194,3.3947 -3.16192,4.50539l0 20.5123 -8.93279 0 0 -18.773 -8.97178 0 0 36.1648 17.9046 0 0 -0.00118159zm385.635 -0.0401739l0 -17.3894 -8.97178 0 0 17.3894 8.97178 0zm-251.603 -3.91223c4.78661,-0.405284 7.29984,-5.65035 7.07416,-10.1179 0.492721,-4.95675 -1.60814,-11.7781 -7.78547,-11.1069 -6.60743,0.420645 -8.04778,11.1506 -2.13513,13.6367 2.05478,1.27493 7.62478,-2.05832 5.21788,2.41044 -1.55142,4.04575 -8.64567,-1.03861 -7.58933,4.30806 1.3281,0.590793 2.77673,0.898005 4.2289,0.869647 0.339115,0.0177238 0.668778,0.0271765 0.988988,0l0 0zm-13.7147 -0.118159c1.27848,-0.0519898 2.56168,-0.405284 3.67473,-1.06815 1.48525,-6.99263 -4.70389,0.0720768 -7.11315,-4.10956 -1.90472,-2.9646 -1.78538,-7.08361 -0.474998,-10.2373 1.37064,-4.95321 7.72639,1.26075 7.70749,-3.39824 -1.1036,-3.82834 -6.66887,-2.55695 -9.20928,-0.948814 -3.90278,3.10993 -4.2159,8.9706 -3.04258,13.4772 0.635693,4.00912 4.62237,6.43728 8.45779,6.28486l0 0zm409.19 -3.08276c1.4628,-0.0437187 2.91379,-0.430097 4.03157,-1.38364 2.79681,-2.24029 3.11584,-7.33765 -0.11934,-9.32744 0.283581,-1.13196 1.97916,-3.16783 1.62114,-5.01938 0.155969,-2.94688 -2.34545,-5.5889 -5.25688,-5.6917 -2.44234,-0.557709 -5.09973,0.788118 -6.16552,3.04377 -1.46162,2.43643 -0.485632,6.2884 2.44943,7.03516 -1.41318,0.309576 -2.52859,1.42381 -3.16074,2.68693 -1.81728,3.28008 0.630967,7.42509 3.9914,8.4188 0.821202,0.192599 1.73102,0.263494 2.60894,0.237499l0 0zm49.8393 -0.0791663l0 -5.21788 24.9787 0.00118159 0 -8.22148 -24.9787 0 0 -5.2167 -8.06314 4.66254 -8.06196 4.66372 8.06196 4.66372 8.06314 4.66372 0 0.00118159zm-69.4028 -0.0401739c0.66287,0.00472634 1.33519,-0.125248 1.93662,-0.39465 3.07921,0.653417 6.54599,-1.13078 7.58815,-4.14973 0.544711,-1.69676 0.516353,-4.06938 -1.18513,-5.09854 -1.80192,-0.544711 -1.75229,-2.65502 -0.355657,-3.63692 1.9697,-1.57978 1.13196,-4.74879 -0.711315,-6.08635 -3.46323,-2.32772 -7.77484,-1.20522 -11.6599,-1.4628 -0.0555345,3.10403 0.0295397,6.22341 0.0389923,9.32744 0.328481,2.74837 -0.854287,5.51092 -0.0779847,8.22148 0.418282,2.0595 2.43643,3.26709 4.42622,3.28008l0 0zm19.3662 -3.24109c-1.11542,0.0271765 -2.24265,-0.529351 -2.7271,-1.69912 -1.24303,-1.86927 0.0590793,-4.86695 2.45061,-4.58455 2.27455,-0.256404 3.63929,2.43407 2.80627,4.34706 -0.327299,1.28793 -1.41318,1.91062 -2.52978,1.93662l0 0zm-16.5599 -0.197325c-2.99059,0.0708952 -4.53729,-3.80825 -3.32026,-6.24468 1.55733,-0.584885 3.44432,-0.397013 4.78188,0.63333 2.41753,1.51361 1.28202,5.39867 -1.46162,5.61253l0 -0.00118159zm-230.665 -3.79407c0.436005,-0.397013 0.895642,-0.762123 1.34346,-1.14614l0 -23.1213c-1.60341,1.6235 -3.85079,2.60894 -6.32385,2.60894l-2.64793 0 0 21.6585 7.62832 0zm-148.021 -0.118159c-3.17492,-0.231591 -3.68419,-5.30414 -1.38246,-6.956 4.54202,-2.33718 5.98592,6.58852 1.38246,6.956zm279.625 -1.77829l0 -25.4549 -8.97178 0 0 25.4549 8.97178 0zm-18.6159 0l0 -25.4549 -8.97178 0 0 25.4549 8.97178 0zm-18.6159 0l0 -21.4611c-1.4628,1.06815 -3.25881,1.69912 -5.2167,1.69912l-3.75508 0 0 19.762 8.97178 0zm-18.6159 -0.909821l0 -18.8522 -8.97178 0 0 13.0423c3.17492,1.66485 6.17261,3.61447 8.97178,5.80986zm154.017 -2.68693c-2.2781,-0.0271765 -3.83779,-2.95869 -2.44943,-4.86223 1.31983,-0.355657 2.80627,-0.280036 4.03157,0.355657 2.60658,0.935816 1.33874,4.49239 -1.10715,4.4664 -0.157151,0.0248133 -0.322573,0.0413555 -0.474998,0.0401739zm17.2334 -0.11934c-1.31392,0.186691 -2.76491,-1.02207 -2.60894,-2.4896 -0.237499,-1.96143 2.05596,-2.99414 3.67591,-2.41162 2.0536,0.521079 1.53134,3.22455 0.118159,4.1899 -0.340297,0.414737 -0.747944,0.648691 -1.18513,0.711315l0 0zm-236.041 -2.29228c2.85708,-1.59514 5.84649,-2.96342 8.97178,-4.07056l0 -14.7427 -8.97178 0 0 18.8132 0 0zm46.1634 -4.74289l0 -14.0703 -8.93279 0 0 12.0155c3.05794,0.451366 6.04854,1.15086 8.93279,2.05478l0 0zm-27.5475 -1.85745c2.90434,-0.495085 5.89966,-0.777484 8.93279,-0.829473l0 -11.3834 -8.93279 0 0 12.2129z"/>
   <path id="_338615824" class="fil1" d="M750 638.704l0 -27.8252 -31.6192 0 0 27.8252 31.6192 0zm-73.3552 0l0 -27.8252 -52.4093 0 0 27.8252 52.4093 0zm-94.1452 0l0 -27.8252 -52.3679 0 0 27.8252 52.3679 0zm-94.1051 0l0 -27.8252 -52.4093 0 0 27.8252 52.4093 0zm-94.1464 0l0 -27.8252 -52.4081 0 0 27.8252 52.4081 0zm-94.1441 0l0 -27.8252 -52.4093 0 0 27.8252 52.4093 0zm-94.1441 0l0 -27.8252 -52.3691 0 0 27.8252 52.3691 0zm-94.1062 0l0 -27.8252 -52.4081 0 0 27.8252 52.4081 0zm-94.1441 0l0 -27.8252 -17.7061 0 0 27.8252 17.7061 0z"/>
   <path id="_338615056" class="fil1" d="M750 84.9324l0 -28.6157 -30.3538 0 0 28.6157 30.3538 0zm-72.0909 0l0 -28.6157 -52.4093 0 0 28.6157 52.4093 0zm-94.1452 0l0 -28.6157 -52.3679 0 0 28.6157 52.3679 0zm-94.1051 0l0 -28.6157 -52.4093 0 0 28.6157 52.4093 0zm-94.1441 0l0 -28.6157 -52.4093 0 0 28.6157 52.4093 0zm-94.1464 0l0 -28.6157 -52.4081 0 0 28.6157 52.4081 0zm-94.1441 0l0 -28.6157 -52.3691 0 0 28.6157 52.3691 0zm-94.1051 0l0 -28.6157 -52.4093 0 0 28.6157 52.4093 0zm-94.1464 0l0 -28.6157 -18.9715 0 0 28.6157 18.9715 0z"/>
   <path id="_338615008" class="fil1" d="M743.794 32.1722l0 -32.1722 -17.8632 0 0 32.1722 17.8632 0zm-25.9275 0l0 -32.1722 -11.6197 0 0 32.1722 11.6197 0zm-173.511 0l0 -32.1722 -17.8644 0 0 32.1722 17.8644 0zm-25.9275 0l0 -32.1722 -11.6197 0 0 32.1722 11.6197 0zm-18.2602 0l0 -32.1722 -11.6197 0 0 32.1722 11.6197 0zm-240.304 0l0 -32.1722 -11.6197 0 0 32.1722 11.6197 0zm-17.7061 0l0 -32.1722 -11.6197 0 0 32.1722 11.6197 0zm-17.0739 0l0 -32.1722 -17.8644 0 0 32.1722 17.8644 0zm-43.6348 0l0 -32.1722 -11.6197 0 0 32.1722 11.6197 0zm-17.7061 0l0 -32.1722 -11.6197 0 0 32.1722 11.6197 0zm-17.7073 0l0 -32.1722 -11.6197 0 0 32.1722 11.6197 0zm-98.6494 0l0 -32.1722 -11.6197 0 0 32.1722 11.6197 0zm-19.0507 0l0 -32.1722 -17.8644 0 0 32.1722 17.8644 0z"/>
   <path id="_338614432" class="fil2" d="M596.069 20.6258c-2.06896,-0.17133 -3.50813,2.33245 -2.69756,4.13791 0.71486,2.00397 3.82598,2.50378 5.01111,0.664051 1.15559,-1.56442 0.519898,-4.33051 -1.54551,-4.72398 -0.250496,-0.0602609 -0.509264,-0.0874374 -0.768031,-0.0779847m-2.83817 -1.61995c-2.57349,-0.679412 -3.6771,-3.89923 -2.67984,-6.22223 0.764486,-1.99688 2.87598,-3.21037 4.96384,-3.21864 2.47306,-0.255223 5.39158,0.880282 6.1537,3.44432 0.749126,2.12331 -0.0401739,4.95794 -2.26865,5.82049 -0.329663,0.679412 1.52306,0.64042 1.70857,1.48053 2.37617,2.6054 1.44035,7.51134 -1.9248,8.80164 -2.68811,0.903913 -6.12771,0.822384 -8.15767,-1.40372 -1.97207,-2.34545 -1.73811,-6.494 0.981898,-8.17894 0.381652,-0.229228 0.795207,-0.404102 1.22294,-0.523443zm0.401739 -3.92759c-0.256404,1.99452 2.48133,3.29663 3.96895,2.03942 1.50298,-1.11542 1.15323,-3.97486 -0.779847,-4.39905 -1.49352,-0.495085 -3.37815,0.692409 -3.1891,2.36081l0 -0.00118159zm15.7352 5.39276l0 5.72833c1.71212,-0.14179 3.69482,0.427734 5.15999,-0.727857 1.01971,-1.19813 0.920456,-3.23164 -0.173693,-4.3376 -1.43681,-1.08233 -3.33444,-0.522261 -4.98629,-0.66287zm0 -7.54325c0.309576,1.42145 -0.542348,3.0095 0.309576,4.30806 1.33047,0.283581 3.14893,0.473816 4.36714,-0.441913 1.17332,-1.16977 0.496266,-3.73736 -1.29029,-3.80116 -1.12487,-0.151243 -2.25919,-0.0165422 -3.38643,-0.0649872zm-3.69482 -3.04613c3.34153,0.17133 6.80121,-0.463182 10.0411,0.615606 1.72866,0.712496 2.85353,2.5605 2.69756,4.42386 0.0165422,1.78656 -1.21113,3.71136 -3.10993,3.86261 -0.456092,0.421826 1.33519,0.267038 1.63177,0.779847 1.66013,0.994896 2.35608,3.02959 2.15403,4.88704 -0.0768031,1.8799 -1.23594,3.85079 -3.17729,4.26671 -3.08158,1.0008 -6.34748,0.278854 -9.50704,0.602609 -1.58687,-0.744399 -0.310757,-2.87598 -0.729039,-4.22299l0 -15.2153 -0.00118159 0z"/>
   <path id="_338614768" class="fil2" d="M652.602 42.7746c-2.47897,1.37064 -5.89966,1.37537 -8.06433,-0.602609 -1.85273,-1.88581 -2.10204,-4.81378 -1.49352,-7.27266 0.563617,-2.12095 2.43643,-3.86379 4.65072,-4.07647 1.51716,-0.235136 3.09339,0.0295397 4.48648,0.66287 0.756215,0.68532 0.55889,2.39626 0.115795,2.86535 -1.44272,-0.944087 -3.48568,-1.44862 -4.98984,-0.350931 -1.26666,1.01144 -1.41318,2.82754 -1.18868,4.32224 0.189054,1.27257 1.09888,2.48015 2.42461,2.68575 1.07288,0.224501 2.21193,-0.0082711 3.16429,-0.532895 0.942906,-1.07642 1.06106,0.473816 0.894461,1.20522 -0.00354476,0.36511 -0.00708952,0.73022 0,1.09415l0 0zm13.5682 0c-2.47897,1.37064 -5.89966,1.37537 -8.06433,-0.602609 -1.85273,-1.88581 -2.10204,-4.81378 -1.49352,-7.27266 0.563617,-2.12095 2.43643,-3.86379 4.65072,-4.07647 1.51834,-0.235136 3.09339,0.0295397 4.48648,0.66287 0.756215,0.68532 0.560072,2.39626 0.115795,2.86535 -1.44272,-0.944087 -3.48568,-1.44862 -4.98984,-0.350931 -1.26666,1.01144 -1.412,2.82754 -1.18868,4.32224 0.190235,1.27257 1.10006,2.48015 2.42461,2.68575 1.07406,0.224501 2.21193,-0.0082711 3.16429,-0.532895 0.942906,-1.07642 1.06106,0.473816 0.895642,1.20522 -0.00354476,0.36511 -0.00708952,0.73022 0,1.09415l-0.00118159 0z"/>
   <path id="_338614864" class="fil2" d="M452.771 42.7746c-2.48015,1.37064 -5.89966,1.37537 -8.06433,-0.602609 -1.85273,-1.88581 -2.10322,-4.81378 -1.49352,-7.27266 0.563617,-2.12095 2.43643,-3.86379 4.65072,-4.07647 1.51716,-0.235136 3.09221,0.0295397 4.48648,0.66287 0.756215,0.68532 0.55889,2.39626 0.115795,2.86535 -1.44272,-0.944087 -3.48568,-1.44862 -4.98984,-0.350931 -1.26666,1.01144 -1.412,2.82754 -1.18868,4.32224 0.189054,1.27257 1.09888,2.48015 2.42461,2.68575 1.07288,0.224501 2.21193,-0.0082711 3.16429,-0.532895 0.942906,-1.07642 1.06106,0.473816 0.894461,1.20522 -0.00354476,0.36511 -0.00708952,0.73022 0,1.09415l0 0zm13.5682 0c-2.48015,1.37064 -5.89966,1.37537 -8.06433,-0.602609 -1.85273,-1.88581 -2.10322,-4.81378 -1.49352,-7.27266 0.563617,-2.12095 2.43643,-3.86379 4.65072,-4.07647 1.51716,-0.235136 3.09221,0.0295397 4.48648,0.66287 0.756215,0.68532 0.55889,2.39626 0.115795,2.86535 -1.44272,-0.944087 -3.48568,-1.44862 -4.98984,-0.350931 -1.26666,1.01144 -1.412,2.82754 -1.18868,4.32224 0.189054,1.27257 1.09888,2.48015 2.42461,2.68575 1.07288,0.224501 2.21193,-0.0082711 3.16429,-0.532895 0.942906,-1.07642 1.06106,0.473816 0.894461,1.20522 -0.00354476,0.36511 -0.00708952,0.73022 0,1.09415l0 0z"/>
  </g>
 </g>
</svg>
