<?xml version="1.0" encoding="UTF-8"?>
<!DOCTYPE svg PUBLIC "-//W3C//DTD SVG 1.1//EN" "http://www.w3.org/Graphics/SVG/1.1/DTD/svg11.dtd">
<!-- Creator: CorelDRAW -->
<svg xmlns="http://www.w3.org/2000/svg" xml:space="preserve" width="759px" height="688px" style="shape-rendering:geometricPrecision; text-rendering:geometricPrecision; image-rendering:optimizeQuality; fill-rule:evenodd; clip-rule:evenodd"
viewBox="0 0 270.582 245.174"
 xmlns:xlink="http://www.w3.org/1999/xlink">
 <defs>
  <style type="text/css">
   <![CDATA[
    .fil2 {fill:black}
    .fil1 {fill:#2C2C2C}
    .fil0 {fill:#575757}
   ]]>
  </style>
 </defs>
 <g id="Livello_x0020_1">
  <metadata id="CorelCorpID_0Corel-Layer"/>
  <g id="_338614720">
   <path id="_338616016" class="fil0" d="M267.26 39.657l0 -39.657 -267.26 0 0 39.657 12.1668 0 242.923 0 12.1693 0zm-13.9723 -4.95623l-8.56298 0c-1.7478,0 -3.15496,-1.40674 -3.15496,-3.15454l0 -14.8729c0,-1.7478 1.40716,-3.15496 3.15496,-3.15496l8.56298 0c1.7478,0 3.15496,1.40716 3.15496,3.15496l0 14.8729c0,1.7478 -1.40716,3.15454 -3.15496,3.15454zm-33.5483 0l-8.5634 0c-1.7478,0 -3.15454,-1.40674 -3.15454,-3.15454l0 -14.8729c0,-1.7478 1.40674,-3.15496 3.15454,-3.15496l8.5634 0c1.7478,0 3.15454,1.40716 3.15454,3.15496l0 14.8729c0,1.7478 -1.40674,3.15454 -3.15454,3.15454zm-33.5344 0l-8.56298 0c-1.7478,0 -3.15496,-1.40674 -3.15496,-3.15454l0 -14.8729c0,-1.7478 1.40716,-3.15496 3.15496,-3.15496l8.56298 0c1.7478,0 3.15496,1.40716 3.15496,3.15496l0 14.8729c0,1.7478 -1.40716,3.15454 -3.15496,3.15454zm-33.5479 0l-8.56298 0c-1.7478,0 -3.15496,-1.40674 -3.15496,-3.15454l0 -14.8729c0,-1.7478 1.40716,-3.15496 3.15496,-3.15496l8.56298 0c1.7478,0 3.15496,1.40716 3.15496,3.15496l0 14.8729c0,1.7478 -1.40716,3.15454 -3.15496,3.15454zm-33.5483 0l-8.5634 0c-1.7478,0 -3.15454,-1.40674 -3.15454,-3.15454l0 -14.8729c0,-1.7478 1.40674,-3.15496 3.15454,-3.15496l8.5634 0c1.74738,0 3.15454,1.40716 3.15454,3.15496l0 14.8729c0,1.7478 -1.40716,3.15454 -3.15454,3.15454zm-33.5483 0l-8.56298 0c-1.7478,0 -3.15496,-1.40674 -3.15496,-3.15454l0 -14.8729c0,-1.7478 1.40716,-3.15496 3.15496,-3.15496l8.56298 0c1.7478,0 3.15496,1.40716 3.15496,3.15496l0 14.8729c0,1.7478 -1.40716,3.15454 -3.15496,3.15454zm-33.534 0l-8.56298 0c-1.7478,0 -3.15496,-1.40674 -3.15496,-3.15454l0 -14.8729c0,-1.7478 1.40716,-3.15496 3.15496,-3.15496l8.56298 0c1.7478,0 3.15496,1.40716 3.15496,3.15496l0 14.8729c0,1.7478 -1.40716,3.15454 -3.15496,3.15454zm-33.5488 0l-8.56298 0c-1.7478,0 -3.15496,-1.40674 -3.15496,-3.15454l0 -14.8729c0,-1.7478 1.40716,-3.15496 3.15496,-3.15496l8.56298 0c1.7478,0 3.15496,1.40716 3.15496,3.15496l0 14.8729c0,1.7478 -1.40716,3.15454 -3.15496,3.15454z"/>
   <path id="_338613928" class="fil1" d="M267.26 30.2637l0 -10.1971 -10.8165 0 0 10.1971 10.8165 0zm-25.6894 0l0 -10.1971 -18.6759 0 0 10.1971 18.6759 0zm-33.5483 0l0 -10.1971 -18.6611 0 0 10.1971 18.6611 0zm-33.534 0l0 -10.1971 -18.6759 0 0 10.1971 18.6759 0zm-33.5479 0l0 -10.1971 -18.6759 0 0 10.1971 18.6759 0zm-33.5488 0l0 -10.1971 -18.6754 0 0 10.1971 18.6754 0zm-33.5479 0l0 -10.1971 -18.6615 0 0 10.1971 18.6615 0zm-33.534 0l0 -10.1971 -18.6759 0 0 10.1971 18.6759 0zm-33.5488 0l0 -10.1971 -6.76045 0 0 10.1971 6.76045 0z"/>
   <path id="_338613712" class="fil1" d="M265.048 11.4628l0 -11.4628 -6.3655 0 0 11.4628 6.3655 0zm-261.317 -11.4628l6.36592 0 0 11.4628 -6.36592 0 0 -11.4628zm9.01393 0l4.14065 0 0 11.4628 -4.14065 0 0 -11.4628zm35.1534 0l4.14065 0 0 11.4628 -4.14065 0 0 -11.4628zm6.30992 0l4.14065 0 0 11.4628 -4.14065 0 0 -11.4628zm6.3095 0l4.14065 0 0 11.4628 -4.14065 0 0 -11.4628zm13.3238 0l6.36592 0 0 11.4628 -6.36592 0 0 -11.4628zm8.30951 0l4.14065 0 0 11.4628 -4.14065 0 0 -11.4628zm6.3095 0l4.14065 0 0 11.4628 -4.14065 0 0 -11.4628zm85.6315 0l4.14065 0 0 11.4628 -4.14065 0 0 -11.4628zm6.50697 0l4.14065 0 0 11.4628 -4.14065 0 0 -11.4628zm7.01392 0l6.36592 0 0 11.4628 -6.36592 0 0 -11.4628zm64.0554 0l4.14065 0 0 11.4628 -4.14065 0 0 -11.4628z"/>
   <path id="_338614240" class="fil2" d="M212.407 7.34824c-0.737266,-0.0610529 -1.25011,0.831161 -0.961267,1.47453 0.254738,0.714108 1.36337,0.892214 1.78569,0.236632 0.411791,-0.557476 0.185264,-1.54316 -0.550739,-1.68337 -0.0892635,-0.0214738 -0.181474,-0.031158 -0.273685,-0.0277896m-1.01137 -0.577265c-0.917056,-0.242106 -1.31032,-1.38948 -0.954951,-2.21727 0.272422,-0.711582 1.02485,-1.144 1.76885,-1.14695 0.881267,-0.0909477 1.92127,0.313685 2.19285,1.22737 0.266948,0.756635 -0.0143158,1.76674 -0.808424,2.07411 -0.117474,0.242106 0.542739,0.228211 0.608844,0.527581 0.84674,0.928425 0.513265,2.67664 -0.685897,3.13643 -0.957898,0.322107 -2.18359,0.293054 -2.90696,-0.500212 -0.70274,-0.835793 -0.619371,-2.31411 0.349896,-2.91454 0.136001,-0.0816845 0.28337,-0.144001 0.435791,-0.186527zm0.143158 -1.39958c-0.0913688,0.71074 0.884214,1.17474 1.41432,0.72674 0.535581,-0.397475 0.410949,-1.41643 -0.277896,-1.56759 -0.532213,-0.176422 -1.20379,0.246738 -1.13643,0.841266l0 -0.000421054zm5.60718 1.92169l0 2.04127c0.610108,-0.0505265 1.31664,0.152422 1.83874,-0.259369 0.36337,-0.426949 0.328001,-1.15158 -0.061895,-1.54569 -0.512002,-0.385686 -1.18822,-0.186106 -1.77685,-0.236211zm0 -2.68801c0.110316,0.506528 -0.193264,1.07243 0.110316,1.53516 0.474107,0.101053 1.12211,0.168843 1.55622,-0.157474 0.418107,-0.416844 0.176843,-1.33179 -0.459791,-1.35453 -0.400844,-0.0538949 -0.805056,-0.00589476 -1.20674,-0.023158zm-1.31664 -1.08548c1.19074,0.0610529 2.42359,-0.165053 3.57812,0.219369 0.616002,0.253896 1.01685,0.912425 0.961267,1.57643 0.00589476,0.636634 -0.431581,1.32253 -1.10821,1.37643 -0.162527,0.150316 0.475791,0.0951583 0.581476,0.277896 0.591581,0.354528 0.839582,1.07958 0.767582,1.74148 -0.0273685,0.669897 -0.440423,1.37222 -1.13221,1.52043 -1.09811,0.356633 -2.2619,0.0993688 -3.3878,0.214738 -0.565476,-0.265264 -0.110737,-1.02485 -0.25979,-1.50485l0 -5.42192 -0.000421054 0z"/>
   <path id="_338614576" class="fil2" d="M232.552 15.2409c-0.883372,0.488423 -2.10232,0.490107 -2.8737,-0.214738 -0.660213,-0.672003 -0.749056,-1.71538 -0.532213,-2.59159 0.200843,-0.755792 0.868214,-1.37685 1.65727,-1.45264 0.540634,-0.0837898 1.10232,0.0105264 1.59874,0.236211 0.269475,0.244211 0.199159,0.853898 0.0412633,1.02106 -0.514107,-0.336422 -1.24211,-0.516213 -1.77811,-0.125053 -0.45137,0.360422 -0.503581,1.00758 -0.423581,1.54022 0.0673687,0.453475 0.39158,0.883793 0.864003,0.957056 0.382317,0.0800003 0.788214,-0.00294738 1.12758,-0.189895 0.336001,-0.38358 0.378107,0.168843 0.318738,0.429475 -0.00126316,0.130106 -0.00252633,0.260212 0,0.389896l0 0zm4.83497 0c-0.883372,0.488423 -2.10232,0.490107 -2.8737,-0.214738 -0.660213,-0.672003 -0.749056,-1.71538 -0.532213,-2.59159 0.200843,-0.755792 0.868214,-1.37685 1.65727,-1.45264 0.541055,-0.0837898 1.10232,0.0105264 1.59874,0.236211 0.269475,0.244211 0.19958,0.853898 0.0412633,1.02106 -0.514107,-0.336422 -1.24211,-0.516213 -1.77811,-0.125053 -0.45137,0.360422 -0.50316,1.00758 -0.423581,1.54022 0.0677897,0.453475 0.392002,0.883793 0.864003,0.957056 0.382738,0.0800003 0.788214,-0.00294738 1.12758,-0.189895 0.336001,-0.38358 0.378107,0.168843 0.319159,0.429475 -0.00126316,0.130106 -0.00252633,0.260212 0,0.389896l-0.000421054 0z"/>
   <path id="_338614408" class="fil2" d="M161.343 15.2409c-0.883793,0.488423 -2.10232,0.490107 -2.8737,-0.214738 -0.660213,-0.672003 -0.749477,-1.71538 -0.532213,-2.59159 0.200843,-0.755792 0.868214,-1.37685 1.65727,-1.45264 0.540634,-0.0837898 1.1019,0.0105264 1.59874,0.236211 0.269475,0.244211 0.199159,0.853898 0.0412633,1.02106 -0.514107,-0.336422 -1.24211,-0.516213 -1.77811,-0.125053 -0.45137,0.360422 -0.50316,1.00758 -0.423581,1.54022 0.0673687,0.453475 0.39158,0.883793 0.864003,0.957056 0.382317,0.0800003 0.788214,-0.00294738 1.12758,-0.189895 0.336001,-0.38358 0.378107,0.168843 0.318738,0.429475 -0.00126316,0.130106 -0.00252633,0.260212 0,0.389896l0 0zm4.83497 0c-0.883793,0.488423 -2.10232,0.490107 -2.8737,-0.214738 -0.660213,-0.672003 -0.749477,-1.71538 -0.532213,-2.59159 0.200843,-0.755792 0.868214,-1.37685 1.65727,-1.45264 0.540634,-0.0837898 1.1019,0.0105264 1.59874,0.236211 0.269475,0.244211 0.199159,0.853898 0.0412633,1.02106 -0.514107,-0.336422 -1.24211,-0.516213 -1.77811,-0.125053 -0.45137,0.360422 -0.50316,1.00758 -0.423581,1.54022 0.0673687,0.453475 0.39158,0.883793 0.864003,0.957056 0.382317,0.0800003 0.788214,-0.00294738 1.12758,-0.189895 0.336001,-0.38358 0.378107,0.168843 0.318738,0.429475 -0.00126316,0.130106 -0.00252633,0.260212 0,0.389896l0 0z"/>
  </g>
  <g id="_338613832">
   <path id="_338617216" class="fil0" d="M270.582 245.174l0 -38.281 -12.1693 0 -242.923 0 -11.856 0 0 38.281 115.898 0c3.57938,-6.43245 10.443,-10.7887 18.3218,-10.7887 7.87877,0 14.7428,4.35623 18.3222,10.7887l114.407 0zm-14.4224 -13.0422l-8.56298 0c-1.7478,0 -3.15496,-1.40716 -3.15496,-3.15496l0 -14.8729c0,-1.7478 1.40716,-3.15454 3.15496,-3.15454l8.56298 0c1.7478,0 3.15496,1.40674 3.15496,3.15454l0 14.8729c0,1.7478 -1.40716,3.15496 -3.15496,3.15496zm-33.5483 0l-8.5634 0c-1.7478,0 -3.15454,-1.40716 -3.15454,-3.15496l0 -14.8729c0,-1.7478 1.40674,-3.15454 3.15454,-3.15454l8.5634 0c1.74738,0 3.15454,1.40674 3.15454,3.15454l0 14.8729c0,1.7478 -1.40716,3.15496 -3.15454,3.15496zm-33.5344 0l-8.56298 0c-1.7478,0 -3.15496,-1.40716 -3.15496,-3.15496l0 -14.8729c0,-1.7478 1.40716,-3.15454 3.15496,-3.15454l8.56298 0c1.7478,0 3.15496,1.40674 3.15496,3.15454l0 14.8729c0,1.7478 -1.40716,3.15496 -3.15496,3.15496zm-33.5483 0l-8.5634 0c-1.7478,0 -3.15454,-1.40716 -3.15454,-3.15496l0 -14.8729c0,-1.7478 1.40674,-3.15454 3.15454,-3.15454l8.5634 0c1.7478,0 3.15454,1.40674 3.15454,3.15454l0 14.8729c0,1.7478 -1.40674,3.15496 -3.15454,3.15496zm-33.5483 0l-8.56298 0c-1.7478,0 -3.15496,-1.40716 -3.15496,-3.15496l0 -14.8729c0,-1.7478 1.40716,-3.15454 3.15496,-3.15454l8.56298 0c1.7478,0 3.15496,1.40674 3.15496,3.15454l0 14.8729c0,1.7478 -1.40716,3.15496 -3.15496,3.15496zm-33.5479 0l-8.56298 0c-1.7478,0 -3.15496,-1.40716 -3.15496,-3.15496l0 -14.8729c0,-1.7478 1.40716,-3.15454 3.15496,-3.15454l8.56298 0c1.7478,0 3.15496,1.40674 3.15496,3.15454l0 14.8729c0,1.7478 -1.40716,3.15496 -3.15496,3.15496zm-33.534 0l-8.5634 0c-1.74738,0 -3.15454,-1.40716 -3.15454,-3.15496l0 -14.8729c0,-1.7478 1.40716,-3.15454 3.15454,-3.15454l8.5634 0c1.7478,0 3.15454,1.40674 3.15454,3.15454l0 14.8729c0,1.7478 -1.40674,3.15496 -3.15454,3.15496zm-33.5488 0l-8.56298 0c-1.7478,0 -3.15496,-1.40716 -3.15496,-3.15496l0 -14.8729c0,-1.7478 1.40716,-3.15454 3.15496,-3.15454l8.56298 0c1.7478,0 3.15496,1.40674 3.15496,3.15454l0 14.8729c0,1.7478 -1.40716,3.15496 -3.15496,3.15496z"/>
   <path id="_338614144" class="fil1" d="M183.699 245.174l0 -0.000421054 0.0282106 0 0 -6.21139 2.85896 0 0 6.21139 3.19707 0 0 -13.1268c-0.226948,0.0517897 -0.461054,0.0846319 -0.704003,0.0846319l-8.56298 0c-1.33853,0 -2.46948,-0.828635 -2.9297,-2.00001l-3.14064 0 0 15.0426 3.19707 0 0 -5.98655 2.85896 0 0 5.98655 3.19707 0zm-66.0268 0l-3.19749 0 0 -6.01392 -2.85896 0 0 6.01392 -3.19707 0 0 -15.0704 2.05643 0c0.452633,1.18695 1.59411,2.02822 2.94359,2.02822l4.25349 0 0 13.0422zm152.771 -0.000421054l0 -6.18318 -3.18317 0 0 6.18318 3.18317 0zm-16.8868 0l0 -13.0417 -5.9575 0c-1.42485,0 -2.6198,-0.932635 -3.01433,-2.22527l-0.281685 0 0 15.2674 3.19707 0 0 -6.21139 2.85938 0 0 6.21139 3.19707 0 0 -0.000421054zm-223.783 0l0 -6.18318 -3.18275 0 0 6.18318 3.18275 0zm-16.8868 0l0 -13.0417 -0.0985267 0c-1.42485,0 -2.6198,-0.932635 -3.01391,-2.22527l-6.14108 0 0 15.2674 3.19707 0 0 -6.21139 2.85938 0 0 6.21139 3.19707 0 0 -0.000421054zm251.024 -0.154948l0 -6.05644 3.19707 0 0 -9.05561 -3.19707 0 0 8.9154 -3.18317 0 0 -9.08467 -1.50695 0c-0.227369,0.922109 -0.852635,1.68295 -1.69011,2.08464l0 13.1967 6.38024 0 0 0zm-240.668 0l0 -6.05644 3.19707 0 0 -9.05561 -2.07032 0c-0.198317,0.649687 -0.595792,1.20969 -1.12674,1.60548l0 7.3095 -3.18317 0 0 -6.68971 -3.19707 0 0 12.8872 6.38024 0 0 -0.000421054zm137.42 -0.0143158l0 -6.19666 -3.19707 0 0 6.19666 3.19707 0zm-89.658 -1.39411c1.70569,-0.144422 2.60127,-2.01348 2.52085,-3.60549 0.17558,-1.76632 -0.573055,-4.19707 -2.77433,-3.95791 -2.35454,0.149895 -2.8678,3.97349 -0.760845,4.85939 0.732213,0.454318 2.71706,-0.733477 1.85938,0.858951 -0.552844,1.44169 -3.08085,-0.370107 -2.70443,1.53516 0.473265,0.210527 0.989478,0.320001 1.50695,0.309896 0.120843,0.00631581 0.238317,0.00968425 0.352422,0l0 0zm-4.88718 -0.0421054c0.455581,-0.0185264 0.912846,-0.144422 1.30948,-0.380633 0.529265,-2.4918 -1.67622,0.0256843 -2.53475,-1.46443 -0.678739,-1.05643 -0.636213,-2.52422 -0.169264,-3.64801 0.488423,-1.76506 2.75327,0.449265 2.74654,-1.21095 -0.393265,-1.36422 -2.37643,-0.911161 -3.2817,-0.338107 -1.39074,1.10821 -1.50232,3.19664 -1.08421,4.80254 0.226527,1.42864 1.64716,2.2939 3.01391,2.23959l0 0zm145.814 -1.09853c0.521265,-0.015579 1.03832,-0.153264 1.43664,-0.493055 0.996635,-0.798319 1.11032,-2.61475 -0.0425265,-3.3238 0.101053,-0.40337 0.705266,-1.12885 0.577686,-1.78864 0.0555792,-1.05011 -0.835793,-1.99159 -1.87327,-2.02822 -0.870319,-0.198738 -1.81727,0.280843 -2.19706,1.08464 -0.520844,0.868214 -0.173053,2.24085 0.872845,2.50696 -0.503581,0.110316 -0.901056,0.50737 -1.12632,0.957477 -0.647581,1.16885 0.224843,2.64591 1.42232,3.00001 0.292633,0.0686318 0.616845,0.0938951 0.929688,0.0846319l0 0zm17.7601 -0.0282106l0 -1.85938 8.90109 0.000421054 0 -2.9297 -8.90109 0 0 -1.85895 -2.87327 1.66148 -2.87285 1.6619 2.87285 1.6619 2.87327 1.6619 0 0.000421054zm-24.7315 -0.0143158c0.236211,0.00168422 0.475791,-0.0446318 0.690108,-0.140632 1.09727,0.232843 2.33264,-0.402949 2.70401,-1.47874 0.194106,-0.604634 0.184001,-1.45011 -0.422317,-1.81685 -0.642108,-0.194106 -0.624423,-0.946109 -0.126737,-1.29601 0.701897,-0.56295 0.40337,-1.69222 -0.253475,-2.16885 -1.23411,-0.829477 -2.77054,-0.429475 -4.15496,-0.521265 -0.0197896,1.10611 0.0105264,2.21769 0.0138948,3.3238 0.117053,0.979372 -0.304422,1.9638 -0.0277896,2.9297 0.149053,0.733898 0.868214,1.16422 1.57727,1.16885l0 0zm6.90108 -1.15495c-0.397475,0.00968425 -0.799161,-0.188632 -0.971793,-0.605476 -0.442949,-0.666108 0.0210527,-1.73432 0.873267,-1.63369 0.810529,-0.0913688 1.29685,0.867372 1,1.54906 -0.116632,0.458949 -0.503581,0.680845 -0.901477,0.690108l0 0zm-5.90108 -0.0703161c-1.06569,0.0252633 -1.61685,-1.35706 -1.18316,-2.22527 0.55495,-0.208422 1.22737,-0.141474 1.70401,0.225685 0.861477,0.539371 0.456844,1.9238 -0.520844,2.00001l0 -0.000421054zm-82.1965 -1.35201c0.155369,-0.141474 0.319159,-0.27158 0.478739,-0.408423l0 -8.23919c-0.571371,0.578529 -1.37222,0.929688 -2.25348,0.929688l-0.943583 0 0 7.71792 2.71833 0zm-52.7467 -0.0421054c-1.13137,-0.0825266 -1.31285,-1.89011 -0.492633,-2.47875 1.61853,-0.832845 2.13306,2.3478 0.492633,2.47875zm99.6433 -0.633687l0 -9.07077 -3.19707 0 0 9.07077 3.19707 0zm-6.63371 0l0 -9.07077 -3.19707 0 0 9.07077 3.19707 0zm-6.63371 0l0 -7.64761c-0.521265,0.380633 -1.16127,0.605476 -1.85895,0.605476l-1.33811 0 0 7.04213 3.19707 0zm-6.63371 -0.324212l0 -6.71792 -3.19707 0 0 4.6476c1.13137,0.593265 2.19959,1.28801 3.19707,2.07032zm54.8836 -0.957477c-0.811793,-0.00968425 -1.36758,-1.05432 -0.872845,-1.73264 0.470318,-0.126737 1,-0.0997899 1.43664,0.126737 0.928846,0.333475 0.477054,1.60085 -0.394528,1.59159 -0.0560002,0.00884214 -0.114948,0.0147369 -0.169264,0.0143158zm6.14108 -0.0425265c-0.468212,0.0665266 -0.985267,-0.364212 -0.929688,-0.887161 -0.0846319,-0.69895 0.732634,-1.06695 1.3099,-0.859372 0.731792,0.185685 0.545686,1.14906 0.0421054,1.49306 -0.121264,0.14779 -0.266527,0.231159 -0.422317,0.253475l0 0zm-84.1123 -0.816845c1.01811,-0.568423 2.08338,-1.056 3.19707,-1.45053l0 -5.25349 -3.19707 0 0 6.70403 0 0zm16.4502 -1.69011l0 -5.01391 -3.18317 0 0 4.2817c1.08969,0.160843 2.15538,0.410107 3.18317,0.732213l0 0zm-9.81646 -0.661897c1.03495,-0.176422 2.10232,-0.277054 3.18317,-0.29558l0 -4.05644 -3.18317 0 0 4.35202z"/>
   <path id="_338613616" class="fil1" d="M270.582 227.627l0 -9.91541 -11.2674 0 0 9.91541 11.2674 0zm-266.949 0l0 -9.91541 5.9996 0 0 9.91541 -5.9996 0zm240.809 0l0 -9.91541 -18.6759 0 0 9.91541 18.6759 0zm-33.5483 0l0 -9.91541 -18.6611 0 0 9.91541 18.6611 0zm-33.534 0l0 -9.91541 -18.6759 0 0 9.91541 18.6759 0zm-33.5488 0l0 -9.91541 -18.6754 0 0 9.91541 18.6754 0zm-33.5479 0l0 -9.91541 -18.6759 0 0 9.91541 18.6759 0zm-33.5479 0l0 -9.91541 -18.6615 0 0 9.91541 18.6615 0zm-33.5344 0l0 -9.91541 -18.6754 0 0 9.91541 18.6754 0z"/>
  </g>
 </g>
</svg>
