<?xml version="1.0" encoding="UTF-8"?>
<!DOCTYPE svg PUBLIC "-//W3C//DTD SVG 1.1//EN" "http://www.w3.org/Graphics/SVG/1.1/DTD/svg11.dtd">
<!-- Creator: CorelDRAW -->
<svg xmlns="http://www.w3.org/2000/svg" xml:space="preserve" width="688px" height="2999px" style="shape-rendering:geometricPrecision; text-rendering:geometricPrecision; image-rendering:optimizeQuality; fill-rule:evenodd; clip-rule:evenodd"
viewBox="0 0 688 2999.89"
 xmlns:xlink="http://www.w3.org/1999/xlink">
 <defs>
  <style type="text/css">
   <![CDATA[
    .fil2 {fill:black}
    .fil1 {fill:#2C2C2C}
    .fil0 {fill:#575757}
   ]]>
  </style>
 </defs>
 <g id="Livello_x0020_1">
  <metadata id="CorelCorpID_0Corel-Layer"/>
  <g id="_387861848">
   <g>
    <path id="_387288640" class="fil0" d="M687.999 0l-687.994 0 0 749.972 687.994 0 0 -326.057c-18.093,-10.0325 -30.3526,-29.3164 -30.3526,-51.4573 0,-22.1409 12.2597,-41.426 30.3526,-51.4585l0 -320.999zm-36.6762 40.4714l0 24.029c0,4.90458 -3.94871,8.85329 -8.85329,8.85329l-41.7356 0c-4.90458,0 -8.85211,-3.94871 -8.85211,-8.85329l0 -24.029c0,-4.90458 3.94753,-8.85329 8.85211,-8.85329l41.7356 0c4.90458,0 8.85329,3.94871 8.85329,8.85329zm0 94.1417l0 24.0302c0,4.90458 -3.94871,8.85211 -8.85329,8.85211l-41.7356 0c-4.90458,0 -8.85211,-3.94753 -8.85211,-8.85211l0 -24.0302c0,-4.9034 3.94753,-8.85211 8.85211,-8.85211l41.7356 0c4.90458,0 8.85329,3.94871 8.85329,8.85211zm0 94.1027l0 24.029c0,4.90458 -3.94871,8.85329 -8.85329,8.85329l-41.7356 0c-4.90458,0 -8.85211,-3.94871 -8.85211,-8.85329l0 -24.029c0,-4.90458 3.94753,-8.85329 8.85211,-8.85329l41.7356 0c4.90458,0 8.85329,3.94871 8.85329,8.85329zm0 94.1417l0 24.0302c0,4.90458 -3.94871,8.85211 -8.85329,8.85211l-41.7356 0c-4.90458,0 -8.85211,-3.94753 -8.85211,-8.85211l0 -24.0302c0,-4.90458 3.94753,-8.85211 8.85211,-8.85211l41.7356 0c4.90458,0 8.85329,3.94753 8.85329,8.85211zm0 94.1417l0 24.029c0,4.90458 -3.94871,8.85329 -8.85329,8.85329l-41.7356 0c-4.90458,0 -8.85211,-3.94871 -8.85211,-8.85329l0 -24.029c0,-4.90458 3.94753,-8.85329 8.85211,-8.85329l41.7356 0c4.90458,0 8.85329,3.94871 8.85329,8.85329zm0 94.1405l0 24.029c0,4.90458 -3.94871,8.85329 -8.85329,8.85329l-41.7356 0c-4.90458,0 -8.85211,-3.94871 -8.85211,-8.85329l0 -24.029c0,-4.90458 3.94753,-8.85329 8.85211,-8.85329l41.7356 0c4.90458,0 8.85329,3.94871 8.85329,8.85329zm0 94.1015l0 24.0302c0,4.9034 -3.94871,8.85211 -8.85329,8.85211l-41.7356 0c-4.90458,0 -8.85211,-3.94871 -8.85211,-8.85211l0 -24.0302c0,-4.90458 3.94753,-8.85211 8.85211,-8.85211l41.7356 0c4.90458,0 8.85329,3.94753 8.85329,8.85211zm0 94.1429l0 24.029c0,4.90458 -3.94871,8.85329 -8.85329,8.85329l-41.7356 0c-4.90458,0 -8.85211,-3.94871 -8.85211,-8.85329l0 -24.029c0,-4.90458 3.94753,-8.85329 8.85211,-8.85329l41.7356 0c4.90458,0 8.85329,3.94871 8.85329,8.85329zm-70.824 -665.235l0 681.68c0,9.80798 -7.89743,17.7054 -17.7066,17.7054l-433.798 0c-9.80916,0 -17.7054,-7.89624 -17.7054,-17.7054l0 -681.68c0,-9.80916 7.89624,-17.7054 17.7054,-17.7054l433.798 0c9.80916,0 17.7066,7.89624 17.7066,17.7054zm-483.118 5.05936l0 24.029c0,4.90458 -3.94753,8.85329 -8.85211,8.85329l-41.7356 0c-4.90458,0 -8.85329,-3.94871 -8.85329,-8.85329l0 -24.029c0,-4.90458 3.94871,-8.85329 8.85329,-8.85329l41.7356 0c4.90458,0 8.85211,3.94871 8.85211,8.85329zm0 94.1417l0 24.0302c0,4.90458 -3.94753,8.85211 -8.85211,8.85211l-41.7356 0c-4.90458,0 -8.85329,-3.94753 -8.85329,-8.85211l0 -24.0302c0,-4.90458 3.94871,-8.85211 8.85329,-8.85211l41.7356 0c4.90458,0 8.85211,3.94753 8.85211,8.85211zm0 94.1027l0 24.029c0,4.90458 -3.94753,8.85329 -8.85211,8.85329l-41.7356 0c-4.90458,0 -8.85329,-3.94871 -8.85329,-8.85329l0 -24.029c0,-4.90458 3.94871,-8.85329 8.85329,-8.85329l41.7356 0c4.90458,0 8.85211,3.94871 8.85211,8.85329zm0 94.1405l0 24.029c0,4.90458 -3.94753,8.85329 -8.85211,8.85329l-41.7356 0c-4.90458,0 -8.85329,-3.94871 -8.85329,-8.85329l0 -24.029c0,-4.90458 3.94871,-8.85329 8.85329,-8.85329l41.7356 0c4.90458,0 8.85211,3.94871 8.85211,8.85329zm0 94.1417l0 24.0302c0,4.90458 -3.94753,8.85211 -8.85211,8.85211l-41.7356 0c-4.90458,0 -8.85329,-3.94753 -8.85329,-8.85211l0 -24.0302c0,-4.9034 3.94871,-8.85211 8.85329,-8.85211l41.7356 0c4.90458,0 8.85211,3.94871 8.85211,8.85211zm0 94.1417l0 24.029c0,4.90458 -3.94753,8.85329 -8.85211,8.85329l-41.7356 0c-4.90458,0 -8.85329,-3.94871 -8.85329,-8.85329l0 -24.029c0,-4.90458 3.94871,-8.85329 8.85329,-8.85329l41.7356 0c4.90458,0 8.85211,3.94871 8.85211,8.85329zm0 94.1015l0 24.029c0,4.90458 -3.94753,8.85329 -8.85211,8.85329l-41.7356 0c-4.90458,0 -8.85329,-3.94871 -8.85329,-8.85329l0 -24.029c0,-4.90458 3.94871,-8.85329 8.85329,-8.85329l41.7356 0c4.90458,0 8.85211,3.94871 8.85211,8.85329zm0 94.1429l0 24.029c0,4.90458 -3.94753,8.85329 -8.85211,8.85329l-41.7356 0c-4.90458,0 -8.85329,-3.94871 -8.85329,-8.85329l0 -24.029c0,-4.90458 3.94871,-8.85329 8.85329,-8.85329l41.7356 0c4.90458,0 8.85211,3.94871 8.85211,8.85329z"/>
    <path id="_387288856" class="fil1" d="M687.999 243.806l-0.0791633 0 0 -0.0791633 -17.4301 0 0 -8.02267 17.4301 0 0 -8.97145 -36.8357 0c0.14533,0.636851 0.23749,1.29379 0.23749,1.97554l0 24.029c0,3.75612 -2.32527,6.92974 -5.61232,8.22117l0 8.81312 42.2886 0 0 -8.97145 -16.876 0 0 -8.02267 16.876 0 0 -8.97145 0.00118154 0zm0 185.281l-36.6762 0 0 11.9359c0,3.78684 -2.36072,6.99 -5.69149,8.26016l0 5.77065 42.3689 0 0 -8.97145 -16.9551 0 0 -8.02267 16.9551 0 0 -8.97145 -0.00118154 -0.00118154zm-0.0791633 -428.698l-17.3509 0 0 8.93246 17.3509 0 0 -8.93246zm0 47.3869l-36.5971 0 0 16.7176c0,3.99834 -2.61712,7.35155 -6.24445,8.45866l0 0.790451 42.8427 0 0 -8.97145 -17.4301 0 0 -8.02385 17.4301 0 0 -8.97145 -0.00118154 0zm0 627.968l-17.3509 0 0 8.93127 17.3509 0 0 -8.93127zm0 47.3869l-36.5971 0 0 0.276481c0,3.99834 -2.61712,7.35155 -6.24445,8.45748l0 17.2328 42.8427 0 0 -8.97145 -17.4301 0 0 -8.02385 17.4301 0 0 -8.97145 -0.00118154 0zm-0.434807 -704.41l-16.9953 0 0 -8.97145 -25.4114 0 0 8.97145 25.018 0 0 8.93246 -25.4929 0 0 4.22874c2.58758,0.638033 4.72262,2.39262 5.84981,4.74271l37.0319 0 0 -17.9039 0 0zm0 675.35l-16.9953 0 0 -8.97145 -25.4114 0 0 5.80964c1.82312,0.556506 3.39457,1.67188 4.50522,3.16181l20.5116 0 0 8.93246 -18.7723 0 0 8.97145 36.1635 0 0 -17.9039 -0.00118154 0zm-0.0401724 -385.621l-17.3888 0 0 8.97145 17.3888 0 0 -8.97145zm-3.91209 251.594c-0.405269,-4.78643 -5.65013,-7.29957 -10.1175,-7.07389 -4.95657,-0.492703 -11.7776,1.60808 -11.1065,7.78518 0.420629,6.60718 11.1502,8.04748 13.6362,2.13505 1.27488,-2.0547 -2.05825,-7.62449 2.41035,-5.21769 4.0456,1.55136 -1.03858,8.64534 4.3079,7.58904 0.590771,-1.32805 0.897972,-2.77662 0.869615,-4.22874 0.0177231,-0.339103 0.0271755,-0.668753 0,-0.988951l0 0zm-0.118154 13.7142c-0.0519878,-1.27843 -0.405269,-2.56158 -1.06811,-3.6746 -6.99236,-1.4852 0.0720741,4.70372 -4.1094,7.11288 -2.96449,1.90465 -7.08334,1.78531 -10.2369,0.47498 -4.95302,-1.37059 1.26071,-7.7261 -3.39811,-7.7072 -3.8282,1.10356 -2.55686,6.66862 -0.948778,9.20894 3.10982,3.90263 8.97027,4.21574 13.4767,3.04247 4.00897,-0.63567 6.43704,-4.62219 6.28462,-8.45748l0 0zm-3.08264 -409.175c-0.043717,-1.46275 -0.430081,-2.91368 -1.38359,-4.03142 -2.2402,-2.79671 -7.33737,-3.11573 -9.32709,0.119336 -1.13192,-0.28357 -3.16771,-1.97908 -5.01919,-1.62108 -2.94677,-0.155964 -5.58869,2.34536 -5.69149,5.25668 -0.557688,2.44225 0.788088,5.09953 3.04365,6.16529 2.43634,1.46157 6.28817,0.485614 7.0349,-2.44934 0.309564,1.41312 1.42376,2.5285 2.68683,3.16062 3.27996,1.81721 7.42481,-0.630943 8.41849,-3.99125 0.192591,-0.821172 0.263484,-1.73096 0.23749,-2.60884l0 0zm-0.0791633 -49.8374l-5.21769 0 0.00118154 -24.9778 -8.22117 0 0 24.9778 -5.21651 0 4.66236 8.06284 4.66355 8.06166 4.66355 -8.06166 4.66355 -8.06284 0.00118154 0zm-0.0401724 69.4002c0.00472617,-0.662845 -0.125243,-1.33514 -0.394635,-1.93655 0.653393,-3.0791 -1.13074,-6.54574 -4.14957,-7.58786 -1.69669,-0.544691 -4.06923,-0.516334 -5.09835,1.18509 -0.544691,1.80185 -2.65492,1.75223 -3.63679,0.355644 -1.57972,-1.96963 -4.74862,-1.13192 -6.08612,0.711288 -2.32764,3.4631 -1.20517,7.77455 -1.46275,11.6595 3.10391,0.0555325 6.22318,-0.0295385 9.32709,-0.0389909 2.74827,-0.328469 5.51071,0.854255 8.22117,0.0779818 2.05943,-0.418266 3.26696,-2.43634 3.27996,-4.42606l0 0zm-3.24097 -19.3655c0.0271755,1.11538 -0.529331,2.24257 -1.69906,2.727 -1.8692,1.24298 -4.86677,-0.0590771 -4.58438,-2.45052 -0.256395,-2.27447 2.43398,-3.63915 4.34689,-2.80616 1.28788,0.327287 1.91055,1.41312 1.93655,2.52968l0 0zm-0.197317 16.5593c0.0708925,2.99048 -3.80811,4.53712 -6.24445,3.32013 -0.584863,-1.55727 -0.396998,-3.44419 0.633306,-4.7817 1.51356,-2.41743 5.39846,-1.28197 5.61232,1.46157l-0.00118154 0zm-3.79393 230.656c-0.396998,-0.435989 -0.762094,-0.895609 -1.1461,-1.34341l-23.1204 0c1.62344,1.60335 2.60884,3.85064 2.60884,6.32361l0 2.64784 21.6577 0 0 -7.62803zm-0.118154 148.015c-0.231582,3.1748 -5.30394,3.68405 -6.95574,1.3824 -2.33709,-4.54185 6.58828,-5.98569 6.95574,-1.3824zm-1.77822 -279.614l-25.454 0 0 8.97145 25.454 0 0 -8.97145zm0 18.6152l-25.454 0 0 8.97145 25.454 0 0 -8.97145zm0 18.6152l-21.4603 0c1.06811,1.46275 1.69906,3.25869 1.69906,5.21651l0 3.75494 19.7613 0 0 -8.97145zm-0.909787 18.6152l-18.8515 0 0 8.97145 13.0419 0c1.66479,-3.1748 3.61434,-6.17237 5.80964,-8.97145zm-2.68683 -154.012c-0.0271755,2.27801 -2.95858,3.83765 -4.86204,2.44934 -0.355644,-1.31978 -0.280025,-2.80616 0.355644,-4.03142 0.935781,-2.60648 4.49222,-1.33869 4.46623,1.1071 0.0248124,0.157145 0.041354,0.322561 0.0401724,0.47498zm-0.119336 -17.2328c0.186684,1.31387 -1.02203,2.76481 -2.48951,2.60884 -1.96136,0.23749 -2.99403,-2.05588 -2.41153,-3.67578 0.52106,-2.05352 3.22443,-1.53128 4.18975,-0.118154 0.414721,0.340284 0.648666,0.747916 0.711288,1.18509l0 0zm-2.29219 236.032c-1.59508,-2.85697 -2.96331,-5.84627 -4.07041,-8.97145l-14.7421 0 0 8.97145 18.8125 0 0 0zm-4.74271 -46.1617l-14.0698 0 0 8.93246 12.0151 0c0.451349,-3.05783 1.15082,-6.04831 2.0547,-8.93246l0 0zm-1.85738 27.5465c-0.495066,-2.90423 -0.777455,-5.89944 -0.829442,-8.93246l-11.383 0 0 8.93246 12.2124 0z"/>
    <path id="_387289192" class="fil1" d="M638.68 0l-27.8241 0 0 31.6181 27.8241 0 0 -31.6181zm0 73.3525l-27.8241 0 0 52.4073 27.8241 0 0 -52.4073zm0 94.1417l-27.8241 0 0 52.3659 27.8241 0 0 -52.3659zm0 94.1015l-27.8241 0 0 52.4073 27.8241 0 0 -52.4073zm0 94.1429l-27.8241 0 0 52.4061 27.8241 0 0 -52.4061zm0 94.1405l-27.8241 0 0 52.4073 27.8241 0 0 -52.4073zm0 94.1405l-27.8241 0 0 52.3671 27.8241 0 0 -52.3671zm0 94.1027l-27.8241 0 0 52.4061 27.8241 0 0 -52.4061zm0 94.1405l-27.8241 0 0 17.7054 27.8241 0 0 -17.7054z"/>
    <path id="_387289648" class="fil1" d="M84.9292 0l-28.6146 0 0 30.3526 28.6146 0 0 -30.3526zm0 72.0882l-28.6146 0 0 52.4073 28.6146 0 0 -52.4073zm0 94.1417l-28.6146 0 0 52.3659 28.6146 0 0 -52.3659zm0 94.1015l-28.6146 0 0 52.4073 28.6146 0 0 -52.4073zm0 94.1405l-28.6146 0 0 52.4073 28.6146 0 0 -52.4073zm0 94.1429l-28.6146 0 0 52.4061 28.6146 0 0 -52.4061zm0 94.1405l-28.6146 0 0 52.3671 28.6146 0 0 -52.3671zm0 94.1015l-28.6146 0 0 52.4073 28.6146 0 0 -52.4073zm0 94.1429l-28.6146 0 0 18.9708 28.6146 0 0 -18.9708z"/>
    <path id="_387289480" class="fil1" d="M32.171 6.20546l-32.171 0 0 17.8625 32.171 0 0 -17.8625zm0 25.9266l-32.171 0 0 11.6193 32.171 0 0 -11.6193zm0 173.505l-32.171 0 0 17.8637 32.171 0 0 -17.8637zm0 25.9266l-32.171 0 0 11.6193 32.171 0 0 -11.6193zm0 18.2595l-32.171 0 0 11.6193 32.171 0 0 -11.6193zm0 240.295l-32.171 0 0 11.6193 32.171 0 0 -11.6193zm0 17.7054l-32.171 0 0 11.6193 32.171 0 0 -11.6193zm0 17.0733l-32.171 0 0 17.8637 32.171 0 0 -17.8637zm0 43.6332l-32.171 0 0 11.6193 32.171 0 0 -11.6193zm0 17.7054l-32.171 0 0 11.6193 32.171 0 0 -11.6193zm0 17.7066l-32.171 0 0 11.6193 32.171 0 0 -11.6193zm0 98.6457l-32.171 0 0 11.6193 32.171 0 0 -11.6193zm0 19.05l-32.171 0 0 17.8637 32.171 0 0 -17.8637z"/>
    <path id="_387289216" class="fil2" d="M20.625 153.925c-0.171324,2.06888 2.33236,3.508 4.13776,2.69746 2.00389,-0.714833 2.50369,-3.82583 0.664027,-5.01092 -1.56436,-1.15555 -4.33035,-0.519878 -4.7238,1.54546 -0.0602586,0.250487 -0.0874341,0.509245 -0.0779818,0.768002m-1.61989 2.83806c-0.679387,2.5734 -3.89909,3.67696 -6.222,2.67974 -1.99681,-0.764458 -3.21025,-2.87587 -3.21852,-4.96366 -0.255213,-2.47297 0.880249,-5.39138 3.44419,-6.15347 2.12323,-0.749098 4.95775,0.0401724 5.82028,2.26856 0.679387,0.32965 0.640396,-1.52301 1.48047,-1.70851 2.6053,-2.37608 7.51106,-1.4403 8.80131,1.92473 0.90388,2.68801 0.822353,6.12748 -1.40367,8.15736 -2.34536,1.97199 -6.49375,1.73805 -8.17863,-0.981861 -0.229219,-0.381638 -0.404087,-0.795178 -0.523423,-1.2229zm-3.92745 -0.401724c1.99444,0.256395 3.2965,-2.48124 2.03934,-3.9688 -1.11538,-1.50292 -3.97471,-1.15318 -4.39888,0.779818 -0.495066,1.49347 0.692384,3.37803 2.36072,3.18898l-0.00118154 0zm5.39256 -15.7346l5.72811 0c-0.141785,-1.71205 0.427718,-3.69468 -0.72783,-5.15979 -1.19808,-1.01967 -3.23152,-0.920421 -4.33744,0.173687 -1.08229,1.43675 -0.522241,3.33431 -0.662845,4.98611zm-7.54296 0c1.42139,-0.309564 3.00939,0.542328 4.3079,-0.309564 0.28357,-1.33042 0.473798,-3.14881 -0.441897,-4.36698 -1.16973,-1.17327 -3.73722,-0.496248 -3.80102,1.29024 -0.151237,1.12483 -0.0165416,2.25911 -0.0649848,3.3863zm-3.04601 3.69468c0.171324,-3.3414 -0.463164,-6.80095 0.615583,-10.0407 0.71247,-1.7286 2.5604,-2.85342 4.42369,-2.69746 1.78649,-0.0165416 3.71122,1.21108 3.86246,3.10982 0.42181,0.456075 0.267028,-1.33514 0.779818,-1.63171 0.994858,-1.66007 3.02947,-2.35599 4.88686,-2.15395 1.87983,0.0768002 3.85064,1.23589 4.26655,3.17717 1.00077,3.08146 0.278844,6.34724 0.602586,9.50669 -0.744371,1.58681 -2.87587,0.310746 -4.22283,0.729011l-15.2147 0 0 0.00118154z"/>
    <path id="_387289792" class="fil2" d="M42.773 97.3945c1.37059,2.47887 1.37531,5.89944 -0.602586,8.06402 -1.88574,1.85266 -4.8136,2.10196 -7.27239,1.49347 -2.12087,-0.563595 -3.86364,-2.43634 -4.07632,-4.65055 -0.235127,-1.5171 0.0295385,-3.09328 0.662845,-4.48631 0.685294,-0.756187 2.39617,-0.558869 2.86524,-0.115791 -0.944052,1.44266 -1.44857,3.48555 -0.350918,4.98965 1.0114,1.26661 2.82743,1.41312 4.32208,1.18863 1.27252,-0.189047 2.48006,-1.09883 2.68564,-2.42452 0.224493,-1.07284 -0.00827079,-2.21185 -0.532875,-3.16417 -1.07638,-0.94287 0.473798,-1.06102 1.20517,-0.894427 0.365096,0.00354463 0.730193,0.00708925 1.09411,0l0 0zm0 -13.5676c1.37059,2.47887 1.37531,5.89944 -0.602586,8.06402 -1.88574,1.85266 -4.8136,2.10196 -7.27239,1.49347 -2.12087,-0.563595 -3.86364,-2.43634 -4.07632,-4.65055 -0.235127,-1.51828 0.0295385,-3.09328 0.662845,-4.48631 0.685294,-0.756187 2.39617,-0.560051 2.86524,-0.115791 -0.944052,1.44266 -1.44857,3.48555 -0.350918,4.98965 1.0114,1.26661 2.82743,1.41194 4.32208,1.18863 1.27252,-0.190228 2.48006,-1.10002 2.68564,-2.42452 0.224493,-1.07402 -0.00827079,-2.21185 -0.532875,-3.16417 -1.07638,-0.94287 0.473798,-1.06102 1.20517,-0.895609 0.365096,0.00354463 0.730193,0.00708925 1.09411,0l0 0.00118154z"/>
    <path id="_387290056" class="fil2" d="M42.773 297.218c1.37059,2.48006 1.37531,5.89944 -0.602586,8.06402 -1.88574,1.85266 -4.8136,2.10314 -7.27239,1.49347 -2.12087,-0.563595 -3.86364,-2.43634 -4.07632,-4.65055 -0.235127,-1.5171 0.0295385,-3.0921 0.662845,-4.48631 0.685294,-0.756187 2.39617,-0.558869 2.86524,-0.115791 -0.944052,1.44266 -1.44857,3.48555 -0.350918,4.98965 1.0114,1.26661 2.82743,1.41194 4.32208,1.18863 1.27252,-0.189047 2.48006,-1.09883 2.68564,-2.42452 0.224493,-1.07284 -0.00827079,-2.21185 -0.532875,-3.16417 -1.07638,-0.94287 0.473798,-1.06102 1.20517,-0.894427 0.365096,0.00354463 0.730193,0.00708925 1.09411,0l0 0zm0 -13.5676c1.37059,2.48006 1.37531,5.89944 -0.602586,8.06402 -1.88574,1.85266 -4.8136,2.10314 -7.27239,1.49347 -2.12087,-0.563595 -3.86364,-2.43634 -4.07632,-4.65055 -0.235127,-1.5171 0.0295385,-3.0921 0.662845,-4.48631 0.685294,-0.756187 2.39617,-0.558869 2.86524,-0.115791 -0.944052,1.44266 -1.44857,3.48555 -0.350918,4.98965 1.0114,1.26661 2.82743,1.41194 4.32208,1.18863 1.27252,-0.189047 2.48006,-1.09883 2.68564,-2.42452 0.224493,-1.07284 -0.00827079,-2.21185 -0.532875,-3.16417 -1.07638,-0.94287 0.473798,-1.06102 1.20517,-0.894427 0.365096,0.00354463 0.730193,0.00708925 1.09411,0l0 0z"/>
   </g>
   <g>
    <path id="_385439296" class="fil0" d="M687.999 749.972l-687.994 0 0 749.972 687.994 0 0 -326.057c-18.093,-10.0325 -30.3526,-29.3164 -30.3526,-51.4573 0,-22.1409 12.2597,-41.426 30.3526,-51.4585l0 -320.999zm-36.6762 40.4714l0 24.029c0,4.90458 -3.94871,8.85329 -8.85329,8.85329l-41.7356 0c-4.90458,0 -8.85211,-3.94871 -8.85211,-8.85329l0 -24.029c0,-4.90458 3.94753,-8.85329 8.85211,-8.85329l41.7356 0c4.90458,0 8.85329,3.94871 8.85329,8.85329zm0 94.1417l0 24.0302c0,4.90458 -3.94871,8.85211 -8.85329,8.85211l-41.7356 0c-4.90458,0 -8.85211,-3.94753 -8.85211,-8.85211l0 -24.0302c0,-4.9034 3.94753,-8.85211 8.85211,-8.85211l41.7356 0c4.90458,0 8.85329,3.94871 8.85329,8.85211zm0 94.1027l0 24.029c0,4.90458 -3.94871,8.85329 -8.85329,8.85329l-41.7356 0c-4.90458,0 -8.85211,-3.94871 -8.85211,-8.85329l0 -24.029c0,-4.90458 3.94753,-8.85329 8.85211,-8.85329l41.7356 0c4.90458,0 8.85329,3.94871 8.85329,8.85329zm0 94.1417l0 24.0302c0,4.90458 -3.94871,8.85211 -8.85329,8.85211l-41.7356 0c-4.90458,0 -8.85211,-3.94753 -8.85211,-8.85211l0 -24.0302c0,-4.90458 3.94753,-8.85211 8.85211,-8.85211l41.7356 0c4.90458,0 8.85329,3.94753 8.85329,8.85211zm0 94.1417l0 24.029c0,4.90458 -3.94871,8.85329 -8.85329,8.85329l-41.7356 0c-4.90458,0 -8.85211,-3.94871 -8.85211,-8.85329l0 -24.029c0,-4.90458 3.94753,-8.85329 8.85211,-8.85329l41.7356 0c4.90458,0 8.85329,3.94871 8.85329,8.85329zm0 94.1405l0 24.029c0,4.90458 -3.94871,8.85329 -8.85329,8.85329l-41.7356 0c-4.90458,0 -8.85211,-3.94871 -8.85211,-8.85329l0 -24.029c0,-4.90458 3.94753,-8.85329 8.85211,-8.85329l41.7356 0c4.90458,0 8.85329,3.94871 8.85329,8.85329zm0 94.1015l0 24.0302c0,4.9034 -3.94871,8.85211 -8.85329,8.85211l-41.7356 0c-4.90458,0 -8.85211,-3.94871 -8.85211,-8.85211l0 -24.0302c0,-4.90458 3.94753,-8.85211 8.85211,-8.85211l41.7356 0c4.90458,0 8.85329,3.94753 8.85329,8.85211zm0 94.1429l0 24.029c0,4.90458 -3.94871,8.85329 -8.85329,8.85329l-41.7356 0c-4.90458,0 -8.85211,-3.94871 -8.85211,-8.85329l0 -24.029c0,-4.90458 3.94753,-8.85329 8.85211,-8.85329l41.7356 0c4.90458,0 8.85329,3.94871 8.85329,8.85329zm-70.824 -665.235l0 681.68c0,9.80798 -7.89743,17.7054 -17.7066,17.7054l-433.798 0c-9.80916,0 -17.7054,-7.89624 -17.7054,-17.7054l0 -681.68c0,-9.80916 7.89624,-17.7054 17.7054,-17.7054l433.798 0c9.80916,0 17.7066,7.89624 17.7066,17.7054zm-483.118 5.05936l0 24.029c0,4.90458 -3.94753,8.85329 -8.85211,8.85329l-41.7356 0c-4.90458,0 -8.85329,-3.94871 -8.85329,-8.85329l0 -24.029c0,-4.90458 3.94871,-8.85329 8.85329,-8.85329l41.7356 0c4.90458,0 8.85211,3.94871 8.85211,8.85329zm0 94.1417l0 24.0302c0,4.90458 -3.94753,8.85211 -8.85211,8.85211l-41.7356 0c-4.90458,0 -8.85329,-3.94753 -8.85329,-8.85211l0 -24.0302c0,-4.90458 3.94871,-8.85211 8.85329,-8.85211l41.7356 0c4.90458,0 8.85211,3.94753 8.85211,8.85211zm0 94.1027l0 24.029c0,4.90458 -3.94753,8.85329 -8.85211,8.85329l-41.7356 0c-4.90458,0 -8.85329,-3.94871 -8.85329,-8.85329l0 -24.029c0,-4.90458 3.94871,-8.85329 8.85329,-8.85329l41.7356 0c4.90458,0 8.85211,3.94871 8.85211,8.85329zm0 94.1405l0 24.029c0,4.90458 -3.94753,8.85329 -8.85211,8.85329l-41.7356 0c-4.90458,0 -8.85329,-3.94871 -8.85329,-8.85329l0 -24.029c0,-4.90458 3.94871,-8.85329 8.85329,-8.85329l41.7356 0c4.90458,0 8.85211,3.94871 8.85211,8.85329zm0 94.1417l0 24.0302c0,4.90458 -3.94753,8.85211 -8.85211,8.85211l-41.7356 0c-4.90458,0 -8.85329,-3.94753 -8.85329,-8.85211l0 -24.0302c0,-4.9034 3.94871,-8.85211 8.85329,-8.85211l41.7356 0c4.90458,0 8.85211,3.94871 8.85211,8.85211zm0 94.1417l0 24.029c0,4.90458 -3.94753,8.85329 -8.85211,8.85329l-41.7356 0c-4.90458,0 -8.85329,-3.94871 -8.85329,-8.85329l0 -24.029c0,-4.90458 3.94871,-8.85329 8.85329,-8.85329l41.7356 0c4.90458,0 8.85211,3.94871 8.85211,8.85329zm0 94.1015l0 24.029c0,4.90458 -3.94753,8.85329 -8.85211,8.85329l-41.7356 0c-4.90458,0 -8.85329,-3.94871 -8.85329,-8.85329l0 -24.029c0,-4.90458 3.94871,-8.85329 8.85329,-8.85329l41.7356 0c4.90458,0 8.85211,3.94871 8.85211,8.85329zm0 94.1429l0 24.029c0,4.90458 -3.94753,8.85329 -8.85211,8.85329l-41.7356 0c-4.90458,0 -8.85329,-3.94871 -8.85329,-8.85329l0 -24.029c0,-4.90458 3.94871,-8.85329 8.85329,-8.85329l41.7356 0c4.90458,0 8.85211,3.94871 8.85211,8.85329z"/>
    <path id="_385439992" class="fil1" d="M687.999 993.778l-0.0791633 0 0 -0.0791633 -17.4301 0 0 -8.02267 17.4301 0 0 -8.97145 -36.8357 0c0.14533,0.636851 0.23749,1.29379 0.23749,1.97554l0 24.029c0,3.75612 -2.32527,6.92974 -5.61232,8.22117l0 8.81312 42.2886 0 0 -8.97145 -16.876 0 0 -8.02267 16.876 0 0 -8.97145 0.00118154 0zm0 185.281l-36.6762 0 0 11.9359c0,3.78684 -2.36072,6.99 -5.69149,8.26016l0 5.77065 42.3689 0 0 -8.97145 -16.9551 0 0 -8.02267 16.9551 0 0 -8.97145 -0.00118154 -0.00118154zm-0.0791633 -428.698l-17.3509 0 0 8.93246 17.3509 0 0 -8.93246zm0 47.3869l-36.5971 0 0 16.7176c0,3.99834 -2.61712,7.35155 -6.24445,8.45866l0 0.790451 42.8427 0 0 -8.97145 -17.4301 0 0 -8.02385 17.4301 0 0 -8.97145 -0.00118154 0zm0 627.968l-17.3509 0 0 8.93127 17.3509 0 0 -8.93127zm0 47.3869l-36.5971 0 0 0.276481c0,3.99834 -2.61712,7.35155 -6.24445,8.45748l0 17.2328 42.8427 0 0 -8.97145 -17.4301 0 0 -8.02385 17.4301 0 0 -8.97145 -0.00118154 0zm-0.434807 -704.41l-16.9953 0 0 -8.97145 -25.4114 0 0 8.97145 25.018 0 0 8.93246 -25.4929 0 0 4.22874c2.58758,0.638033 4.72262,2.39262 5.84981,4.74271l37.0319 0 0 -17.9039 0 0zm0 675.35l-16.9953 0 0 -8.97145 -25.4114 0 0 5.80964c1.82312,0.556506 3.39457,1.67188 4.50522,3.16181l20.5116 0 0 8.93246 -18.7723 0 0 8.97145 36.1635 0 0 -17.9039 -0.00118154 0zm-0.0401724 -385.621l-17.3888 0 0 8.97145 17.3888 0 0 -8.97145zm-3.91209 251.594c-0.405269,-4.78643 -5.65013,-7.29957 -10.1175,-7.07389 -4.95657,-0.492703 -11.7776,1.60808 -11.1065,7.78518 0.420629,6.60718 11.1502,8.04748 13.6362,2.13505 1.27488,-2.0547 -2.05825,-7.62449 2.41035,-5.21769 4.0456,1.55136 -1.03858,8.64534 4.3079,7.58904 0.590771,-1.32805 0.897972,-2.77662 0.869615,-4.22874 0.0177231,-0.339103 0.0271755,-0.668753 0,-0.988951l0 0zm-0.118154 13.7142c-0.0519878,-1.27843 -0.405269,-2.56158 -1.06811,-3.6746 -6.99236,-1.4852 0.0720741,4.70372 -4.1094,7.11288 -2.96449,1.90465 -7.08334,1.78531 -10.2369,0.47498 -4.95302,-1.37059 1.26071,-7.7261 -3.39811,-7.7072 -3.8282,1.10356 -2.55686,6.66862 -0.948778,9.20894 3.10982,3.90263 8.97027,4.21574 13.4767,3.04247 4.00897,-0.63567 6.43704,-4.62219 6.28462,-8.45748l0 0zm-3.08264 -409.175c-0.043717,-1.46275 -0.430081,-2.91368 -1.38359,-4.03142 -2.2402,-2.79671 -7.33737,-3.11573 -9.32709,0.119336 -1.13192,-0.28357 -3.16771,-1.97908 -5.01919,-1.62108 -2.94677,-0.155964 -5.58869,2.34536 -5.69149,5.25668 -0.557688,2.44225 0.788088,5.09953 3.04365,6.16529 2.43634,1.46157 6.28817,0.485614 7.0349,-2.44934 0.309564,1.41312 1.42376,2.5285 2.68683,3.16062 3.27996,1.81721 7.42481,-0.630943 8.41849,-3.99125 0.192591,-0.821172 0.263484,-1.73096 0.23749,-2.60884l0 0zm-0.0791633 -49.8374l-5.21769 0 0.00118154 -24.9778 -8.22117 0 0 24.9778 -5.21651 0 4.66236 8.06284 4.66355 8.06166 4.66355 -8.06166 4.66355 -8.06284 0.00118154 0zm-0.0401724 69.4002c0.00472617,-0.662845 -0.125243,-1.33514 -0.394635,-1.93655 0.653393,-3.0791 -1.13074,-6.54574 -4.14957,-7.58786 -1.69669,-0.544691 -4.06923,-0.516334 -5.09835,1.18509 -0.544691,1.80185 -2.65492,1.75223 -3.63679,0.355644 -1.57972,-1.96963 -4.74862,-1.13192 -6.08612,0.711288 -2.32764,3.4631 -1.20517,7.77455 -1.46275,11.6595 3.10391,0.0555325 6.22318,-0.0295385 9.32709,-0.0389909 2.74827,-0.328469 5.51071,0.854255 8.22117,0.0779818 2.05943,-0.418266 3.26696,-2.43634 3.27996,-4.42606l0 0zm-3.24097 -19.3655c0.0271755,1.11538 -0.529331,2.24257 -1.69906,2.727 -1.8692,1.24298 -4.86677,-0.0590771 -4.58438,-2.45052 -0.256395,-2.27447 2.43398,-3.63915 4.34689,-2.80616 1.28788,0.327287 1.91055,1.41312 1.93655,2.52968l0 0zm-0.197317 16.5593c0.0708925,2.99048 -3.80811,4.53712 -6.24445,3.32013 -0.584863,-1.55727 -0.396998,-3.44419 0.633306,-4.7817 1.51356,-2.41743 5.39846,-1.28197 5.61232,1.46157l-0.00118154 0zm-3.79393 230.656c-0.396998,-0.435989 -0.762094,-0.895609 -1.1461,-1.34341l-23.1204 0c1.62344,1.60335 2.60884,3.85064 2.60884,6.32361l0 2.64784 21.6577 0 0 -7.62803zm-0.118154 148.015c-0.231582,3.1748 -5.30394,3.68405 -6.95574,1.3824 -2.33709,-4.54185 6.58828,-5.98569 6.95574,-1.3824zm-1.77822 -279.614l-25.454 0 0 8.97145 25.454 0 0 -8.97145zm0 18.6152l-25.454 0 0 8.97145 25.454 0 0 -8.97145zm0 18.6152l-21.4603 0c1.06811,1.46275 1.69906,3.25869 1.69906,5.21651l0 3.75494 19.7613 0 0 -8.97145zm-0.909787 18.6152l-18.8515 0 0 8.97145 13.0419 0c1.66479,-3.1748 3.61434,-6.17237 5.80964,-8.97145zm-2.68683 -154.012c-0.0271755,2.27801 -2.95858,3.83765 -4.86204,2.44934 -0.355644,-1.31978 -0.280025,-2.80616 0.355644,-4.03142 0.935781,-2.60648 4.49222,-1.33869 4.46623,1.1071 0.0248124,0.157145 0.041354,0.322561 0.0401724,0.47498zm-0.119336 -17.2328c0.186684,1.31387 -1.02203,2.76481 -2.48951,2.60884 -1.96136,0.23749 -2.99403,-2.05588 -2.41153,-3.67578 0.52106,-2.05352 3.22443,-1.53128 4.18975,-0.118154 0.414721,0.340284 0.648666,0.747916 0.711288,1.18509l0 0zm-2.29219 236.032c-1.59508,-2.85697 -2.96331,-5.84627 -4.07041,-8.97145l-14.7421 0 0 8.97145 18.8125 0 0 0zm-4.74271 -46.1617l-14.0698 0 0 8.93246 12.0151 0c0.451349,-3.05783 1.15082,-6.04831 2.0547,-8.93246l0 0zm-1.85738 27.5465c-0.495066,-2.90423 -0.777455,-5.89944 -0.829442,-8.93246l-11.383 0 0 8.93246 12.2124 0z"/>
    <path id="_385439512" class="fil1" d="M638.68 749.972l-27.8241 0 0 31.6181 27.8241 0 0 -31.6181zm0 73.3525l-27.8241 0 0 52.4073 27.8241 0 0 -52.4073zm0 94.1417l-27.8241 0 0 52.3659 27.8241 0 0 -52.3659zm0 94.1015l-27.8241 0 0 52.4073 27.8241 0 0 -52.4073zm0 94.1429l-27.8241 0 0 52.4061 27.8241 0 0 -52.4061zm0 94.1405l-27.8241 0 0 52.4073 27.8241 0 0 -52.4073zm0 94.1405l-27.8241 0 0 52.3671 27.8241 0 0 -52.3671zm0 94.1027l-27.8241 0 0 52.4061 27.8241 0 0 -52.4061zm0 94.1405l-27.8241 0 0 17.7054 27.8241 0 0 -17.7054z"/>
    <path id="_384446344" class="fil1" d="M84.9292 749.972l-28.6146 0 0 30.3526 28.6146 0 0 -30.3526zm0 72.0882l-28.6146 0 0 52.4073 28.6146 0 0 -52.4073zm0 94.1417l-28.6146 0 0 52.3659 28.6146 0 0 -52.3659zm0 94.1015l-28.6146 0 0 52.4073 28.6146 0 0 -52.4073zm0 94.1405l-28.6146 0 0 52.4073 28.6146 0 0 -52.4073zm0 94.1429l-28.6146 0 0 52.4061 28.6146 0 0 -52.4061zm0 94.1405l-28.6146 0 0 52.3671 28.6146 0 0 -52.3671zm0 94.1015l-28.6146 0 0 52.4073 28.6146 0 0 -52.4073zm0 94.1429l-28.6146 0 0 18.9708 28.6146 0 0 -18.9708z"/>
    <path id="_387862688" class="fil1" d="M32.171 756.177l-32.171 0 0 17.8625 32.171 0 0 -17.8625zm0 25.9266l-32.171 0 0 11.6193 32.171 0 0 -11.6193zm0 173.505l-32.171 0 0 17.8637 32.171 0 0 -17.8637zm0 25.9266l-32.171 0 0 11.6193 32.171 0 0 -11.6193zm0 18.2595l-32.171 0 0 11.6193 32.171 0 0 -11.6193zm0 240.295l-32.171 0 0 11.6193 32.171 0 0 -11.6193zm0 17.7054l-32.171 0 0 11.6193 32.171 0 0 -11.6193zm0 17.0733l-32.171 0 0 17.8637 32.171 0 0 -17.8637zm0 43.6332l-32.171 0 0 11.6193 32.171 0 0 -11.6193zm0 17.7054l-32.171 0 0 11.6193 32.171 0 0 -11.6193zm0 17.7066l-32.171 0 0 11.6193 32.171 0 0 -11.6193zm0 98.6457l-32.171 0 0 11.6193 32.171 0 0 -11.6193zm0 19.05l-32.171 0 0 17.8637 32.171 0 0 -17.8637z"/>
    <path id="_385423960" class="fil2" d="M20.625 903.897c-0.171324,2.06888 2.33236,3.508 4.13776,2.69746 2.00389,-0.714833 2.50369,-3.82583 0.664027,-5.01092 -1.56436,-1.15555 -4.33035,-0.519878 -4.7238,1.54546 -0.0602586,0.250487 -0.0874341,0.509245 -0.0779818,0.768002m-1.61989 2.83806c-0.679387,2.5734 -3.89909,3.67696 -6.222,2.67974 -1.99681,-0.764458 -3.21025,-2.87587 -3.21852,-4.96366 -0.255213,-2.47297 0.880249,-5.39138 3.44419,-6.15347 2.12323,-0.749098 4.95775,0.0401724 5.82028,2.26856 0.679387,0.32965 0.640396,-1.52301 1.48047,-1.70851 2.6053,-2.37608 7.51106,-1.4403 8.80131,1.92473 0.90388,2.68801 0.822353,6.12748 -1.40367,8.15736 -2.34536,1.97199 -6.49375,1.73805 -8.17863,-0.981861 -0.229219,-0.381638 -0.404087,-0.795178 -0.523423,-1.2229zm-3.92745 -0.401724c1.99444,0.256395 3.2965,-2.48124 2.03934,-3.9688 -1.11538,-1.50292 -3.97471,-1.15318 -4.39888,0.779818 -0.495066,1.49347 0.692384,3.37803 2.36072,3.18898l-0.00118154 0zm5.39256 -15.7346l5.72811 0c-0.141785,-1.71205 0.427718,-3.69468 -0.72783,-5.15979 -1.19808,-1.01967 -3.23152,-0.920421 -4.33744,0.173687 -1.08229,1.43675 -0.522241,3.33431 -0.662845,4.98611zm-7.54296 0c1.42139,-0.309564 3.00939,0.542328 4.3079,-0.309564 0.28357,-1.33042 0.473798,-3.14881 -0.441897,-4.36698 -1.16973,-1.17327 -3.73722,-0.496248 -3.80102,1.29024 -0.151237,1.12483 -0.0165416,2.25911 -0.0649848,3.3863zm-3.04601 3.69468c0.171324,-3.3414 -0.463164,-6.80095 0.615583,-10.0407 0.71247,-1.7286 2.5604,-2.85342 4.42369,-2.69746 1.78649,-0.0165416 3.71122,1.21108 3.86246,3.10982 0.42181,0.456075 0.267028,-1.33514 0.779818,-1.63171 0.994858,-1.66007 3.02947,-2.35599 4.88686,-2.15395 1.87983,0.0768002 3.85064,1.23589 4.26655,3.17717 1.00077,3.08146 0.278844,6.34724 0.602586,9.50669 -0.744371,1.58681 -2.87587,0.310746 -4.22283,0.729011l-15.2147 0 0 0.00118154z"/>
    <path id="_387556160" class="fil2" d="M42.773 847.366c1.37059,2.47887 1.37531,5.89944 -0.602586,8.06402 -1.88574,1.85266 -4.8136,2.10196 -7.27239,1.49347 -2.12087,-0.563595 -3.86364,-2.43634 -4.07632,-4.65055 -0.235127,-1.5171 0.0295385,-3.09328 0.662845,-4.48631 0.685294,-0.756187 2.39617,-0.558869 2.86524,-0.115791 -0.944052,1.44266 -1.44857,3.48555 -0.350918,4.98965 1.0114,1.26661 2.82743,1.41312 4.32208,1.18863 1.27252,-0.189047 2.48006,-1.09883 2.68564,-2.42452 0.224493,-1.07284 -0.00827079,-2.21185 -0.532875,-3.16417 -1.07638,-0.94287 0.473798,-1.06102 1.20517,-0.894427 0.365096,0.00354463 0.730193,0.00708925 1.09411,0l0 0zm0 -13.5676c1.37059,2.47887 1.37531,5.89944 -0.602586,8.06402 -1.88574,1.85266 -4.8136,2.10196 -7.27239,1.49347 -2.12087,-0.563595 -3.86364,-2.43634 -4.07632,-4.65055 -0.235127,-1.51828 0.0295385,-3.09328 0.662845,-4.48631 0.685294,-0.756187 2.39617,-0.560051 2.86524,-0.115791 -0.944052,1.44266 -1.44857,3.48555 -0.350918,4.98965 1.0114,1.26661 2.82743,1.41194 4.32208,1.18863 1.27252,-0.190228 2.48006,-1.10002 2.68564,-2.42452 0.224493,-1.07402 -0.00827079,-2.21185 -0.532875,-3.16417 -1.07638,-0.94287 0.473798,-1.06102 1.20517,-0.895609 0.365096,0.00354463 0.730193,0.00708925 1.09411,0l0 0.00118154z"/>
    <path id="_387556352" class="fil2" d="M42.773 1047.19c1.37059,2.48006 1.37531,5.89944 -0.602586,8.06402 -1.88574,1.85266 -4.8136,2.10314 -7.27239,1.49347 -2.12087,-0.563595 -3.86364,-2.43634 -4.07632,-4.65055 -0.235127,-1.5171 0.0295385,-3.0921 0.662845,-4.48631 0.685294,-0.756187 2.39617,-0.558869 2.86524,-0.115791 -0.944052,1.44266 -1.44857,3.48555 -0.350918,4.98965 1.0114,1.26661 2.82743,1.41194 4.32208,1.18863 1.27252,-0.189047 2.48006,-1.09883 2.68564,-2.42452 0.224493,-1.07284 -0.00827079,-2.21185 -0.532875,-3.16417 -1.07638,-0.94287 0.473798,-1.06102 1.20517,-0.894427 0.365096,0.00354463 0.730193,0.00708925 1.09411,0l0 0zm0 -13.5676c1.37059,2.48006 1.37531,5.89944 -0.602586,8.06402 -1.88574,1.85266 -4.8136,2.10314 -7.27239,1.49347 -2.12087,-0.563595 -3.86364,-2.43634 -4.07632,-4.65055 -0.235127,-1.5171 0.0295385,-3.0921 0.662845,-4.48631 0.685294,-0.756187 2.39617,-0.558869 2.86524,-0.115791 -0.944052,1.44266 -1.44857,3.48555 -0.350918,4.98965 1.0114,1.26661 2.82743,1.41194 4.32208,1.18863 1.27252,-0.189047 2.48006,-1.09883 2.68564,-2.42452 0.224493,-1.07284 -0.00827079,-2.21185 -0.532875,-3.16417 -1.07638,-0.94287 0.473798,-1.06102 1.20517,-0.894427 0.365096,0.00354463 0.730193,0.00708925 1.09411,0l0 0z"/>
   </g>
   <g>
    <path id="_388904744" class="fil0" d="M687.999 1499.94l-687.994 0 0 749.972 687.994 0 0 -326.057c-18.093,-10.0325 -30.3526,-29.3164 -30.3526,-51.4573 0,-22.1409 12.2597,-41.426 30.3526,-51.4585l0 -320.999zm-36.6762 40.4714l0 24.029c0,4.90458 -3.94871,8.85329 -8.85329,8.85329l-41.7356 0c-4.90458,0 -8.85211,-3.94871 -8.85211,-8.85329l0 -24.029c0,-4.90458 3.94753,-8.85329 8.85211,-8.85329l41.7356 0c4.90458,0 8.85329,3.94871 8.85329,8.85329zm0 94.1417l0 24.0302c0,4.90458 -3.94871,8.85211 -8.85329,8.85211l-41.7356 0c-4.90458,0 -8.85211,-3.94753 -8.85211,-8.85211l0 -24.0302c0,-4.9034 3.94753,-8.85211 8.85211,-8.85211l41.7356 0c4.90458,0 8.85329,3.94871 8.85329,8.85211zm0 94.1027l0 24.029c0,4.90458 -3.94871,8.85329 -8.85329,8.85329l-41.7356 0c-4.90458,0 -8.85211,-3.94871 -8.85211,-8.85329l0 -24.029c0,-4.90458 3.94753,-8.85329 8.85211,-8.85329l41.7356 0c4.90458,0 8.85329,3.94871 8.85329,8.85329zm0 94.1417l0 24.0302c0,4.90458 -3.94871,8.85211 -8.85329,8.85211l-41.7356 0c-4.90458,0 -8.85211,-3.94753 -8.85211,-8.85211l0 -24.0302c0,-4.90458 3.94753,-8.85211 8.85211,-8.85211l41.7356 0c4.90458,0 8.85329,3.94753 8.85329,8.85211zm0 94.1417l0 24.029c0,4.90458 -3.94871,8.85329 -8.85329,8.85329l-41.7356 0c-4.90458,0 -8.85211,-3.94871 -8.85211,-8.85329l0 -24.029c0,-4.90458 3.94753,-8.85329 8.85211,-8.85329l41.7356 0c4.90458,0 8.85329,3.94871 8.85329,8.85329zm0 94.1405l0 24.029c0,4.90458 -3.94871,8.85329 -8.85329,8.85329l-41.7356 0c-4.90458,0 -8.85211,-3.94871 -8.85211,-8.85329l0 -24.029c0,-4.90458 3.94753,-8.85329 8.85211,-8.85329l41.7356 0c4.90458,0 8.85329,3.94871 8.85329,8.85329zm0 94.1015l0 24.0302c0,4.9034 -3.94871,8.85211 -8.85329,8.85211l-41.7356 0c-4.90458,0 -8.85211,-3.94871 -8.85211,-8.85211l0 -24.0302c0,-4.90458 3.94753,-8.85211 8.85211,-8.85211l41.7356 0c4.90458,0 8.85329,3.94753 8.85329,8.85211zm0 94.1429l0 24.029c0,4.90458 -3.94871,8.85329 -8.85329,8.85329l-41.7356 0c-4.90458,0 -8.85211,-3.94871 -8.85211,-8.85329l0 -24.029c0,-4.90458 3.94753,-8.85329 8.85211,-8.85329l41.7356 0c4.90458,0 8.85329,3.94871 8.85329,8.85329zm-70.824 -665.235l0 681.68c0,9.80798 -7.89743,17.7054 -17.7066,17.7054l-433.798 0c-9.80916,0 -17.7054,-7.89624 -17.7054,-17.7054l0 -681.68c0,-9.80916 7.89624,-17.7054 17.7054,-17.7054l433.798 0c9.80916,0 17.7066,7.89624 17.7066,17.7054zm-483.118 5.05936l0 24.029c0,4.90458 -3.94753,8.85329 -8.85211,8.85329l-41.7356 0c-4.90458,0 -8.85329,-3.94871 -8.85329,-8.85329l0 -24.029c0,-4.90458 3.94871,-8.85329 8.85329,-8.85329l41.7356 0c4.90458,0 8.85211,3.94871 8.85211,8.85329zm0 94.1417l0 24.0302c0,4.90458 -3.94753,8.85211 -8.85211,8.85211l-41.7356 0c-4.90458,0 -8.85329,-3.94753 -8.85329,-8.85211l0 -24.0302c0,-4.90458 3.94871,-8.85211 8.85329,-8.85211l41.7356 0c4.90458,0 8.85211,3.94753 8.85211,8.85211zm0 94.1027l0 24.029c0,4.90458 -3.94753,8.85329 -8.85211,8.85329l-41.7356 0c-4.90458,0 -8.85329,-3.94871 -8.85329,-8.85329l0 -24.029c0,-4.90458 3.94871,-8.85329 8.85329,-8.85329l41.7356 0c4.90458,0 8.85211,3.94871 8.85211,8.85329zm0 94.1405l0 24.029c0,4.90458 -3.94753,8.85329 -8.85211,8.85329l-41.7356 0c-4.90458,0 -8.85329,-3.94871 -8.85329,-8.85329l0 -24.029c0,-4.90458 3.94871,-8.85329 8.85329,-8.85329l41.7356 0c4.90458,0 8.85211,3.94871 8.85211,8.85329zm0 94.1417l0 24.0302c0,4.90458 -3.94753,8.85211 -8.85211,8.85211l-41.7356 0c-4.90458,0 -8.85329,-3.94753 -8.85329,-8.85211l0 -24.0302c0,-4.9034 3.94871,-8.85211 8.85329,-8.85211l41.7356 0c4.90458,0 8.85211,3.94871 8.85211,8.85211zm0 94.1417l0 24.029c0,4.90458 -3.94753,8.85329 -8.85211,8.85329l-41.7356 0c-4.90458,0 -8.85329,-3.94871 -8.85329,-8.85329l0 -24.029c0,-4.90458 3.94871,-8.85329 8.85329,-8.85329l41.7356 0c4.90458,0 8.85211,3.94871 8.85211,8.85329zm0 94.1015l0 24.029c0,4.90458 -3.94753,8.85329 -8.85211,8.85329l-41.7356 0c-4.90458,0 -8.85329,-3.94871 -8.85329,-8.85329l0 -24.029c0,-4.90458 3.94871,-8.85329 8.85329,-8.85329l41.7356 0c4.90458,0 8.85211,3.94871 8.85211,8.85329zm0 94.1429l0 24.029c0,4.90458 -3.94753,8.85329 -8.85211,8.85329l-41.7356 0c-4.90458,0 -8.85329,-3.94871 -8.85329,-8.85329l0 -24.029c0,-4.90458 3.94871,-8.85329 8.85329,-8.85329l41.7356 0c4.90458,0 8.85211,3.94871 8.85211,8.85329z"/>
    <path id="_388904768" class="fil1" d="M687.999 1743.75l-0.0791633 0 0 -0.0791633 -17.4301 0 0 -8.02267 17.4301 0 0 -8.97145 -36.8357 0c0.14533,0.636851 0.23749,1.29379 0.23749,1.97554l0 24.029c0,3.75612 -2.32527,6.92974 -5.61232,8.22117l0 8.81312 42.2886 0 0 -8.97145 -16.876 0 0 -8.02267 16.876 0 0 -8.97145 0.00118154 0zm0 185.281l-36.6762 0 0 11.9359c0,3.78684 -2.36072,6.99 -5.69149,8.26016l0 5.77065 42.3689 0 0 -8.97145 -16.9551 0 0 -8.02267 16.9551 0 0 -8.97145 -0.00118154 -0.00118154zm-0.0791633 -428.698l-17.3509 0 0 8.93246 17.3509 0 0 -8.93246zm0 47.3869l-36.5971 0 0 16.7176c0,3.99834 -2.61712,7.35155 -6.24445,8.45866l0 0.790451 42.8427 0 0 -8.97145 -17.4301 0 0 -8.02385 17.4301 0 0 -8.97145 -0.00118154 0zm0 627.968l-17.3509 0 0 8.93127 17.3509 0 0 -8.93127zm0 47.3869l-36.5971 0 0 0.276481c0,3.99834 -2.61712,7.35155 -6.24445,8.45748l0 17.2328 42.8427 0 0 -8.97145 -17.4301 0 0 -8.02385 17.4301 0 0 -8.97145 -0.00118154 0zm-0.434807 -704.41l-16.9953 0 0 -8.97145 -25.4114 0 0 8.97145 25.018 0 0 8.93246 -25.4929 0 0 4.22874c2.58758,0.638033 4.72262,2.39262 5.84981,4.74271l37.0319 0 0 -17.9039 0 0zm0 675.35l-16.9953 0 0 -8.97145 -25.4114 0 0 5.80964c1.82312,0.556506 3.39457,1.67188 4.50522,3.16181l20.5116 0 0 8.93246 -18.7723 0 0 8.97145 36.1635 0 0 -17.9039 -0.00118154 0zm-0.0401724 -385.621l-17.3888 0 0 8.97145 17.3888 0 0 -8.97145zm-3.91209 251.594c-0.405269,-4.78643 -5.65013,-7.29957 -10.1175,-7.07389 -4.95657,-0.492703 -11.7776,1.60808 -11.1065,7.78518 0.420629,6.60718 11.1502,8.04748 13.6362,2.13505 1.27488,-2.0547 -2.05825,-7.62449 2.41035,-5.21769 4.0456,1.55136 -1.03858,8.64534 4.3079,7.58904 0.590771,-1.32805 0.897972,-2.77662 0.869615,-4.22874 0.0177231,-0.339103 0.0271755,-0.668753 0,-0.988951l0 0zm-0.118154 13.7142c-0.0519878,-1.27843 -0.405269,-2.56158 -1.06811,-3.6746 -6.99236,-1.4852 0.0720741,4.70372 -4.1094,7.11288 -2.96449,1.90465 -7.08334,1.78531 -10.2369,0.47498 -4.95302,-1.37059 1.26071,-7.7261 -3.39811,-7.7072 -3.8282,1.10356 -2.55686,6.66862 -0.948778,9.20894 3.10982,3.90263 8.97027,4.21574 13.4767,3.04247 4.00897,-0.63567 6.43704,-4.62219 6.28462,-8.45748l0 0zm-3.08264 -409.175c-0.043717,-1.46275 -0.430081,-2.91368 -1.38359,-4.03142 -2.2402,-2.79671 -7.33737,-3.11573 -9.32709,0.119336 -1.13192,-0.28357 -3.16771,-1.97908 -5.01919,-1.62108 -2.94677,-0.155964 -5.58869,2.34536 -5.69149,5.25668 -0.557688,2.44225 0.788088,5.09953 3.04365,6.16529 2.43634,1.46157 6.28817,0.485614 7.0349,-2.44934 0.309564,1.41312 1.42376,2.5285 2.68683,3.16062 3.27996,1.81721 7.42481,-0.630943 8.41849,-3.99125 0.192591,-0.821172 0.263484,-1.73096 0.23749,-2.60884l0 0zm-0.0791633 -49.8374l-5.21769 0 0.00118154 -24.9778 -8.22117 0 0 24.9778 -5.21651 0 4.66236 8.06284 4.66355 8.06166 4.66355 -8.06166 4.66355 -8.06284 0.00118154 0zm-0.0401724 69.4002c0.00472617,-0.662845 -0.125243,-1.33514 -0.394635,-1.93655 0.653393,-3.0791 -1.13074,-6.54574 -4.14957,-7.58786 -1.69669,-0.544691 -4.06923,-0.516334 -5.09835,1.18509 -0.544691,1.80185 -2.65492,1.75223 -3.63679,0.355644 -1.57972,-1.96963 -4.74862,-1.13192 -6.08612,0.711288 -2.32764,3.4631 -1.20517,7.77455 -1.46275,11.6595 3.10391,0.0555325 6.22318,-0.0295385 9.32709,-0.0389909 2.74827,-0.328469 5.51071,0.854255 8.22117,0.0779818 2.05943,-0.418266 3.26696,-2.43634 3.27996,-4.42606l0 0zm-3.24097 -19.3655c0.0271755,1.11538 -0.529331,2.24257 -1.69906,2.727 -1.8692,1.24298 -4.86677,-0.0590771 -4.58438,-2.45052 -0.256395,-2.27447 2.43398,-3.63915 4.34689,-2.80616 1.28788,0.327287 1.91055,1.41312 1.93655,2.52968l0 0zm-0.197317 16.5593c0.0708925,2.99048 -3.80811,4.53712 -6.24445,3.32013 -0.584863,-1.55727 -0.396998,-3.44419 0.633306,-4.7817 1.51356,-2.41743 5.39846,-1.28197 5.61232,1.46157l-0.00118154 0zm-3.79393 230.656c-0.396998,-0.435989 -0.762094,-0.895609 -1.1461,-1.34341l-23.1204 0c1.62344,1.60335 2.60884,3.85064 2.60884,6.32361l0 2.64784 21.6577 0 0 -7.62803zm-0.118154 148.015c-0.231582,3.1748 -5.30394,3.68405 -6.95574,1.3824 -2.33709,-4.54185 6.58828,-5.98569 6.95574,-1.3824zm-1.77822 -279.614l-25.454 0 0 8.97145 25.454 0 0 -8.97145zm0 18.6152l-25.454 0 0 8.97145 25.454 0 0 -8.97145zm0 18.6152l-21.4603 0c1.06811,1.46275 1.69906,3.25869 1.69906,5.21651l0 3.75494 19.7613 0 0 -8.97145zm-0.909787 18.6152l-18.8515 0 0 8.97145 13.0419 0c1.66479,-3.1748 3.61434,-6.17237 5.80964,-8.97145zm-2.68683 -154.012c-0.0271755,2.27801 -2.95858,3.83765 -4.86204,2.44934 -0.355644,-1.31978 -0.280025,-2.80616 0.355644,-4.03142 0.935781,-2.60648 4.49222,-1.33869 4.46623,1.1071 0.0248124,0.157145 0.041354,0.322561 0.0401724,0.47498zm-0.119336 -17.2328c0.186684,1.31387 -1.02203,2.76481 -2.48951,2.60884 -1.96136,0.23749 -2.99403,-2.05588 -2.41153,-3.67578 0.52106,-2.05352 3.22443,-1.53128 4.18975,-0.118154 0.414721,0.340284 0.648666,0.747916 0.711288,1.18509l0 0zm-2.29219 236.032c-1.59508,-2.85697 -2.96331,-5.84627 -4.07041,-8.97145l-14.7421 0 0 8.97145 18.8125 0 0 0zm-4.74271 -46.1617l-14.0698 0 0 8.93246 12.0151 0c0.451349,-3.05783 1.15082,-6.04831 2.0547,-8.93246l0 0zm-1.85738 27.5465c-0.495066,-2.90423 -0.777455,-5.89944 -0.829442,-8.93246l-11.383 0 0 8.93246 12.2124 0z"/>
    <path id="_388904024" class="fil1" d="M638.68 1499.94l-27.8241 0 0 31.6181 27.8241 0 0 -31.6181zm0 73.3525l-27.8241 0 0 52.4073 27.8241 0 0 -52.4073zm0 94.1417l-27.8241 0 0 52.3659 27.8241 0 0 -52.3659zm0 94.1015l-27.8241 0 0 52.4073 27.8241 0 0 -52.4073zm0 94.1429l-27.8241 0 0 52.4061 27.8241 0 0 -52.4061zm0 94.1405l-27.8241 0 0 52.4073 27.8241 0 0 -52.4073zm0 94.1405l-27.8241 0 0 52.3671 27.8241 0 0 -52.3671zm0 94.1027l-27.8241 0 0 52.4061 27.8241 0 0 -52.4061zm0 94.1405l-27.8241 0 0 17.7054 27.8241 0 0 -17.7054z"/>
    <path id="_388904432" class="fil1" d="M84.9292 1499.94l-28.6146 0 0 30.3526 28.6146 0 0 -30.3526zm0 72.0882l-28.6146 0 0 52.4073 28.6146 0 0 -52.4073zm0 94.1417l-28.6146 0 0 52.3659 28.6146 0 0 -52.3659zm0 94.1015l-28.6146 0 0 52.4073 28.6146 0 0 -52.4073zm0 94.1405l-28.6146 0 0 52.4073 28.6146 0 0 -52.4073zm0 94.1429l-28.6146 0 0 52.4061 28.6146 0 0 -52.4061zm0 94.1405l-28.6146 0 0 52.3671 28.6146 0 0 -52.3671zm0 94.1015l-28.6146 0 0 52.4073 28.6146 0 0 -52.4073zm0 94.1429l-28.6146 0 0 18.9708 28.6146 0 0 -18.9708z"/>
    <path id="_388904336" class="fil1" d="M32.171 1506.15l-32.171 0 0 17.8625 32.171 0 0 -17.8625zm0 25.9266l-32.171 0 0 11.6193 32.171 0 0 -11.6193zm0 173.505l-32.171 0 0 17.8637 32.171 0 0 -17.8637zm0 25.9266l-32.171 0 0 11.6193 32.171 0 0 -11.6193zm0 18.2595l-32.171 0 0 11.6193 32.171 0 0 -11.6193zm0 240.295l-32.171 0 0 11.6193 32.171 0 0 -11.6193zm0 17.7054l-32.171 0 0 11.6193 32.171 0 0 -11.6193zm0 17.0733l-32.171 0 0 17.8637 32.171 0 0 -17.8637zm0 43.6332l-32.171 0 0 11.6193 32.171 0 0 -11.6193zm0 17.7054l-32.171 0 0 11.6193 32.171 0 0 -11.6193zm0 17.7066l-32.171 0 0 11.6193 32.171 0 0 -11.6193zm0 98.6457l-32.171 0 0 11.6193 32.171 0 0 -11.6193zm0 19.05l-32.171 0 0 17.8637 32.171 0 0 -17.8637z"/>
    <path id="_388904624" class="fil2" d="M20.625 1653.87c-0.171324,2.06888 2.33236,3.508 4.13776,2.69746 2.00389,-0.714833 2.50369,-3.82583 0.664027,-5.01092 -1.56436,-1.15555 -4.33035,-0.519878 -4.7238,1.54546 -0.0602586,0.250487 -0.0874341,0.509245 -0.0779818,0.768002m-1.61989 2.83806c-0.679387,2.5734 -3.89909,3.67696 -6.222,2.67974 -1.99681,-0.764458 -3.21025,-2.87587 -3.21852,-4.96366 -0.255213,-2.47297 0.880249,-5.39138 3.44419,-6.15347 2.12323,-0.749098 4.95775,0.0401724 5.82028,2.26856 0.679387,0.32965 0.640396,-1.52301 1.48047,-1.70851 2.6053,-2.37608 7.51106,-1.4403 8.80131,1.92473 0.90388,2.68801 0.822353,6.12748 -1.40367,8.15736 -2.34536,1.97199 -6.49375,1.73805 -8.17863,-0.981861 -0.229219,-0.381638 -0.404087,-0.795178 -0.523423,-1.2229zm-3.92745 -0.401724c1.99444,0.256395 3.2965,-2.48124 2.03934,-3.9688 -1.11538,-1.50292 -3.97471,-1.15318 -4.39888,0.779818 -0.495066,1.49347 0.692384,3.37803 2.36072,3.18898l-0.00118154 0zm5.39256 -15.7346l5.72811 0c-0.141785,-1.71205 0.427718,-3.69468 -0.72783,-5.15979 -1.19808,-1.01967 -3.23152,-0.920421 -4.33744,0.173687 -1.08229,1.43675 -0.522241,3.33431 -0.662845,4.98611zm-7.54296 0c1.42139,-0.309564 3.00939,0.542328 4.3079,-0.309564 0.28357,-1.33042 0.473798,-3.14881 -0.441897,-4.36698 -1.16973,-1.17327 -3.73722,-0.496248 -3.80102,1.29024 -0.151237,1.12483 -0.0165416,2.25911 -0.0649848,3.3863zm-3.04601 3.69468c0.171324,-3.3414 -0.463164,-6.80095 0.615583,-10.0407 0.71247,-1.7286 2.5604,-2.85342 4.42369,-2.69746 1.78649,-0.0165416 3.71122,1.21108 3.86246,3.10982 0.42181,0.456075 0.267028,-1.33514 0.779818,-1.63171 0.994858,-1.66007 3.02947,-2.35599 4.88686,-2.15395 1.87983,0.0768002 3.85064,1.23589 4.26655,3.17717 1.00077,3.08146 0.278844,6.34724 0.602586,9.50669 -0.744371,1.58681 -2.87587,0.310746 -4.22283,0.729011l-15.2147 0 0 0.00118154z"/>
    <path id="_388904288" class="fil2" d="M42.773 1597.34c1.37059,2.47887 1.37531,5.89944 -0.602586,8.06402 -1.88574,1.85266 -4.8136,2.10196 -7.27239,1.49347 -2.12087,-0.563595 -3.86364,-2.43634 -4.07632,-4.65055 -0.235127,-1.5171 0.0295385,-3.09328 0.662845,-4.48631 0.685294,-0.756187 2.39617,-0.558869 2.86524,-0.115791 -0.944052,1.44266 -1.44857,3.48555 -0.350918,4.98965 1.0114,1.26661 2.82743,1.41312 4.32208,1.18863 1.27252,-0.189047 2.48006,-1.09883 2.68564,-2.42452 0.224493,-1.07284 -0.00827079,-2.21185 -0.532875,-3.16417 -1.07638,-0.94287 0.473798,-1.06102 1.20517,-0.894427 0.365096,0.00354463 0.730193,0.00708925 1.09411,0l0 0zm0 -13.5676c1.37059,2.47887 1.37531,5.89944 -0.602586,8.06402 -1.88574,1.85266 -4.8136,2.10196 -7.27239,1.49347 -2.12087,-0.563595 -3.86364,-2.43634 -4.07632,-4.65055 -0.235127,-1.51828 0.0295385,-3.09328 0.662845,-4.48631 0.685294,-0.756187 2.39617,-0.560051 2.86524,-0.115791 -0.944052,1.44266 -1.44857,3.48555 -0.350918,4.98965 1.0114,1.26661 2.82743,1.41194 4.32208,1.18863 1.27252,-0.190228 2.48006,-1.10002 2.68564,-2.42452 0.224493,-1.07402 -0.00827079,-2.21185 -0.532875,-3.16417 -1.07638,-0.94287 0.473798,-1.06102 1.20517,-0.895609 0.365096,0.00354463 0.730193,0.00708925 1.09411,0l0 0.00118154z"/>
    <path id="_388904408" class="fil2" d="M42.773 1797.16c1.37059,2.48006 1.37531,5.89944 -0.602586,8.06402 -1.88574,1.85266 -4.8136,2.10314 -7.27239,1.49347 -2.12087,-0.563595 -3.86364,-2.43634 -4.07632,-4.65055 -0.235127,-1.5171 0.0295385,-3.0921 0.662845,-4.48631 0.685294,-0.756187 2.39617,-0.558869 2.86524,-0.115791 -0.944052,1.44266 -1.44857,3.48555 -0.350918,4.98965 1.0114,1.26661 2.82743,1.41194 4.32208,1.18863 1.27252,-0.189047 2.48006,-1.09883 2.68564,-2.42452 0.224493,-1.07284 -0.00827079,-2.21185 -0.532875,-3.16417 -1.07638,-0.94287 0.473798,-1.06102 1.20517,-0.894427 0.365096,0.00354463 0.730193,0.00708925 1.09411,0l0 0zm0 -13.5676c1.37059,2.48006 1.37531,5.89944 -0.602586,8.06402 -1.88574,1.85266 -4.8136,2.10314 -7.27239,1.49347 -2.12087,-0.563595 -3.86364,-2.43634 -4.07632,-4.65055 -0.235127,-1.5171 0.0295385,-3.0921 0.662845,-4.48631 0.685294,-0.756187 2.39617,-0.558869 2.86524,-0.115791 -0.944052,1.44266 -1.44857,3.48555 -0.350918,4.98965 1.0114,1.26661 2.82743,1.41194 4.32208,1.18863 1.27252,-0.189047 2.48006,-1.09883 2.68564,-2.42452 0.224493,-1.07284 -0.00827079,-2.21185 -0.532875,-3.16417 -1.07638,-0.94287 0.473798,-1.06102 1.20517,-0.894427 0.365096,0.00354463 0.730193,0.00708925 1.09411,0l0 0z"/>
   </g>
   <g>
    <path id="_387862592" class="fil0" d="M687.999 2249.92l-687.994 0 0 749.972 687.994 0 0 -326.057c-18.093,-10.0325 -30.3526,-29.3164 -30.3526,-51.4573 0,-22.1409 12.2597,-41.426 30.3526,-51.4585l0 -320.999zm-36.6762 40.4714l0 24.029c0,4.90458 -3.94871,8.85329 -8.85329,8.85329l-41.7356 0c-4.90458,0 -8.85211,-3.94871 -8.85211,-8.85329l0 -24.029c0,-4.90458 3.94753,-8.85329 8.85211,-8.85329l41.7356 0c4.90458,0 8.85329,3.94871 8.85329,8.85329zm0 94.1417l0 24.0302c0,4.90458 -3.94871,8.85211 -8.85329,8.85211l-41.7356 0c-4.90458,0 -8.85211,-3.94753 -8.85211,-8.85211l0 -24.0302c0,-4.9034 3.94753,-8.85211 8.85211,-8.85211l41.7356 0c4.90458,0 8.85329,3.94871 8.85329,8.85211zm0 94.1027l0 24.029c0,4.90458 -3.94871,8.85329 -8.85329,8.85329l-41.7356 0c-4.90458,0 -8.85211,-3.94871 -8.85211,-8.85329l0 -24.029c0,-4.90458 3.94753,-8.85329 8.85211,-8.85329l41.7356 0c4.90458,0 8.85329,3.94871 8.85329,8.85329zm0 94.1417l0 24.0302c0,4.90458 -3.94871,8.85211 -8.85329,8.85211l-41.7356 0c-4.90458,0 -8.85211,-3.94753 -8.85211,-8.85211l0 -24.0302c0,-4.90458 3.94753,-8.85211 8.85211,-8.85211l41.7356 0c4.90458,0 8.85329,3.94753 8.85329,8.85211zm0 94.1417l0 24.029c0,4.90458 -3.94871,8.85329 -8.85329,8.85329l-41.7356 0c-4.90458,0 -8.85211,-3.94871 -8.85211,-8.85329l0 -24.029c0,-4.90458 3.94753,-8.85329 8.85211,-8.85329l41.7356 0c4.90458,0 8.85329,3.94871 8.85329,8.85329zm0 94.1405l0 24.029c0,4.90458 -3.94871,8.85329 -8.85329,8.85329l-41.7356 0c-4.90458,0 -8.85211,-3.94871 -8.85211,-8.85329l0 -24.029c0,-4.90458 3.94753,-8.85329 8.85211,-8.85329l41.7356 0c4.90458,0 8.85329,3.94871 8.85329,8.85329zm0 94.1015l0 24.0302c0,4.9034 -3.94871,8.85211 -8.85329,8.85211l-41.7356 0c-4.90458,0 -8.85211,-3.94871 -8.85211,-8.85211l0 -24.0302c0,-4.90458 3.94753,-8.85211 8.85211,-8.85211l41.7356 0c4.90458,0 8.85329,3.94753 8.85329,8.85211zm0 94.1429l0 24.029c0,4.90458 -3.94871,8.85329 -8.85329,8.85329l-41.7356 0c-4.90458,0 -8.85211,-3.94871 -8.85211,-8.85329l0 -24.029c0,-4.90458 3.94753,-8.85329 8.85211,-8.85329l41.7356 0c4.90458,0 8.85329,3.94871 8.85329,8.85329zm-70.824 -665.235l0 681.68c0,9.80798 -7.89743,17.7054 -17.7066,17.7054l-433.798 0c-9.80916,0 -17.7054,-7.89624 -17.7054,-17.7054l0 -681.68c0,-9.80916 7.89624,-17.7054 17.7054,-17.7054l433.798 0c9.80916,0 17.7066,7.89624 17.7066,17.7054zm-483.118 5.05936l0 24.029c0,4.90458 -3.94753,8.85329 -8.85211,8.85329l-41.7356 0c-4.90458,0 -8.85329,-3.94871 -8.85329,-8.85329l0 -24.029c0,-4.90458 3.94871,-8.85329 8.85329,-8.85329l41.7356 0c4.90458,0 8.85211,3.94871 8.85211,8.85329zm0 94.1417l0 24.0302c0,4.90458 -3.94753,8.85211 -8.85211,8.85211l-41.7356 0c-4.90458,0 -8.85329,-3.94753 -8.85329,-8.85211l0 -24.0302c0,-4.90458 3.94871,-8.85211 8.85329,-8.85211l41.7356 0c4.90458,0 8.85211,3.94753 8.85211,8.85211zm0 94.1027l0 24.029c0,4.90458 -3.94753,8.85329 -8.85211,8.85329l-41.7356 0c-4.90458,0 -8.85329,-3.94871 -8.85329,-8.85329l0 -24.029c0,-4.90458 3.94871,-8.85329 8.85329,-8.85329l41.7356 0c4.90458,0 8.85211,3.94871 8.85211,8.85329zm0 94.1405l0 24.029c0,4.90458 -3.94753,8.85329 -8.85211,8.85329l-41.7356 0c-4.90458,0 -8.85329,-3.94871 -8.85329,-8.85329l0 -24.029c0,-4.90458 3.94871,-8.85329 8.85329,-8.85329l41.7356 0c4.90458,0 8.85211,3.94871 8.85211,8.85329zm0 94.1417l0 24.0302c0,4.90458 -3.94753,8.85211 -8.85211,8.85211l-41.7356 0c-4.90458,0 -8.85329,-3.94753 -8.85329,-8.85211l0 -24.0302c0,-4.9034 3.94871,-8.85211 8.85329,-8.85211l41.7356 0c4.90458,0 8.85211,3.94871 8.85211,8.85211zm0 94.1417l0 24.029c0,4.90458 -3.94753,8.85329 -8.85211,8.85329l-41.7356 0c-4.90458,0 -8.85329,-3.94871 -8.85329,-8.85329l0 -24.029c0,-4.90458 3.94871,-8.85329 8.85329,-8.85329l41.7356 0c4.90458,0 8.85211,3.94871 8.85211,8.85329zm0 94.1015l0 24.029c0,4.90458 -3.94753,8.85329 -8.85211,8.85329l-41.7356 0c-4.90458,0 -8.85329,-3.94871 -8.85329,-8.85329l0 -24.029c0,-4.90458 3.94871,-8.85329 8.85329,-8.85329l41.7356 0c4.90458,0 8.85211,3.94871 8.85211,8.85329zm0 94.1429l0 24.029c0,4.90458 -3.94753,8.85329 -8.85211,8.85329l-41.7356 0c-4.90458,0 -8.85329,-3.94871 -8.85329,-8.85329l0 -24.029c0,-4.90458 3.94871,-8.85329 8.85329,-8.85329l41.7356 0c4.90458,0 8.85211,3.94871 8.85211,8.85329z"/>
    <path id="_385424512" class="fil1" d="M687.999 2493.72l-0.0791633 0 0 -0.0791633 -17.4301 0 0 -8.02267 17.4301 0 0 -8.97145 -36.8357 0c0.14533,0.636851 0.23749,1.29379 0.23749,1.97554l0 24.029c0,3.75612 -2.32527,6.92974 -5.61232,8.22117l0 8.81312 42.2886 0 0 -8.97145 -16.876 0 0 -8.02267 16.876 0 0 -8.97145 0.00118154 0zm0 185.281l-36.6762 0 0 11.9359c0,3.78684 -2.36072,6.99 -5.69149,8.26016l0 5.77065 42.3689 0 0 -8.97145 -16.9551 0 0 -8.02267 16.9551 0 0 -8.97145 -0.00118154 -0.00118154zm-0.0791633 -428.698l-17.3509 0 0 8.93246 17.3509 0 0 -8.93246zm0 47.3869l-36.5971 0 0 16.7176c0,3.99834 -2.61712,7.35155 -6.24445,8.45866l0 0.790451 42.8427 0 0 -8.97145 -17.4301 0 0 -8.02385 17.4301 0 0 -8.97145 -0.00118154 0zm0 627.968l-17.3509 0 0 8.93127 17.3509 0 0 -8.93127zm0 47.3869l-36.5971 0 0 0.276481c0,3.99834 -2.61712,7.35155 -6.24445,8.45748l0 17.2328 42.8427 0 0 -8.97145 -17.4301 0 0 -8.02385 17.4301 0 0 -8.97145 -0.00118154 0zm-0.434807 -704.41l-16.9953 0 0 -8.97145 -25.4114 0 0 8.97145 25.018 0 0 8.93246 -25.4929 0 0 4.22874c2.58758,0.638033 4.72262,2.39262 5.84981,4.74271l37.0319 0 0 -17.9039 0 0zm0 675.35l-16.9953 0 0 -8.97145 -25.4114 0 0 5.80964c1.82312,0.556506 3.39457,1.67188 4.50522,3.16181l20.5116 0 0 8.93246 -18.7723 0 0 8.97145 36.1635 0 0 -17.9039 -0.00118154 0zm-0.0401724 -385.621l-17.3888 0 0 8.97145 17.3888 0 0 -8.97145zm-3.91209 251.594c-0.405269,-4.78643 -5.65013,-7.29957 -10.1175,-7.07389 -4.95657,-0.492703 -11.7776,1.60808 -11.1065,7.78518 0.420629,6.60718 11.1502,8.04748 13.6362,2.13505 1.27488,-2.0547 -2.05825,-7.62449 2.41035,-5.21769 4.0456,1.55136 -1.03858,8.64534 4.3079,7.58904 0.590771,-1.32805 0.897972,-2.77662 0.869615,-4.22874 0.0177231,-0.339103 0.0271755,-0.668753 0,-0.988951l0 0zm-0.118154 13.7142c-0.0519878,-1.27843 -0.405269,-2.56158 -1.06811,-3.6746 -6.99236,-1.4852 0.0720741,4.70372 -4.1094,7.11288 -2.96449,1.90465 -7.08334,1.78531 -10.2369,0.47498 -4.95302,-1.37059 1.26071,-7.7261 -3.39811,-7.7072 -3.8282,1.10356 -2.55686,6.66862 -0.948778,9.20894 3.10982,3.90263 8.97027,4.21574 13.4767,3.04247 4.00897,-0.63567 6.43704,-4.62219 6.28462,-8.45748l0 0zm-3.08264 -409.175c-0.043717,-1.46275 -0.430081,-2.91368 -1.38359,-4.03142 -2.2402,-2.79671 -7.33737,-3.11573 -9.32709,0.119336 -1.13192,-0.28357 -3.16771,-1.97908 -5.01919,-1.62108 -2.94677,-0.155964 -5.58869,2.34536 -5.69149,5.25668 -0.557688,2.44225 0.788088,5.09953 3.04365,6.16529 2.43634,1.46157 6.28817,0.485614 7.0349,-2.44934 0.309564,1.41312 1.42376,2.5285 2.68683,3.16062 3.27996,1.81721 7.42481,-0.630943 8.41849,-3.99125 0.192591,-0.821172 0.263484,-1.73096 0.23749,-2.60884l0 0zm-0.0791633 -49.8374l-5.21769 0 0.00118154 -24.9778 -8.22117 0 0 24.9778 -5.21651 0 4.66236 8.06284 4.66355 8.06166 4.66355 -8.06166 4.66355 -8.06284 0.00118154 0zm-0.0401724 69.4002c0.00472617,-0.662845 -0.125243,-1.33514 -0.394635,-1.93655 0.653393,-3.0791 -1.13074,-6.54574 -4.14957,-7.58786 -1.69669,-0.544691 -4.06923,-0.516334 -5.09835,1.18509 -0.544691,1.80185 -2.65492,1.75223 -3.63679,0.355644 -1.57972,-1.96963 -4.74862,-1.13192 -6.08612,0.711288 -2.32764,3.4631 -1.20517,7.77455 -1.46275,11.6595 3.10391,0.0555325 6.22318,-0.0295385 9.32709,-0.0389909 2.74827,-0.328469 5.51071,0.854255 8.22117,0.0779818 2.05943,-0.418266 3.26696,-2.43634 3.27996,-4.42606l0 0zm-3.24097 -19.3655c0.0271755,1.11538 -0.529331,2.24257 -1.69906,2.727 -1.8692,1.24298 -4.86677,-0.0590771 -4.58438,-2.45052 -0.256395,-2.27447 2.43398,-3.63915 4.34689,-2.80616 1.28788,0.327287 1.91055,1.41312 1.93655,2.52968l0 0zm-0.197317 16.5593c0.0708925,2.99048 -3.80811,4.53712 -6.24445,3.32013 -0.584863,-1.55727 -0.396998,-3.44419 0.633306,-4.7817 1.51356,-2.41743 5.39846,-1.28197 5.61232,1.46157l-0.00118154 0zm-3.79393 230.656c-0.396998,-0.435989 -0.762094,-0.895609 -1.1461,-1.34341l-23.1204 0c1.62344,1.60335 2.60884,3.85064 2.60884,6.32361l0 2.64784 21.6577 0 0 -7.62803zm-0.118154 148.015c-0.231582,3.1748 -5.30394,3.68405 -6.95574,1.3824 -2.33709,-4.54185 6.58828,-5.98569 6.95574,-1.3824zm-1.77822 -279.614l-25.454 0 0 8.97145 25.454 0 0 -8.97145zm0 18.6152l-25.454 0 0 8.97145 25.454 0 0 -8.97145zm0 18.6152l-21.4603 0c1.06811,1.46275 1.69906,3.25869 1.69906,5.21651l0 3.75494 19.7613 0 0 -8.97145zm-0.909787 18.6152l-18.8515 0 0 8.97145 13.0419 0c1.66479,-3.1748 3.61434,-6.17237 5.80964,-8.97145zm-2.68683 -154.012c-0.0271755,2.27801 -2.95858,3.83765 -4.86204,2.44934 -0.355644,-1.31978 -0.280025,-2.80616 0.355644,-4.03142 0.935781,-2.60648 4.49222,-1.33869 4.46623,1.1071 0.0248124,0.157145 0.041354,0.322561 0.0401724,0.47498zm-0.119336 -17.2328c0.186684,1.31387 -1.02203,2.76481 -2.48951,2.60884 -1.96136,0.23749 -2.99403,-2.05588 -2.41153,-3.67578 0.52106,-2.05352 3.22443,-1.53128 4.18975,-0.118154 0.414721,0.340284 0.648666,0.747916 0.711288,1.18509l0 0zm-2.29219 236.032c-1.59508,-2.85697 -2.96331,-5.84627 -4.07041,-8.97145l-14.7421 0 0 8.97145 18.8125 0 0 0zm-4.74271 -46.1617l-14.0698 0 0 8.93246 12.0151 0c0.451349,-3.05783 1.15082,-6.04831 2.0547,-8.93246l0 0zm-1.85738 27.5465c-0.495066,-2.90423 -0.777455,-5.89944 -0.829442,-8.93246l-11.383 0 0 8.93246 12.2124 0z"/>
    <path id="_384446056" class="fil1" d="M638.68 2249.92l-27.8241 0 0 31.6181 27.8241 0 0 -31.6181zm0 73.3525l-27.8241 0 0 52.4073 27.8241 0 0 -52.4073zm0 94.1417l-27.8241 0 0 52.3659 27.8241 0 0 -52.3659zm0 94.1015l-27.8241 0 0 52.4073 27.8241 0 0 -52.4073zm0 94.1429l-27.8241 0 0 52.4061 27.8241 0 0 -52.4061zm0 94.1405l-27.8241 0 0 52.4073 27.8241 0 0 -52.4073zm0 94.1405l-27.8241 0 0 52.3671 27.8241 0 0 -52.3671zm0 94.1027l-27.8241 0 0 52.4061 27.8241 0 0 -52.4061zm0 94.1405l-27.8241 0 0 17.7054 27.8241 0 0 -17.7054z"/>
    <path id="_384446248" class="fil1" d="M84.9292 2249.92l-28.6146 0 0 30.3526 28.6146 0 0 -30.3526zm0 72.0882l-28.6146 0 0 52.4073 28.6146 0 0 -52.4073zm0 94.1417l-28.6146 0 0 52.3659 28.6146 0 0 -52.3659zm0 94.1015l-28.6146 0 0 52.4073 28.6146 0 0 -52.4073zm0 94.1405l-28.6146 0 0 52.4073 28.6146 0 0 -52.4073zm0 94.1429l-28.6146 0 0 52.4061 28.6146 0 0 -52.4061zm0 94.1405l-28.6146 0 0 52.3671 28.6146 0 0 -52.3671zm0 94.1015l-28.6146 0 0 52.4073 28.6146 0 0 -52.4073zm0 94.1429l-28.6146 0 0 18.9708 28.6146 0 0 -18.9708z"/>
    <path id="_384446008" class="fil1" d="M32.171 2256.12l-32.171 0 0 17.8625 32.171 0 0 -17.8625zm0 25.9266l-32.171 0 0 11.6193 32.171 0 0 -11.6193zm0 173.505l-32.171 0 0 17.8637 32.171 0 0 -17.8637zm0 25.9266l-32.171 0 0 11.6193 32.171 0 0 -11.6193zm0 18.2595l-32.171 0 0 11.6193 32.171 0 0 -11.6193zm0 240.295l-32.171 0 0 11.6193 32.171 0 0 -11.6193zm0 17.7054l-32.171 0 0 11.6193 32.171 0 0 -11.6193zm0 17.0733l-32.171 0 0 17.8637 32.171 0 0 -17.8637zm0 43.6332l-32.171 0 0 11.6193 32.171 0 0 -11.6193zm0 17.7054l-32.171 0 0 11.6193 32.171 0 0 -11.6193zm0 17.7066l-32.171 0 0 11.6193 32.171 0 0 -11.6193zm0 98.6457l-32.171 0 0 11.6193 32.171 0 0 -11.6193zm0 19.05l-32.171 0 0 17.8637 32.171 0 0 -17.8637z"/>
    <path id="_384446440" class="fil2" d="M20.625 2403.84c-0.171324,2.06888 2.33236,3.508 4.13776,2.69746 2.00389,-0.714833 2.50369,-3.82583 0.664027,-5.01092 -1.56436,-1.15555 -4.33035,-0.519878 -4.7238,1.54546 -0.0602586,0.250487 -0.0874341,0.509245 -0.0779818,0.768002m-1.61989 2.83806c-0.679387,2.5734 -3.89909,3.67696 -6.222,2.67974 -1.99681,-0.764458 -3.21025,-2.87587 -3.21852,-4.96366 -0.255213,-2.47297 0.880249,-5.39138 3.44419,-6.15347 2.12323,-0.749098 4.95775,0.0401724 5.82028,2.26856 0.679387,0.32965 0.640396,-1.52301 1.48047,-1.70851 2.6053,-2.37608 7.51106,-1.4403 8.80131,1.92473 0.90388,2.68801 0.822353,6.12748 -1.40367,8.15736 -2.34536,1.97199 -6.49375,1.73805 -8.17863,-0.981861 -0.229219,-0.381638 -0.404087,-0.795178 -0.523423,-1.2229zm-3.92745 -0.401724c1.99444,0.256395 3.2965,-2.48124 2.03934,-3.9688 -1.11538,-1.50292 -3.97471,-1.15318 -4.39888,0.779818 -0.495066,1.49347 0.692384,3.37803 2.36072,3.18898l-0.00118154 0zm5.39256 -15.7346l5.72811 0c-0.141785,-1.71205 0.427718,-3.69468 -0.72783,-5.15979 -1.19808,-1.01967 -3.23152,-0.920421 -4.33744,0.173687 -1.08229,1.43675 -0.522241,3.33431 -0.662845,4.98611zm-7.54296 0c1.42139,-0.309564 3.00939,0.542328 4.3079,-0.309564 0.28357,-1.33042 0.473798,-3.14881 -0.441897,-4.36698 -1.16973,-1.17327 -3.73722,-0.496248 -3.80102,1.29024 -0.151237,1.12483 -0.0165416,2.25911 -0.0649848,3.3863zm-3.04601 3.69468c0.171324,-3.3414 -0.463164,-6.80095 0.615583,-10.0407 0.71247,-1.7286 2.5604,-2.85342 4.42369,-2.69746 1.78649,-0.0165416 3.71122,1.21108 3.86246,3.10982 0.42181,0.456075 0.267028,-1.33514 0.779818,-1.63171 0.994858,-1.66007 3.02947,-2.35599 4.88686,-2.15395 1.87983,0.0768002 3.85064,1.23589 4.26655,3.17717 1.00077,3.08146 0.278844,6.34724 0.602586,9.50669 -0.744371,1.58681 -2.87587,0.310746 -4.22283,0.729011l-15.2147 0 0 0.00118154z"/>
    <path id="_385440208" class="fil2" d="M42.773 2347.31c1.37059,2.47887 1.37531,5.89944 -0.602586,8.06402 -1.88574,1.85266 -4.8136,2.10196 -7.27239,1.49347 -2.12087,-0.563595 -3.86364,-2.43634 -4.07632,-4.65055 -0.235127,-1.5171 0.0295385,-3.09328 0.662845,-4.48631 0.685294,-0.756187 2.39617,-0.558869 2.86524,-0.115791 -0.944052,1.44266 -1.44857,3.48555 -0.350918,4.98965 1.0114,1.26661 2.82743,1.41312 4.32208,1.18863 1.27252,-0.189047 2.48006,-1.09883 2.68564,-2.42452 0.224493,-1.07284 -0.00827079,-2.21185 -0.532875,-3.16417 -1.07638,-0.94287 0.473798,-1.06102 1.20517,-0.894427 0.365096,0.00354463 0.730193,0.00708925 1.09411,0l0 0zm0 -13.5676c1.37059,2.47887 1.37531,5.89944 -0.602586,8.06402 -1.88574,1.85266 -4.8136,2.10196 -7.27239,1.49347 -2.12087,-0.563595 -3.86364,-2.43634 -4.07632,-4.65055 -0.235127,-1.51828 0.0295385,-3.09328 0.662845,-4.48631 0.685294,-0.756187 2.39617,-0.560051 2.86524,-0.115791 -0.944052,1.44266 -1.44857,3.48555 -0.350918,4.98965 1.0114,1.26661 2.82743,1.41194 4.32208,1.18863 1.27252,-0.190228 2.48006,-1.10002 2.68564,-2.42452 0.224493,-1.07402 -0.00827079,-2.21185 -0.532875,-3.16417 -1.07638,-0.94287 0.473798,-1.06102 1.20517,-0.895609 0.365096,0.00354463 0.730193,0.00708925 1.09411,0l0 0.00118154z"/>
    <path id="_385440232" class="fil2" d="M42.773 2547.13c1.37059,2.48006 1.37531,5.89944 -0.602586,8.06402 -1.88574,1.85266 -4.8136,2.10314 -7.27239,1.49347 -2.12087,-0.563595 -3.86364,-2.43634 -4.07632,-4.65055 -0.235127,-1.5171 0.0295385,-3.0921 0.662845,-4.48631 0.685294,-0.756187 2.39617,-0.558869 2.86524,-0.115791 -0.944052,1.44266 -1.44857,3.48555 -0.350918,4.98965 1.0114,1.26661 2.82743,1.41194 4.32208,1.18863 1.27252,-0.189047 2.48006,-1.09883 2.68564,-2.42452 0.224493,-1.07284 -0.00827079,-2.21185 -0.532875,-3.16417 -1.07638,-0.94287 0.473798,-1.06102 1.20517,-0.894427 0.365096,0.00354463 0.730193,0.00708925 1.09411,0l0 0zm0 -13.5676c1.37059,2.48006 1.37531,5.89944 -0.602586,8.06402 -1.88574,1.85266 -4.8136,2.10314 -7.27239,1.49347 -2.12087,-0.563595 -3.86364,-2.43634 -4.07632,-4.65055 -0.235127,-1.5171 0.0295385,-3.0921 0.662845,-4.48631 0.685294,-0.756187 2.39617,-0.558869 2.86524,-0.115791 -0.944052,1.44266 -1.44857,3.48555 -0.350918,4.98965 1.0114,1.26661 2.82743,1.41194 4.32208,1.18863 1.27252,-0.189047 2.48006,-1.09883 2.68564,-2.42452 0.224493,-1.07284 -0.00827079,-2.21185 -0.532875,-3.16417 -1.07638,-0.94287 0.473798,-1.06102 1.20517,-0.894427 0.365096,0.00354463 0.730193,0.00708925 1.09411,0l0 0z"/>
   </g>
  </g>
 </g>
</svg>
