<?xml version="1.0" encoding="UTF-8"?>
<!DOCTYPE svg PUBLIC "-//W3C//DTD SVG 1.1//EN" "http://www.w3.org/Graphics/SVG/1.1/DTD/svg11.dtd">
<!-- Creator: CorelDRAW -->
<svg xmlns="http://www.w3.org/2000/svg" xml:space="preserve" width="107px" height="750px" style="shape-rendering:geometricPrecision; text-rendering:geometricPrecision; image-rendering:optimizeQuality; fill-rule:evenodd; clip-rule:evenodd"
viewBox="0 0 11.817 82.4408"
 xmlns:xlink="http://www.w3.org/1999/xlink">
 <defs>
  <style type="text/css">
   <![CDATA[
    .fil1 {fill:#2C2C2C}
    .fil0 {fill:#575757}
   ]]>
  </style>
 </defs>
 <g id="Livello_x0020_1">
  <metadata id="CorelCorpID_0Corel-Layer"/>
  <g id="_339063504">
   <path id="_339066504" class="fil0" d="M11.817 0l-11.817 0 0 3.75383 0 74.9338 0 3.75318 11.817 0 0 -35.8419c-1.98887,-1.10282 -3.33652,-3.22261 -3.33652,-5.65645 0,-2.43384 1.34765,-4.55376 3.33652,-5.65658l0 -35.2859zm-4.03164 4.44882l0 2.64139c0,0.539137 -0.434063,0.9732 -0.9732,0.9732l-4.58779 0c-0.539137,0 -0.97307,-0.434063 -0.97307,-0.9732l0 -2.64139c0,-0.539137 0.433933,-0.9732 0.97307,-0.9732l4.58779 0c0.539137,0 0.9732,0.434063 0.9732,0.9732zm0 10.3485l0 2.64152c0,0.539137 -0.434063,0.97307 -0.9732,0.97307l-4.58779 0c-0.539137,0 -0.97307,-0.433933 -0.97307,-0.97307l0 -2.64152c0,-0.539007 0.433933,-0.97307 0.97307,-0.97307l4.58779 0c0.539137,0 0.9732,0.434063 0.9732,0.97307zm0 10.3443l0 2.64139c0,0.539137 -0.434063,0.9732 -0.9732,0.9732l-4.58779 0c-0.539137,0 -0.97307,-0.434063 -0.97307,-0.9732l0 -2.64139c0,-0.539137 0.433933,-0.9732 0.97307,-0.9732l4.58779 0c0.539137,0 0.9732,0.434063 0.9732,0.9732zm0 10.3485l0 2.64152c0,0.539137 -0.434063,0.97307 -0.9732,0.97307l-4.58779 0c-0.539137,0 -0.97307,-0.433933 -0.97307,-0.97307l0 -2.64152c0,-0.539137 0.433933,-0.97307 0.97307,-0.97307l4.58779 0c0.539137,0 0.9732,0.433933 0.9732,0.97307zm0 10.3485l0 2.64139c0,0.539137 -0.434063,0.9732 -0.9732,0.9732l-4.58779 0c-0.539137,0 -0.97307,-0.434063 -0.97307,-0.9732l0 -2.64139c0,-0.539137 0.433933,-0.9732 0.97307,-0.9732l4.58779 0c0.539137,0 0.9732,0.434063 0.9732,0.9732zm0 10.3484l0 2.64139c0,0.539137 -0.434063,0.9732 -0.9732,0.9732l-4.58779 0c-0.539137,0 -0.97307,-0.434063 -0.97307,-0.9732l0 -2.64139c0,-0.539137 0.433933,-0.9732 0.97307,-0.9732l4.58779 0c0.539137,0 0.9732,0.434063 0.9732,0.9732zm0 10.3441l0 2.64152c0,0.539007 -0.434063,0.97307 -0.9732,0.97307l-4.58779 0c-0.539137,0 -0.97307,-0.434063 -0.97307,-0.97307l0 -2.64152c0,-0.539137 0.433933,-0.97307 0.97307,-0.97307l4.58779 0c0.539137,0 0.9732,0.433933 0.9732,0.97307zm0 10.3487l0 2.64139c0,0.539137 -0.434063,0.9732 -0.9732,0.9732l-4.58779 0c-0.539137,0 -0.97307,-0.434063 -0.97307,-0.9732l0 -2.64139c0,-0.539137 0.433933,-0.9732 0.97307,-0.9732l4.58779 0c0.539137,0 0.9732,0.434063 0.9732,0.9732z"/>
   <path id="_339066024" class="fil1" d="M11.817 26.8005l-0.00870204 0 0 -0.00870204 -1.91601 0 0 -0.881893 1.91601 0 0 -0.986188 -4.04918 0c0.0159754,0.0700059 0.0261061,0.14222 0.0261061,0.217161l0 2.64139c0,0.412892 -0.255606,0.761753 -0.616936,0.903713l0 0.968784 4.64858 0 0 -0.986188 -1.85509 0 0 -0.881893 1.85509 0 0 -0.986188 0.000129881 0zm0 20.3671l0 0.986318 -1.86366 0 0 0.881893 1.86366 0 0 0.986188 -4.65728 0 0 -0.63434c0.366135,-0.139622 0.625638,-0.49173 0.625638,-0.907999l0 -1.31206 4.03164 0zm-0.00870204 -47.1247l-1.9073 0 0 0.981902 1.9073 0 0 -0.981902zm0 5.20901l-4.02294 0 0 1.83769c0,0.439518 -0.287687,0.808121 -0.686422,0.929819l0 0.0868905 4.70949 0 0 -0.986188 -1.91601 0 0 -0.882023 1.91601 0 0 -0.986188 -0.000129881 0zm0 69.0295l-1.9073 0 0 0.981772 1.9073 0 0 -0.981772zm0 5.20901l-4.02294 0 0 0.0303922c0,0.439518 -0.287687,0.808121 -0.686422,0.929689l0 1.89432 4.70949 0 0 -0.986188 -1.91601 0 0 -0.882023 1.91601 0 0 -0.986188 -0.000129881 0zm-0.0477963 -77.4324l-1.86821 0 0 -0.986188 -2.79335 0 0 0.986188 2.7501 0 0 0.981902 -2.80232 0 0 0.464845c0.28444,0.0701358 0.519135,0.263009 0.643042,0.521343l4.07074 0 0 -1.96809 0 0zm0 74.238l-1.86821 0 0 -0.986188 -2.79335 0 0 0.638626c0.200407,0.061174 0.373149,0.183782 0.495237,0.347562l2.25474 0 0 0.981902 -2.06355 0 0 0.986188 3.97527 0 0 -1.96809 -0.000129881 0zm-0.00441596 -42.3894l-1.91146 0 0 0.986188 1.91146 0 0 -0.986188zm-0.430037 27.6565c-0.0445492,-0.526149 -0.621092,-0.802406 -1.11217,-0.777599 -0.544851,-0.0541604 -1.29466,0.176768 -1.22088,0.855787 0.0462377,0.726295 1.22569,0.884621 1.49896,0.234695 0.140142,-0.225863 -0.226253,-0.838123 0.264958,-0.573555 0.444713,0.170534 -0.114166,0.95034 0.473547,0.834227 0.0649406,-0.145986 0.0987097,-0.305221 0.0955925,-0.464845 0.00194822,-0.0372759 0.00298727,-0.0735127 0,-0.108711l0 0zm-0.0129881 1.50753c-0.00571477,-0.140531 -0.0445492,-0.281582 -0.117413,-0.40393 -0.768637,-0.163261 0.00792275,0.517057 -0.451727,0.781885 -0.325872,0.209368 -0.778638,0.19625 -1.12529,0.0522122 -0.544462,-0.150662 0.138583,-0.849293 -0.373538,-0.847215 -0.420815,0.121309 -0.281063,0.733049 -0.104295,1.01229 0.341847,0.428997 0.986058,0.463416 1.48142,0.334444 0.440687,-0.0698761 0.707593,-0.508095 0.690838,-0.929689l0 0zm-0.33886 -44.9786c-0.0048056,-0.160793 -0.0472767,-0.320287 -0.152091,-0.443155 -0.246255,-0.307429 -0.806562,-0.342497 -1.02528,0.013118 -0.124426,-0.0311715 -0.348211,-0.217551 -0.551735,-0.178197 -0.323924,-0.0171443 -0.614338,0.257814 -0.625638,0.577841 -0.0613039,0.268464 0.0866307,0.560567 0.334574,0.67772 0.267815,0.160663 0.691228,0.0533812 0.773312,-0.269244 0.0340289,0.155338 0.156507,0.277946 0.29535,0.347432 0.36055,0.199757 0.816173,-0.0693565 0.925403,-0.438739 0.0211706,-0.0902674 0.0289635,-0.190276 0.0261061,-0.286778l0 0zm-0.00870204 -5.47839l-0.573555 0 0.000129881 -2.74569 -0.903713 0 0 2.74569 -0.573425 0 0.512511 0.886309 0.512641 0.886179 0.512641 -0.886179 0.512641 -0.886309 0.000129881 0zm-0.00441596 7.62883c0.000519525,-0.0728633 -0.0137674,-0.146766 -0.0433803,-0.212875 0.0718243,-0.33847 -0.124296,-0.719542 -0.456143,-0.834097 -0.186509,-0.0598752 -0.447311,-0.0567581 -0.560437,0.130271 -0.0598752,0.198069 -0.291843,0.192614 -0.399774,0.0390942 -0.173651,-0.216512 -0.521992,-0.124426 -0.669018,0.0781885 -0.255866,0.380682 -0.132479,0.854618 -0.160793,1.28167 0.341198,0.00610441 0.684084,-0.00324703 1.02528,-0.00428608 0.302104,-0.036107 0.605766,0.0939041 0.903713,0.00857216 0.226383,-0.0459779 0.359121,-0.267815 0.36055,-0.486535l0 0zm-0.356264 -2.12875c0.00298727,0.122608 -0.0581868,0.246514 -0.186769,0.299766 -0.205472,0.136635 -0.534981,-0.00649406 -0.503939,-0.269374 -0.0281842,-0.250021 0.267555,-0.400034 0.477833,-0.308468 0.14157,0.0359771 0.210018,0.155338 0.212875,0.278076l0 0zm-0.0216902 1.82028c0.00779287,0.328729 -0.418607,0.498744 -0.686422,0.364966 -0.0642912,-0.171183 -0.0436401,-0.378604 0.0696163,-0.525629 0.166378,-0.265737 0.593427,-0.140921 0.616936,0.160663l-0.000129881 0zm-0.417048 25.3549c-0.0436401,-0.0479261 -0.0837734,-0.0984499 -0.125985,-0.147675l-2.54151 0c0.178457,0.176249 0.286778,0.423283 0.286778,0.695124l0 0.291064 2.38072 0 0 -0.838513zm-0.0129881 16.2706c-0.0254567,0.348991 -0.583037,0.404969 -0.76461,0.151961 -0.256905,-0.499263 0.724217,-0.657978 0.76461,-0.151961zm-0.195471 -30.7366l-2.79803 0 0 0.986188 2.79803 0 0 -0.986188zm0 2.04628l-2.79803 0 0 0.986188 2.79803 0 0 -0.986188zm0 2.04628l-2.35903 0c0.117413,0.160793 0.186769,0.358212 0.186769,0.573425l0 0.412762 2.17226 0 0 -0.986188zm-0.100008 2.04628l-2.07225 0 0 0.986188 1.43363 0c0.183003,-0.348991 0.397306,-0.678499 0.638626,-0.986188zm-0.29535 -16.9298c-0.00298727,0.250411 -0.325222,0.421854 -0.534461,0.269244 -0.0390942,-0.145077 -0.0307818,-0.308468 0.0390942,-0.443155 0.102866,-0.286518 0.493808,-0.147155 0.490951,0.121699 0.0027275,0.0172742 0.00454584,0.0354576 0.00441596,0.0522122zm-0.013118 -1.89432c0.0205212,0.144428 -0.112347,0.303922 -0.27366,0.286778 -0.215603,0.0261061 -0.329119,-0.225993 -0.265087,-0.40406 0.0572776,-0.225733 0.354446,-0.168326 0.460559,-0.0129881 0.0455883,0.0374058 0.0713048,0.0822148 0.0781885,0.130271l0 0zm-0.251969 25.9458c-0.17534,-0.314053 -0.325742,-0.642652 -0.447441,-0.986188l-1.62053 0 0 0.986188 2.06797 0 0 0zm-0.521343 -5.07433l-1.54662 0 0 0.981902 1.32076 0c0.0496146,-0.336132 0.126504,-0.664862 0.225863,-0.981902l0 0zm-0.204173 3.02805c-0.0544202,-0.319248 -0.0854618,-0.648497 -0.0911766,-0.981902l-1.25128 0 0 0.981902 1.34245 0z"/>
   <path id="_339066048" class="fil1" d="M6.39561 0l-3.05857 0 0 3.47562 3.05857 0 0 -3.47562zm0 8.06328l-3.05857 0 0 5.76088 3.05857 0 0 -5.76088zm0 10.3485l-3.05857 0 0 5.75633 3.05857 0 0 -5.75633zm0 10.3441l-3.05857 0 0 5.76088 3.05857 0 0 -5.76088zm0 10.3487l-3.05857 0 0 5.76075 3.05857 0 0 -5.76075zm0 10.3484l-3.05857 0 0 5.76088 3.05857 0 0 -5.76088zm0 10.3484l-3.05857 0 0 5.75646 3.05857 0 0 -5.75646zm0 10.3443l-3.05857 0 0 5.76075 3.05857 0 0 -5.76075zm0 10.3484l-3.05857 0 0 1.94627 3.05857 0 0 -1.94627z"/>
  </g>
 </g>
</svg>
