<?xml version="1.0" encoding="UTF-8"?>
<!DOCTYPE svg PUBLIC "-//W3C//DTD SVG 1.1//EN" "http://www.w3.org/Graphics/SVG/1.1/DTD/svg11.dtd">
<!-- Creator: CorelDRAW -->
<svg xmlns="http://www.w3.org/2000/svg" xml:space="preserve" width="688px" height="750px" style="shape-rendering:geometricPrecision; text-rendering:geometricPrecision; image-rendering:optimizeQuality; fill-rule:evenodd; clip-rule:evenodd"
viewBox="0 0 833.418 908.488"
 xmlns:xlink="http://www.w3.org/1999/xlink">
 <defs>
  <style type="text/css">
   <![CDATA[
    .fil2 {fill:black}
    .fil1 {fill:#2C2C2C}
    .fil0 {fill:#575757}
   ]]>
  </style>
 </defs>
 <g id="Livello_x0020_1">
  <metadata id="CorelCorpID_0Corel-Layer"/>
  <g id="_338616448">
   <path id="_338615512" class="fil0" d="M833.416 0l-833.41 0 0 908.488 833.41 0 0 -394.973c-21.9171,-12.153 -36.768,-35.5128 -36.768,-62.3335 0,-26.8207 14.8509,-50.182 36.768,-62.3349l0 -388.846zm-44.4282 49.0255l0 29.1079c0,5.94123 -4.78332,10.7246 -10.7246,10.7246l-50.557 0c-5.94123,0 -10.7231,-4.78332 -10.7231,-10.7246l0 -29.1079c0,-5.94123 4.78189,-10.7246 10.7231,-10.7246l50.557 0c5.94123,0 10.7246,4.78332 10.7246,10.7246zm0 114.04l0 29.1093c0,5.94123 -4.78332,10.7231 -10.7246,10.7231l-50.557 0c-5.94123,0 -10.7231,-4.78189 -10.7231,-10.7231l0 -29.1093c0,-5.93979 4.78189,-10.7231 10.7231,-10.7231l50.557 0c5.94123,0 10.7246,4.78332 10.7246,10.7231zm0 113.993l0 29.1079c0,5.94123 -4.78332,10.7246 -10.7246,10.7246l-50.557 0c-5.94123,0 -10.7231,-4.78332 -10.7231,-10.7246l0 -29.1079c0,-5.94123 4.78189,-10.7246 10.7231,-10.7246l50.557 0c5.94123,0 10.7246,4.78332 10.7246,10.7246zm0 114.04l0 29.1093c0,5.94123 -4.78332,10.7231 -10.7246,10.7231l-50.557 0c-5.94123,0 -10.7231,-4.78189 -10.7231,-10.7231l0 -29.1093c0,-5.94123 4.78189,-10.7231 10.7231,-10.7231l50.557 0c5.94123,0 10.7246,4.78189 10.7246,10.7231zm0 114.04l0 29.1079c0,5.94123 -4.78332,10.7246 -10.7246,10.7246l-50.557 0c-5.94123,0 -10.7231,-4.78332 -10.7231,-10.7246l0 -29.1079c0,-5.94123 4.78189,-10.7246 10.7231,-10.7246l50.557 0c5.94123,0 10.7246,4.78332 10.7246,10.7246zm0 114.038l0 29.1079c0,5.94123 -4.78332,10.7246 -10.7246,10.7246l-50.557 0c-5.94123,0 -10.7231,-4.78332 -10.7231,-10.7246l0 -29.1079c0,-5.94123 4.78189,-10.7246 10.7231,-10.7246l50.557 0c5.94123,0 10.7246,4.78332 10.7246,10.7246zm0 113.991l0 29.1093c0,5.93979 -4.78332,10.7231 -10.7246,10.7231l-50.557 0c-5.94123,0 -10.7231,-4.78332 -10.7231,-10.7231l0 -29.1093c0,-5.94123 4.78189,-10.7231 10.7231,-10.7231l50.557 0c5.94123,0 10.7246,4.78189 10.7246,10.7231zm0 114.041l0 29.1079c0,5.94123 -4.78332,10.7246 -10.7246,10.7246l-50.557 0c-5.94123,0 -10.7231,-4.78332 -10.7231,-10.7246l0 -29.1079c0,-5.94123 4.78189,-10.7246 10.7231,-10.7246l50.557 0c5.94123,0 10.7246,4.78332 10.7246,10.7246zm-85.7935 -805.841l0 825.762c0,11.881 -9.56665,21.4477 -21.4491,21.4477l-525.487 0c-11.8825,0 -21.4477,-9.56522 -21.4477,-21.4477l0 -825.762c0,-11.8825 9.56522,-21.4477 21.4477,-21.4477l525.487 0c11.8825,0 21.4491,9.56522 21.4491,21.4477zm-585.232 6.12872l0 29.1079c0,5.94123 -4.78189,10.7246 -10.7231,10.7246l-50.557 0c-5.94123,0 -10.7246,-4.78332 -10.7246,-10.7246l0 -29.1079c0,-5.94123 4.78332,-10.7246 10.7246,-10.7246l50.557 0c5.94123,0 10.7231,4.78332 10.7231,10.7246zm0 114.04l0 29.1093c0,5.94123 -4.78189,10.7231 -10.7231,10.7231l-50.557 0c-5.94123,0 -10.7246,-4.78189 -10.7246,-10.7231l0 -29.1093c0,-5.94123 4.78332,-10.7231 10.7246,-10.7231l50.557 0c5.94123,0 10.7231,4.78189 10.7231,10.7231zm0 113.993l0 29.1079c0,5.94123 -4.78189,10.7246 -10.7231,10.7246l-50.557 0c-5.94123,0 -10.7246,-4.78332 -10.7246,-10.7246l0 -29.1079c0,-5.94123 4.78332,-10.7246 10.7246,-10.7246l50.557 0c5.94123,0 10.7231,4.78332 10.7231,10.7246zm0 114.038l0 29.1079c0,5.94123 -4.78189,10.7246 -10.7231,10.7246l-50.557 0c-5.94123,0 -10.7246,-4.78332 -10.7246,-10.7246l0 -29.1079c0,-5.94123 4.78332,-10.7246 10.7246,-10.7246l50.557 0c5.94123,0 10.7231,4.78332 10.7231,10.7246zm0 114.04l0 29.1093c0,5.94123 -4.78189,10.7231 -10.7231,10.7231l-50.557 0c-5.94123,0 -10.7246,-4.78189 -10.7246,-10.7231l0 -29.1093c0,-5.93979 4.78332,-10.7231 10.7246,-10.7231l50.557 0c5.94123,0 10.7231,4.78332 10.7231,10.7231zm0 114.04l0 29.1079c0,5.94123 -4.78189,10.7246 -10.7231,10.7246l-50.557 0c-5.94123,0 -10.7246,-4.78332 -10.7246,-10.7246l0 -29.1079c0,-5.94123 4.78332,-10.7246 10.7246,-10.7246l50.557 0c5.94123,0 10.7231,4.78332 10.7231,10.7246zm0 113.991l0 29.1079c0,5.94123 -4.78189,10.7246 -10.7231,10.7246l-50.557 0c-5.94123,0 -10.7246,-4.78332 -10.7246,-10.7246l0 -29.1079c0,-5.94123 4.78332,-10.7246 10.7246,-10.7246l50.557 0c5.94123,0 10.7231,4.78332 10.7231,10.7246zm0 114.041l0 29.1079c0,5.94123 -4.78189,10.7246 -10.7231,10.7246l-50.557 0c-5.94123,0 -10.7246,-4.78332 -10.7246,-10.7246l0 -29.1079c0,-5.94123 4.78332,-10.7246 10.7246,-10.7246l50.557 0c5.94123,0 10.7231,4.78332 10.7231,10.7246z"/>
   <path id="_338615224" class="fil1" d="M833.416 295.338l-0.0958955 0 0 -0.0958955 -21.1142 0 0 -9.71836 21.1142 0 0 -10.8677 -44.6215 0c0.176047,0.771458 0.287686,1.56725 0.287686,2.39309l0 29.1079c0,4.55003 -2.81675,8.39443 -6.79856,9.95882l0 10.6759 51.2268 0 0 -10.8677 -20.4429 0 0 -9.71836 20.4429 0 0 -10.8677 0.00143128 0zm0 224.443l-44.4282 0 0 14.4587c0,4.58724 -2.85969,8.46743 -6.89446,10.006l0 6.99035 51.3241 0 0 -10.8677 -20.5388 0 0 -9.71836 20.5388 0 0 -10.8677 -0.00143128 -0.00143128zm-0.0958955 -519.308l-21.0183 0 0 10.8204 21.0183 0 0 -10.8204zm0 57.4028l-44.3323 0 0 20.2511c0,4.84344 -3.17028,8.9054 -7.56429,10.2465l0 0.957524 51.8981 0 0 -10.8677 -21.1142 0 0 -9.71979 21.1142 0 0 -10.8677 -0.00143128 0zm0 760.697l-21.0183 0 0 10.819 21.0183 0 0 -10.819zm0 57.4028l-44.3323 0 0 0.334919c0,4.84344 -3.17028,8.9054 -7.56429,10.2451l0 20.8752 51.8981 0 0 -10.8677 -21.1142 0 0 -9.71979 21.1142 0 0 -10.8677 -0.00143128 0zm-0.52671 -853.297l-20.5875 0 0 -10.8677 -30.7825 0 0 10.8677 30.3058 0 0 10.8204 -30.8812 0 0 5.12254c3.13449,0.772889 5.72081,2.89833 7.08625,5.74514l44.859 0 0 -21.6881 0 0zm0 818.094l-20.5875 0 0 -10.8677 -30.7825 0 0 7.03758c2.20846,0.674131 4.11206,2.02526 5.45745,3.83009l24.8469 0 0 10.8204 -22.7401 0 0 10.8677 43.8071 0 0 -21.6881 -0.00143128 0zm-0.0486634 -467.127l-21.0641 0 0 10.8677 21.0641 0 0 -10.8677zm-4.73895 304.772c-0.490928,-5.7981 -6.84436,-8.84242 -12.256,-8.56905 -6.0042,-0.596842 -14.267,1.94797 -13.454,9.43068 0.509534,8.00369 13.507,9.74842 16.5184,2.58632 1.54435,-2.48899 -2.49328,-9.23602 2.9198,-6.32051 4.90069,1.87927 -1.25809,10.4726 5.21843,9.19308 0.715638,-1.60875 1.08777,-3.3635 1.05342,-5.12254 0.0214691,-0.410776 0.0329193,-0.810102 0,-1.19798l0 0zm-0.143128 16.6128c-0.0629761,-1.54864 -0.490928,-3.10301 -1.29387,-4.45127 -8.47029,-1.79911 0.0873078,5.69791 -4.97798,8.61628 -3.59107,2.30722 -8.5805,2.16266 -12.4006,0.575373 -5.99991,-1.66028 1.52717,-9.35911 -4.11635,-9.33621 -4.63733,1.33681 -3.09728,8.07812 -1.14931,11.1554 3.76712,4.7275 10.8662,5.10679 16.3251,3.68554 4.85632,-0.770026 7.79759,-5.59915 7.61296,-10.2451l0 0zm-3.7342 -495.659c-0.0529572,-1.77192 -0.520984,-3.52953 -1.67602,-4.88351 -2.7137,-3.38783 -8.88822,-3.77427 -11.2985,0.144559 -1.37116,-0.343506 -3.83725,-2.39739 -6.08006,-1.96371 -3.5696,-0.188928 -6.76993,2.84108 -6.89446,6.36775 -0.675562,2.95845 0.954661,6.17739 3.68697,7.4684 2.95129,1.77049 7.61725,0.588254 8.52182,-2.96703 0.374994,1.71181 1.72469,3.06293 3.25472,3.82866 3.97322,2.2013 8.99414,-0.764301 10.1978,-4.83485 0.233298,-0.994737 0.319175,-2.09682 0.287686,-3.16026l0 0zm-0.0958955 -60.3712l-6.32051 0 0.00143128 -30.2572 -9.95882 0 0 30.2572 -6.31908 0 5.64781 9.76703 5.64925 9.7656 5.64925 -9.7656 5.64925 -9.76703 0.00143128 0zm-0.0486634 84.0689c0.0057251,-0.802946 -0.151715,-1.61734 -0.478046,-2.34586 0.791496,-3.7299 -1.36973,-7.92927 -5.02664,-9.19165 -2.05531,-0.659818 -4.92931,-0.625468 -6.17596,1.43557 -0.659818,2.1827 -3.21608,2.12258 -4.40547,0.430814 -1.91362,-2.38594 -5.7523,-1.37116 -7.3725,0.861628 -2.81961,4.19507 -1.4599,9.4178 -1.77192,14.1238 3.75996,0.06727 7.53853,-0.0357819 11.2985,-0.0472321 3.32915,-0.397895 6.67547,1.03481 9.95882,0.0944642 2.49471,-0.506672 3.95748,-2.95129 3.97322,-5.36156l0 0zm-3.92599 -23.4586c0.0329193,1.35112 -0.641212,2.71656 -2.05817,3.30338 -2.26428,1.5057 -5.89543,-0.0715638 -5.55335,-2.96847 -0.310587,-2.75521 2.94843,-4.40833 5.26566,-3.39928 1.56009,0.396463 2.31437,1.71181 2.34586,3.06436l0 0zm-0.239023 20.0593c0.0858766,3.62256 -4.613,5.4961 -7.56429,4.02189 -0.708482,-1.88642 -0.480909,-4.17217 0.767164,-5.79237 1.83346,-2.92839 6.5395,-1.55293 6.79856,1.77049l-0.00143128 0zm-4.59583 279.408c-0.480909,-0.528141 -0.923173,-1.08491 -1.38834,-1.62736l-28.0072 0c1.96657,1.94224 3.16026,4.66453 3.16026,7.66019l0 3.20749 26.2353 0 0 -9.24032zm-0.143128 179.3c-0.28053,3.84584 -6.425,4.46272 -8.42592,1.67459 -2.83106,-5.50182 7.98079,-7.25084 8.42592,-1.67459zm-2.15407 -338.714l-30.834 0 0 10.8677 30.834 0 0 -10.8677zm0 22.5498l-30.834 0 0 10.8677 30.834 0 0 -10.8677zm0 22.5498l-25.9963 0c1.29387,1.77192 2.05817,3.94746 2.05817,6.31908l0 4.54859 23.9381 0 0 -10.8677zm-1.10208 22.5498l-22.836 0 0 10.8677 15.7984 0c2.01667,-3.84584 4.37827,-7.47699 7.03758,-10.8677zm-3.25472 -186.564c-0.0329193,2.7595 -3.58391,4.64878 -5.8897,2.96703 -0.430814,-1.59874 -0.339212,-3.39928 0.430814,-4.88351 1.13357,-3.15739 5.44171,-1.62164 5.41022,1.34111 0.0300568,0.19036 0.0500947,0.390738 0.0486634,0.575373zm-0.144559 -20.8752c0.226142,1.59158 -1.23805,3.34919 -3.0157,3.16026 -2.37592,0.287686 -3.62685,-2.49042 -2.92123,-4.4527 0.631193,-2.48756 3.90595,-1.85493 5.0753,-0.143128 0.502378,0.412207 0.78577,0.905998 0.861628,1.43557l0 0zm-2.77668 285.92c-1.93222,-3.46083 -3.58964,-7.08195 -4.93075,-10.8677l-17.858 0 0 10.8677 22.7888 0 0 0zm-5.74514 -55.9185l-17.0436 0 0 10.8204 14.5546 0c0.546747,-3.70414 1.39406,-7.3267 2.48899,-10.8204l0 0zm-2.24997 33.3688c-0.599705,-3.51808 -0.94178,-7.14636 -1.00476,-10.8204l-13.7889 0 0 10.8204 14.7937 0z"/>
   <path id="_338615824" class="fil1" d="M773.673 0l-33.7051 0 0 38.3009 33.7051 0 0 -38.3009zm0 88.8565l-33.7051 0 0 63.4842 33.7051 0 0 -63.4842zm0 114.04l-33.7051 0 0 63.4341 33.7051 0 0 -63.4341zm0 113.991l-33.7051 0 0 63.4842 33.7051 0 0 -63.4842zm0 114.041l-33.7051 0 0 63.4828 33.7051 0 0 -63.4828zm0 114.038l-33.7051 0 0 63.4842 33.7051 0 0 -63.4842zm0 114.038l-33.7051 0 0 63.4356 33.7051 0 0 -63.4356zm0 113.993l-33.7051 0 0 63.4828 33.7051 0 0 -63.4828zm0 114.038l-33.7051 0 0 21.4477 33.7051 0 0 -21.4477z"/>
   <path id="_338615056" class="fil1" d="M102.88 0l-34.6626 0 0 36.768 34.6626 0 0 -36.768zm0 87.325l-34.6626 0 0 63.4842 34.6626 0 0 -63.4842zm0 114.04l-34.6626 0 0 63.4341 34.6626 0 0 -63.4341zm0 113.991l-34.6626 0 0 63.4842 34.6626 0 0 -63.4842zm0 114.038l-34.6626 0 0 63.4842 34.6626 0 0 -63.4842zm0 114.041l-34.6626 0 0 63.4828 34.6626 0 0 -63.4828zm0 114.038l-34.6626 0 0 63.4356 34.6626 0 0 -63.4356zm0 113.991l-34.6626 0 0 63.4842 34.6626 0 0 -63.4842zm0 114.041l-34.6626 0 0 22.9806 34.6626 0 0 -22.9806z"/>
   <path id="_338615008" class="fil1" d="M38.9708 7.51706l-38.9708 0 0 21.638 38.9708 0 0 -21.638zm0 31.4065l-38.9708 0 0 14.0752 38.9708 0 0 -14.0752zm0 210.177l-38.9708 0 0 21.6395 38.9708 0 0 -21.6395zm0 31.4065l-38.9708 0 0 14.0752 38.9708 0 0 -14.0752zm0 22.1189l-38.9708 0 0 14.0752 38.9708 0 0 -14.0752zm0 291.084l-38.9708 0 0 14.0752 38.9708 0 0 -14.0752zm0 21.4477l-38.9708 0 0 14.0752 38.9708 0 0 -14.0752zm0 20.6819l-38.9708 0 0 21.6395 38.9708 0 0 -21.6395zm0 52.8556l-38.9708 0 0 14.0752 38.9708 0 0 -14.0752zm0 21.4477l-38.9708 0 0 14.0752 38.9708 0 0 -14.0752zm0 21.4491l-38.9708 0 0 14.0752 38.9708 0 0 -14.0752zm0 119.496l-38.9708 0 0 14.0752 38.9708 0 0 -14.0752zm0 23.0765l-38.9708 0 0 21.6395 38.9708 0 0 -21.6395z"/>
   <path id="_338614432" class="fil2" d="M24.9844 186.459c-0.207535,2.50616 2.82534,4.24946 5.01233,3.2676 2.42744,-0.865922 3.03287,-4.63447 0.804377,-6.07004 -1.89501,-1.39979 -5.24563,-0.629761 -5.72224,1.87211 -0.0729951,0.30343 -0.105914,0.61688 -0.0944642,0.930329m-1.96228 3.43792c-0.822984,3.11732 -4.72321,4.45413 -7.5371,3.24613 -2.41886,-0.926035 -3.88878,-3.48373 -3.8988,-6.01279 -0.309156,-2.99566 1.0663,-6.53091 4.17217,-7.45408 2.572,-0.907429 6.00563,0.0486634 7.05046,2.74805 0.822984,0.399326 0.775752,-1.84491 1.79339,-2.06962 3.15596,-2.8783 9.09862,-1.74473 10.6616,2.33155 1.09493,3.25615 0.996168,7.4226 -1.70036,9.88153 -2.84108,2.3888 -7.86629,2.10541 -9.90729,-1.18939 -0.277668,-0.462302 -0.489496,-0.963249 -0.634055,-1.48137zm-4.75756 -0.486634c2.41599,0.310587 3.99326,-3.00568 2.47038,-4.80766 -1.35112,-1.82058 -4.81481,-1.39693 -5.32864,0.944642 -0.599705,1.80913 0.838728,4.09202 2.85969,3.86301l-0.00143128 0zm6.53234 -19.0603l6.93883 0c-0.171753,-2.07392 0.518122,-4.4756 -0.881666,-6.25038 -1.45131,-1.23519 -3.91454,-1.11496 -5.25421,0.210398 -1.31105,1.74043 -0.632624,4.03906 -0.802946,6.03998zm-9.13727 0c1.72182,-0.374994 3.64546,0.656956 5.21843,-0.374994 0.343506,-1.61162 0.573942,-3.81435 -0.535297,-5.29 -1.41696,-1.42126 -4.52713,-0.601136 -4.60441,1.56295 -0.183203,1.36257 -0.0200379,2.7366 -0.0787202,4.10204zm-3.68983 4.4756c0.207535,-4.04765 -0.56106,-8.23842 0.745695,-12.163 0.863059,-2.09396 3.10157,-3.45653 5.3587,-3.2676 2.16409,-0.0200379 4.49564,1.46706 4.67884,3.76712 0.510965,0.552472 0.323468,-1.61734 0.944642,-1.97659 1.20513,-2.01094 3.66979,-2.85396 5.91976,-2.60922 2.27716,0.0930329 4.66453,1.49711 5.16834,3.8487 1.21229,3.73277 0.337781,7.68881 0.729951,11.516 -0.901704,1.9222 -3.48373,0.376426 -5.11538,0.883097l-18.4305 0 0 0.00143128z"/>
   <path id="_338614768" class="fil2" d="M51.8136 117.98c1.66028,3.00282 1.66601,7.14636 -0.729951,9.76846 -2.28432,2.24424 -5.83102,2.54624 -8.8095,1.80913 -2.56914,-0.682719 -4.68027,-2.95129 -4.9379,-5.6335 -0.284824,-1.83776 0.0357819,-3.74708 0.802946,-5.43455 0.83014,-0.916017 2.90263,-0.676993 3.47084,-0.140265 -1.14359,1.74759 -1.75474,4.22226 -0.425089,6.04428 1.22517,1.53433 3.42504,1.71181 5.23561,1.43986 1.54148,-0.229004 3.00425,-1.33109 3.25329,-2.93698 0.271942,-1.2996 -0.0100189,-2.67935 -0.645505,-3.83296 -1.30389,-1.14216 0.573942,-1.28529 1.4599,-1.08348 0.442264,0.00429383 0.884528,0.00858766 1.32536,0l0 0zm0 -16.4353c1.66028,3.00282 1.66601,7.14636 -0.729951,9.76846 -2.28432,2.24424 -5.83102,2.54624 -8.8095,1.80913 -2.56914,-0.682719 -4.68027,-2.95129 -4.9379,-5.6335 -0.284824,-1.83919 0.0357819,-3.74708 0.802946,-5.43455 0.83014,-0.916017 2.90263,-0.678425 3.47084,-0.140265 -1.14359,1.74759 -1.75474,4.22226 -0.425089,6.04428 1.22517,1.53433 3.42504,1.71037 5.23561,1.43986 1.54148,-0.230435 3.00425,-1.33252 3.25329,-2.93698 0.271942,-1.30103 -0.0100189,-2.67935 -0.645505,-3.83296 -1.30389,-1.14216 0.573942,-1.28529 1.4599,-1.08491 0.442264,0.00429383 0.884528,0.00858766 1.32536,0l0 0.00143128z"/>
   <path id="_338614864" class="fil2" d="M51.8136 360.039c1.66028,3.00425 1.66601,7.14636 -0.729951,9.76846 -2.28432,2.24424 -5.83102,2.54767 -8.8095,1.80913 -2.56914,-0.682719 -4.68027,-2.95129 -4.9379,-5.6335 -0.284824,-1.83776 0.0357819,-3.74565 0.802946,-5.43455 0.83014,-0.916017 2.90263,-0.676993 3.47084,-0.140265 -1.14359,1.74759 -1.75474,4.22226 -0.425089,6.04428 1.22517,1.53433 3.42504,1.71037 5.23561,1.43986 1.54148,-0.229004 3.00425,-1.33109 3.25329,-2.93698 0.271942,-1.2996 -0.0100189,-2.67935 -0.645505,-3.83296 -1.30389,-1.14216 0.573942,-1.28529 1.4599,-1.08348 0.442264,0.00429383 0.884528,0.00858766 1.32536,0l0 0zm0 -16.4353c1.66028,3.00425 1.66601,7.14636 -0.729951,9.76846 -2.28432,2.24424 -5.83102,2.54767 -8.8095,1.80913 -2.56914,-0.682719 -4.68027,-2.95129 -4.9379,-5.6335 -0.284824,-1.83776 0.0357819,-3.74565 0.802946,-5.43455 0.83014,-0.916017 2.90263,-0.676993 3.47084,-0.140265 -1.14359,1.74759 -1.75474,4.22226 -0.425089,6.04428 1.22517,1.53433 3.42504,1.71037 5.23561,1.43986 1.54148,-0.229004 3.00425,-1.33109 3.25329,-2.93698 0.271942,-1.2996 -0.0100189,-2.67935 -0.645505,-3.83296 -1.30389,-1.14216 0.573942,-1.28529 1.4599,-1.08348 0.442264,0.00429383 0.884528,0.00858766 1.32536,0l0 0z"/>
  </g>
 </g>
</svg>
