<?xml version="1.0" encoding="UTF-8"?>
<!DOCTYPE svg PUBLIC "-//W3C//DTD SVG 1.1//EN" "http://www.w3.org/Graphics/SVG/1.1/DTD/svg11.dtd">
<!-- Creator: CorelDRAW -->
<svg xmlns="http://www.w3.org/2000/svg" xml:space="preserve" width="680px" height="680px" style="shape-rendering:geometricPrecision; text-rendering:geometricPrecision; image-rendering:optimizeQuality; fill-rule:evenodd; clip-rule:evenodd"
viewBox="0 0 680 680"
 xmlns:xlink="http://www.w3.org/1999/xlink">
 <defs>
  <style type="text/css">
   <![CDATA[
    .fil0 {fill:black}
    .fil1 {fill:white}
   ]]>
  </style>
 </defs>
 <g id="Livello_x0020_1">
  <metadata id="CorelCorpID_0Corel-Layer"/>
  <path class="fil0" d="M303.206 607.935c0.851577,12.2351 -0.655513,37.2839 6.0508,43.9938 3.21024,3.21142 9.07207,2.71182 11.8004,-0.602364 5.48505,-6.66734 2.56536,-52.3903 2.74371,-64.6419l-1.44331 -41.9044 36.2871 -0.611812 -1.61811 63.208c-0.142914,8.85829 -1.67717,38.8076 3.49253,44.2253 2.94568,3.08859 7.75514,3.28938 11.0693,0.253938 9.8705,-9.04254 2.95394,-51.0367 7.67128,-56.4875l5.99057 -54.1891c3.42639,-1.94528 23.4922,-6.03663 29.8371,-8.14963 25.7505,-8.576 55.7694,-23.9516 74.3612,-41.5442 19.9123,-18.8434 36.4406,-40.5166 46.1304,-68.849 4.36536,-12.7654 5.67049,-25.8638 8.11301,-31.2272 47.7946,1.20473 79.0608,-6.30238 105.327,-39.3072 11.3551,-14.2677 28.2745,-43.9135 20.9032,-62.745 -5.83112,-14.9008 -25.7753,-14.8465 -41.0942,-8.30435 -14.7307,6.29175 -24.1796,15.2894 -32.2678,26.1308l-51.5895 66.6521c1.38898,-42.5942 3.98623,-68.1651 -4.85907,-111.986 -10.2024,-50.5454 -35.1958,-103.806 -75.5281,-133.085 -6.81498,-4.94647 -2.26064,-7.33466 -2.50394,-25.3512 -0.154725,-11.3422 -4.1256,-45.0025 -15.4075,-44.1686 -4.20473,0.310631 -12.6898,11.2784 -15.6851,14.4378l-14.615 15.8126c-3.17481,-1.7752 -5.4697,-3.85631 -8.42128,-5.96104 -8.75671,-6.2445 -17.3658,-12.3449 -27.4926,-16.8296 -30.2375,-13.3866 -70.4411,-14.8996 -103.363,-7.44923 -18.2103,4.12206 -27.7772,8.426 -44.6269,15.0225 0,0 -30.0792,-37.8851 -40.4694,-48.2777 -3.49961,-3.5008 -7.90868,2.08937 -7.90868,2.08937 -15.1796,16.4811 -13.0205,56.9907 -7.75868,79.7364 1.32284,5.71301 1.64764,5.9256 -1.52481,9.56931 -43.7753,50.2903 -50.4273,104.841 -49.3513,171.821 0.268111,16.6819 1.34055,35.3658 3.04961,52.3182 1.83071,18.1571 3.71103,30.4241 6.47009,48.3131 -17.0174,-9.09687 -36.4099,-48.1076 -50.1367,-66.1879 -35.6209,-46.9182 -101.96,-41.8832 -63.7525,27.9497 7.74333,14.1544 18.026,27.1087 26.1379,32.302 35.0989,22.4752 49.7068,18.6142 91.5971,23.4863 6.80907,17.2524 7.72325,31.8709 20.3434,52.2285 17.8111,28.728 48.9355,51.1737 80.1167,65.1072 14.4201,6.44293 33.1076,12.3154 49.1269,15.2741 1.06772,0.198426 2.97757,0.464174 3.90237,0.724017l3.19489 1.49292c3.81379,5.64923 7.04293,55.1812 7.70081,65.7108z"/>
  <path class="fil1" d="M365.769 315.923c7.33939,15.417 10.7929,24.9036 25.8449,36.6969 41.4639,32.4839 101.267,3.04135 107.32,-55.8887 4.17875,-40.6832 -16.3229,-71.021 -42.2765,-83.6671 -15.5989,-7.60159 -35.3835,-8.04333 -51.7832,-0.455907 -18.2788,8.45907 -21.8422,16.1398 -33.2245,30.9001 -2.01851,-5.3693 -3.19371,-12.0213 -5.20867,-17.5725 -2.17796,-5.99647 -4.79411,-11.5382 -7.65947,-16.8272 -47.6092,-87.8624 -172.075,-64.3253 -185.699,46.8296 -6.18545,50.4674 21.4087,105.381 69.9533,122.573 27.0568,9.58231 56.8738,5.09529 78.5364,-8.71656 16.9075,-10.7799 25.8745,-21.2422 35.9717,-37.5627 3.39686,-5.4886 5.04686,-10.7941 8.22522,-16.3087z"/>
  <path class="fil0" d="M281.686 247.895c3.93426,7.6264 7.59332,13.7469 3.84095,24.4819l-17.1461 14.9398c3.26694,24.7264 41.967,35.4072 54.3214,4.42678 8.07403,-20.2477 -2.63032,-43.4836 -20.7827,-47.4048 -9.20553,-1.99016 -13.7492,0.597639 -20.2335,3.55631z"/>
  <path class="fil0" d="M434.97 292.033c-12.1323,-7.88033 -9.39569,-3.61182 -14.3422,-26.0646 -19.0701,-6.13702 -31.4209,18.2611 -21.7382,35.0765 10.4551,18.1583 34.943,9.22797 36.0804,-9.01183z"/>
 </g>
</svg>
