<?xml version="1.0" encoding="UTF-8"?>
<!DOCTYPE svg PUBLIC "-//W3C//DTD SVG 1.1//EN" "http://www.w3.org/Graphics/SVG/1.1/DTD/svg11.dtd">
<!-- Creator: CorelDRAW -->
<svg xmlns="http://www.w3.org/2000/svg" xml:space="preserve" width="110px" height="750px" style="shape-rendering:geometricPrecision; text-rendering:geometricPrecision; image-rendering:optimizeQuality; fill-rule:evenodd; clip-rule:evenodd"
viewBox="0 0 5.73717 39.2929"
 xmlns:xlink="http://www.w3.org/1999/xlink">
 <defs>
  <style type="text/css">
   <![CDATA[
    .fil2 {fill:black}
    .fil1 {fill:#2C2C2C}
    .fil0 {fill:#575757}
   ]]>
  </style>
 </defs>
 <g id="Livello_x0020_1">
  <metadata id="CorelCorpID_0Corel-Layer"/>
  <g id="_372470288">
   <path id="_373667000" class="fil0" d="M-0 6.1865e-005l5.73717 0 0 39.2928 -5.73717 0 0 -39.2928zm5.05245 2.03233l0 1.25982c0,0.257173 -0.206691,0.464173 -0.463492,0.464173l-2.18526 0c-0.256801,0 -0.463554,-0.207 -0.463554,-0.464173l0 -1.25982c0,-0.257111 0.206753,-0.464173 0.463554,-0.464173l2.18526 0c0.256801,0 0.463492,0.207062 0.463492,0.464173zm0 4.93583l0 1.25988c0,0.257111 -0.206691,0.464111 -0.463492,0.464111l-2.18526 0c-0.256801,0 -0.463554,-0.207 -0.463554,-0.464111l0 -1.25988c0,-0.257173 0.206753,-0.464111 0.463554,-0.464111l2.18526 0c0.256801,0 0.463492,0.206938 0.463492,0.464111zm0 4.93373l0 1.25982c0,0.257173 -0.206691,0.464173 -0.463492,0.464173l-2.18526 0c-0.256801,0 -0.463554,-0.207 -0.463554,-0.464173l0 -1.25982c0,-0.257111 0.206753,-0.464173 0.463554,-0.464173l2.18526 0c0.256801,0 0.463492,0.207062 0.463492,0.464173zm0 4.93571l0 1.25988c0,0.257111 -0.206691,0.464173 -0.463492,0.464173l-2.18526 0c-0.256801,0 -0.463554,-0.207062 -0.463554,-0.464173l0 -1.25988c0,-0.257111 0.206753,-0.464173 0.463554,-0.464173l2.18526 0c0.256801,0 0.463492,0.207062 0.463492,0.464173zm0 4.93583l0 1.25988c0,0.257173 -0.206691,0.464111 -0.463492,0.464111l-2.18526 0c-0.256801,0 -0.463554,-0.206938 -0.463554,-0.464111l0 -1.25988c0,-0.257111 0.206753,-0.464111 0.463554,-0.464111l2.18526 0c0.256801,0 0.463492,0.207 0.463492,0.464111zm0 4.93577l0 1.25982c0,0.257173 -0.206691,0.464173 -0.463492,0.464173l-2.18526 0c-0.256801,0 -0.463554,-0.207 -0.463554,-0.464173l0 -1.25982c0,-0.257111 0.206753,-0.464173 0.463554,-0.464173l2.18526 0c0.256801,0 0.463492,0.207062 0.463492,0.464173zm0 4.93373l0 1.25982c0,0.257111 -0.206691,0.464173 -0.463492,0.464173l-2.18526 0c-0.256801,0 -0.463554,-0.207062 -0.463554,-0.464173l0 -1.25982c0,-0.257173 0.206753,-0.464173 0.463554,-0.464173l2.18526 0c0.256801,0 0.463492,0.207 0.463492,0.464173zm0 4.93583l0 1.25982c0,0.257173 -0.206691,0.464173 -0.463492,0.464173l-2.18526 0c-0.256801,0 -0.463554,-0.207 -0.463554,-0.464173l0 -1.25982c0,-0.257173 0.206753,-0.464173 0.463554,-0.464173l2.18526 0c0.256801,0 0.463492,0.207 0.463492,0.464173z"/>
   <path id="_373666976" class="fil1" d="M2.90227 6.1865e-005l0 1.56803 1.49825 0 0 -1.56803 -1.49825 0zm1.49825 39.2928l-1.49825 0 0 -0.990211 1.49825 0 0 0.990211zm0 -35.5366l-1.49825 0 0 2.74773 1.49825 0 0 -2.74773zm0 4.93583l-1.49825 0 0 2.74551 1.49825 0 0 -2.74551zm0 4.93367l-1.49825 0 0 2.74767 1.49825 0 0 -2.74767zm0 4.93577l-1.49825 0 0 2.74767 1.49825 0 0 -2.74767zm0 4.93583l-1.49825 0 0 2.74761 1.49825 0 0 -2.74761zm0 4.93571l-1.49825 0 0 2.74563 1.49825 0 0 -2.74563zm0 4.93373l-1.49825 0 0 2.74767 1.49825 0 0 -2.74767z"/>
   <path id="_45464536" class="fil1" d="M1.63812 0.302087l-1.63812 0 0 0.936512 1.63812 0 0 -0.936512zm-1.63812 38.4463l0 -0.936574 1.63812 0 0 0.936574 -1.63812 0zm0 -1.3262l0 -0.609184 1.63812 0 0 0.609184 -1.63812 0zm0 -5.17191l0 -0.609184 1.63812 0 0 0.609184 -1.63812 0zm0 -0.928346l0 -0.609184 1.63812 0 0 0.609184 -1.63812 0zm0 -0.928284l0 -0.609184 1.63812 0 0 0.609184 -1.63812 0zm0 -1.96032l0 -0.936574 1.63812 0 0 0.936574 -1.63812 0zm0 -1.22251l0 -0.609184 1.63812 0 0 0.609184 -1.63812 0zm0 -0.928284l0 -0.609184 1.63812 0 0 0.609184 -1.63812 0zm0 -12.5986l0 -0.609184 1.63812 0 0 0.609184 -1.63812 0zm0 -0.957299l0 -0.609184 1.63812 0 0 0.609184 -1.63812 0zm0 -1.03191l0 -0.936636 1.63812 0 0 0.936636 -1.63812 0zm0 -9.4242l0 -0.609184 1.63812 0 0 0.609184 -1.63812 0z"/>
   <path id="_372962768" class="fil2" d="M1.03358 8.04696c-0.00897042,0.108449 0.122121,0.183925 0.216651,0.141423 0.104923,-0.0374902 0.131092,-0.200566 0.0347681,-0.262741 -0.0819092,-0.0605658 -0.226735,-0.0272206 -0.247336,0.0810431 -0.00315511,0.0131154 -0.00457801,0.0267257 -0.00408309,0.0402741m-0.0848169 0.148785c-0.0355724,0.134927 -0.204154,0.192833 -0.325781,0.140495 -0.104552,-0.0400885 -0.168087,-0.150765 -0.16852,-0.260266 -0.0133628,-0.129607 0.0460894,-0.282661 0.180336,-0.322626 0.111171,-0.0392224 0.259585,0.00210341 0.304747,0.118966 0.0355724,0.0172603 0.0335308,-0.0798677 0.0775168,-0.0895186 0.136412,-0.124658 0.393276,-0.0755371 0.460832,0.100902 0.0473267,0.140867 0.043058,0.321203 -0.0734956,0.427673 -0.122802,0.103376 -0.34001,0.0911271 -0.428229,-0.0514717 -0.0120018,-0.0200443 -0.0211578,-0.041697 -0.0274062,-0.064154zm-0.205639 -0.021096c0.104428,0.0134866 0.172603,-0.13004 0.106779,-0.208052 -0.0584005,-0.0787541 -0.208114,-0.0604421 -0.230323,0.0408927 -0.0259214,0.0783211 0.0362529,0.177058 0.123606,0.167159l-6.1865e-005 0zm0.282352 -0.824908l0.299921 0c-0.0074238,-0.0897661 0.0223951,-0.193699 -0.0381088,-0.270536 -0.0627311,-0.0534513 -0.169201,-0.0482547 -0.227106,0.00915602 -0.0566683,0.0752897 -0.0273443,0.174769 -0.0347062,0.261379zm-0.394946 0c0.0744236,-0.0162705 0.15757,0.0284579 0.22556,-0.0162086 0.0148476,-0.0697837 0.0248079,-0.165118 -0.0231375,-0.228962 -0.0612463,-0.0615556 -0.195679,-0.0260452 -0.19902,0.0676803 -0.00791872,0.0588955 -0.00086611,0.118348 -0.00340257,0.177491zm-0.159488 0.193699c0.00897042,-0.175202 -0.0242511,-0.35659 0.0322316,-0.526471 0.0373046,-0.0905703 0.134061,-0.149528 0.231622,-0.141361 0.0935398,-0.000927975 0.194318,0.0634735 0.202237,0.163014 0.0220858,0.0239417 0.0139815,-0.0700311 0.0408309,-0.0855593 0.0520903,-0.087044 0.158622,-0.123482 0.255874,-0.112904 0.0984272,0.00402122 0.201618,0.0647726 0.223394,0.16654 0.0523996,0.161591 0.0146001,0.332834 0.0315511,0.498508 -0.0389749,0.0831465 -0.150579,0.0162705 -0.221105,0.0381707l-0.796635 0 0 6.1865e-005z"/>
   <path id="_45464824" class="fil2" d="M2.19324 5.08307c0.0717634,0.129978 0.0720108,0.309325 -0.0315511,0.422785 -0.0987365,0.097128 -0.252038,0.110243 -0.380779,0.0783211 -0.111048,-0.0295715 -0.202298,-0.127689 -0.213434,-0.24381 -0.0123111,-0.0795584 0.00154662,-0.16221 0.0347062,-0.235211 0.0358817,-0.0396554 0.125462,-0.029324 0.150023,-0.00606277 -0.0494301,0.075599 -0.0758465,0.182687 -0.0183739,0.261565 0.0529564,0.066443 0.148043,0.0740524 0.226302,0.0623599 0.0666286,-0.00996026 0.129855,-0.0576582 0.140619,-0.127133 0.0117543,-0.0562971 -0.000433055,-0.115935 -0.0279011,-0.165922 -0.056359,-0.0494301 0.0248079,-0.0556166 0.0631023,-0.0468936 0.0191163,0.000185595 0.0382326,0.00037119 0.057287,0l0 0zm0 -0.711385c0.0717634,0.13004 0.0720108,0.309325 -0.0315511,0.422847 -0.0987365,0.097128 -0.252038,0.110243 -0.380779,0.0783211 -0.111048,-0.0295715 -0.202298,-0.127751 -0.213434,-0.243872 -0.0123111,-0.0795584 0.00154662,-0.162148 0.0347062,-0.235211 0.0358817,-0.0396554 0.125462,-0.029324 0.150023,-0.00606277 -0.0494301,0.0756609 -0.0758465,0.182749 -0.0183739,0.261565 0.0529564,0.066443 0.148043,0.0740524 0.226302,0.0623599 0.0666286,-0.00996026 0.129855,-0.0576582 0.140619,-0.127133 0.0117543,-0.0562971 -0.000433055,-0.115935 -0.0279011,-0.16586 -0.056359,-0.049492 0.0248079,-0.0556785 0.0631023,-0.0469555 0.0191163,0.000185595 0.0382326,0.00037119 0.057287,0l0 0z"/>
   <path id="_372925872" class="fil2" d="M2.19324 15.5597c0.0717634,0.129978 0.0720108,0.309325 -0.0315511,0.422785 -0.0987365,0.097128 -0.252038,0.110243 -0.380779,0.0783211 -0.111048,-0.0295715 -0.202298,-0.127751 -0.213434,-0.24381 -0.0123111,-0.0795584 0.00154662,-0.162148 0.0347062,-0.235211 0.0358817,-0.0396554 0.125462,-0.029324 0.150023,-0.00612463 -0.0494301,0.0756609 -0.0758465,0.182749 -0.0183739,0.261627 0.0529564,0.066443 0.148043,0.0740524 0.226302,0.0623599 0.0666286,-0.00996026 0.129855,-0.0576582 0.140619,-0.127194 0.0117543,-0.0562353 -0.000433055,-0.115935 -0.0279011,-0.16586 -0.056359,-0.0494301 0.0248079,-0.0556166 0.0631023,-0.0468936 0.0191163,0.000185595 0.0382326,0.000309325 0.057287,0l0 0zm0 -0.711323c0.0717634,0.129978 0.0720108,0.309263 -0.0315511,0.422785 -0.0987365,0.097128 -0.252038,0.110243 -0.380779,0.0783211 -0.111048,-0.0295715 -0.202298,-0.127751 -0.213434,-0.243872 -0.0123111,-0.0795584 0.00154662,-0.162148 0.0347062,-0.235211 0.0358817,-0.0396554 0.125462,-0.029324 0.150023,-0.00606277 -0.0494301,0.0756609 -0.0758465,0.182749 -0.0183739,0.261627 0.0529564,0.0663811 0.148043,0.0740524 0.226302,0.062298 0.0666286,-0.00996026 0.129855,-0.0576582 0.140619,-0.127133 0.0117543,-0.0562353 -0.000433055,-0.115935 -0.0279011,-0.16586 -0.056359,-0.0494301 0.0248079,-0.0556785 0.0631023,-0.0469555 0.0191163,0.000185595 0.0382326,0.00037119 0.057287,0l0 6.1865e-005z"/>
  </g>
 </g>
</svg>
