<?xml version="1.0" encoding="UTF-8"?>
<!DOCTYPE svg PUBLIC "-//W3C//DTD SVG 1.1//EN" "http://www.w3.org/Graphics/SVG/1.1/DTD/svg11.dtd">
<!-- Creator: CorelDRAW -->
<svg xmlns="http://www.w3.org/2000/svg" xml:space="preserve" width="111px" height="750px" style="shape-rendering:geometricPrecision; text-rendering:geometricPrecision; image-rendering:optimizeQuality; fill-rule:evenodd; clip-rule:evenodd"
viewBox="0 0 5.78739 39.0029"
 xmlns:xlink="http://www.w3.org/1999/xlink">
 <defs>
  <style type="text/css">
   <![CDATA[
    .fil2 {fill:black}
    .fil1 {fill:#2C2C2C}
    .fil0 {fill:#575757}
   ]]>
  </style>
 </defs>
 <g id="Livello_x0020_1">
  <metadata id="CorelCorpID_0Corel-Layer"/>
  <g id="_339065040">
   <path id="_339063912" class="fil0" d="M5.78739 0l-5.78739 0 0 39.0029 5.78739 0 0 -1.77563 0 -35.4513 0 -1.77594zm-0.723293 2.03906l0 1.24965c0,0.255067 -0.205295,0.460423 -0.460361,0.460423l-2.17049 0c-0.255067,0 -0.460423,-0.205356 -0.460423,-0.460423l0 -1.24965c0,-0.255067 0.205356,-0.460423 0.460423,-0.460423l2.17049 0c0.255067,0 0.460361,0.205356 0.460361,0.460423zm0 4.89591l0 1.24971c0,0.255067 -0.205295,0.460361 -0.460361,0.460361l-2.17049 0c-0.255067,0 -0.460423,-0.205295 -0.460423,-0.460361l0 -1.24971c0,-0.255067 0.205356,-0.460361 0.460423,-0.460361l2.17049 0c0.255067,0 0.460361,0.205295 0.460361,0.460361zm0 4.89389l0 1.24965c0,0.255067 -0.205295,0.460423 -0.460361,0.460423l-2.17049 0c-0.255067,0 -0.460423,-0.205356 -0.460423,-0.460423l0 -1.24965c0,-0.255067 0.205356,-0.460423 0.460423,-0.460423l2.17049 0c0.255067,0 0.460361,0.205356 0.460361,0.460423zm0 4.89585l0 1.24965c0,0.255067 -0.205295,0.460423 -0.460361,0.460423l-2.17049 0c-0.255067,0 -0.460423,-0.205356 -0.460423,-0.460423l0 -1.24965c0,-0.255067 0.205356,-0.460423 0.460423,-0.460423l2.17049 0c0.255067,0 0.460361,0.205356 0.460361,0.460423zm0 4.89591l0 1.24971c0,0.255067 -0.205295,0.460361 -0.460361,0.460361l-2.17049 0c-0.255067,0 -0.460423,-0.205295 -0.460423,-0.460361l0 -1.24971c0,-0.255005 0.205356,-0.460361 0.460423,-0.460361l2.17049 0c0.255067,0 0.460361,0.205356 0.460361,0.460361zm0 4.89591l0 1.24965c0,0.255067 -0.205295,0.460423 -0.460361,0.460423l-2.17049 0c-0.255067,0 -0.460423,-0.205356 -0.460423,-0.460423l0 -1.24965c0,-0.255067 0.205356,-0.460423 0.460423,-0.460423l2.17049 0c0.255067,0 0.460361,0.205356 0.460361,0.460423zm0 4.89383l0 1.24965c0,0.255067 -0.205295,0.460423 -0.460361,0.460423l-2.17049 0c-0.255067,0 -0.460423,-0.205356 -0.460423,-0.460423l0 -1.24965c0,-0.255067 0.205356,-0.460423 0.460423,-0.460423l2.17049 0c0.255067,0 0.460361,0.205356 0.460361,0.460423zm0 4.89598l0 1.24965c0,0.255067 -0.205295,0.460423 -0.460361,0.460423l-2.17049 0c-0.255067,0 -0.460423,-0.205356 -0.460423,-0.460423l0 -1.24965c0,-0.255067 0.205356,-0.460423 0.460423,-0.460423l2.17049 0c0.255067,0 0.460361,0.205356 0.460361,0.460423z"/>
   <path id="_339064296" class="fil1" d="M4.41657 0l-1.48812 0 0 1.57851 1.48812 0 0 -1.57851zm0 3.74901l-1.48812 0 0 2.72548 1.48812 0 0 -2.72548zm0 4.89591l-1.48812 0 0 2.72333 1.48812 0 0 -2.72333zm0 4.89383l-1.48812 0 0 2.72548 1.48812 0 0 -2.72548zm0 4.89585l-1.48812 0 0 2.72548 1.48812 0 0 -2.72548zm0 4.89598l-1.48812 0 0 2.72542 1.48812 0 0 -2.72542zm0 4.89585l-1.48812 0 0 2.72339 1.48812 0 0 -2.72339zm0 4.89383l-1.48812 0 0 2.72548 1.48812 0 0 -2.72548zm0 4.89598l-1.48812 0 0 0.986593 1.48812 0 0 -0.986593z"/>
   <path id="_339061392" class="fil1" d="M1.67283 0.32272l-1.67283 0 0 0.928956 1.67283 0 0 -0.928956zm-1.67283 38.1356l0 -0.929018 1.67283 0 0 0.929018 -1.67283 0zm0 -1.31546l0 -0.60427 1.67283 0 0 0.60427 -1.67283 0zm0 -5.13015l0 -0.60427 1.67283 0 0 0.60427 -1.67283 0zm0 -0.920845l0 -0.60427 1.67283 0 0 0.60427 -1.67283 0zm0 -0.920784l0 -0.60427 1.67283 0 0 0.60427 -1.67283 0zm0 -1.94443l0 -0.929018 1.67283 0 0 0.929018 -1.67283 0zm0 -1.21266l0 -0.60427 1.67283 0 0 0.60427 -1.67283 0zm0 -0.920784l0 -0.60427 1.67283 0 0 0.60427 -1.67283 0zm0 -12.4967l0 -0.60427 1.67283 0 0 0.60427 -1.67283 0zm0 -0.949602l0 -0.60427 1.67283 0 0 0.60427 -1.67283 0zm0 -1.02358l0 -0.929018 1.67283 0 0 0.929018 -1.67283 0zm0 -9.348l0 -0.60427 1.67283 0 0 0.60427 -1.67283 0z"/>
   <path id="_339065328" class="fil2" d="M1.07237 8.00501c-0.00890982,0.107594 0.121296,0.182436 0.215187,0.140284 0.104214,-0.0371755 0.130206,-0.198965 0.0345332,-0.260597 -0.0813559,-0.0600952 -0.225203,-0.0270367 -0.245665,0.0803727 -0.0031338,0.0130268 -0.00454708,0.0264837 -0.0040555,0.0399406m-0.0842439 0.147596c-0.035332,0.133832 -0.202775,0.191223 -0.32358,0.139362 -0.103845,-0.0397562 -0.166952,-0.149562 -0.167382,-0.258139 -0.0132726,-0.128609 0.045778,-0.280383 0.179118,-0.320016 0.11042,-0.0389574 0.257832,0.0020892 0.302688,0.117978 0.035332,0.0171437 0.0333043,-0.0792052 0.0769931,-0.0888524 0.135491,-0.12357 0.390619,-0.0749039 0.457719,0.100097 0.047007,0.139792 0.0427671,0.318664 -0.0729991,0.42423 -0.121972,0.102555 -0.337713,0.0903886 -0.425336,-0.0510625 -0.0119207,-0.0198474 -0.0210149,-0.0413538 -0.027221,-0.0635977zm-0.20425 -0.020892c0.103723,0.013334 0.171437,-0.129039 0.106058,-0.206401 -0.058006,-0.0781606 -0.206708,-0.0599723 -0.228767,0.040555 -0.0257463,0.077669 0.036008,0.175677 0.122771,0.165846l-6.1447e-005 0zm0.280444 -0.81829l0.297895 0c-0.00737364,-0.0890367 0.0222438,-0.192145 -0.0378514,-0.268339 -0.0623073,-0.0530288 -0.168058,-0.0478672 -0.225572,0.00903271 -0.0562855,0.0747196 -0.0271596,0.173404 -0.0344718,0.259306zm-0.392278 0c0.0739208,-0.0160991 0.156506,0.0282042 0.224036,-0.0160991 0.0147473,-0.0691894 0.0246403,-0.163756 -0.0229812,-0.227108 -0.0608326,-0.0610169 -0.194357,-0.0258078 -0.197675,0.0671002 -0.00786522,0.0584976 -0.000860258,0.117487 -0.00337959,0.176107zm-0.15841 0.192145c0.00890982,-0.173772 -0.0240872,-0.353689 0.0320139,-0.522177 0.0370526,-0.089897 0.133156,-0.148395 0.230058,-0.140284 0.0929079,-0.000860258 0.193005,0.0629832 0.20087,0.161729 0.0219366,0.0237186 0.013887,-0.0694351 0.040555,-0.0848583 0.0517384,-0.0863331 0.15755,-0.122525 0.254145,-0.112018 0.0977622,0.00399406 0.200256,0.0642736 0.221885,0.165231 0.0520456,0.160254 0.0145015,0.330093 0.031338,0.494403 -0.0387116,0.0825234 -0.149562,0.0161606 -0.219612,0.0379128l-0.791253 0 0 6.1447e-005z"/>
   <path id="_339065448" class="fil2" d="M2.2242 5.06508c0.0712786,0.128916 0.0715243,0.306805 -0.031338,0.419376 -0.0980695,0.0963489 -0.250335,0.109314 -0.378206,0.077669 -0.110297,-0.0293102 -0.200932,-0.126704 -0.211992,-0.241856 -0.012228,-0.078898 0.00153618,-0.160868 0.0344718,-0.233314 0.0356393,-0.0393261 0.124615,-0.0290644 0.149009,-0.00602181 -0.0490962,0.0750268 -0.0753341,0.181269 -0.0182498,0.259491 0.0525987,0.0658712 0.147043,0.0734906 0.224773,0.0618157 0.0661784,-0.00983152 0.128977,-0.0571457 0.139669,-0.126089 0.0116749,-0.0557939 -0.000430129,-0.115029 -0.0277126,-0.164555 -0.0559782,-0.0490347 0.0246403,-0.0551794 0.062676,-0.0465154 0.0189871,0.000184341 0.0379743,0.000368682 0.0568999,0l0 0zm0 -0.705596c0.0712786,0.128916 0.0715243,0.306805 -0.031338,0.419376 -0.0980695,0.0963489 -0.250335,0.109314 -0.378206,0.077669 -0.110297,-0.0293102 -0.200932,-0.126704 -0.211992,-0.241856 -0.012228,-0.0789594 0.00153618,-0.160868 0.0344718,-0.233314 0.0356393,-0.0393261 0.124615,-0.0291259 0.149009,-0.00602181 -0.0490962,0.0750268 -0.0753341,0.181269 -0.0182498,0.259491 0.0525987,0.0658712 0.147043,0.0734292 0.224773,0.0618157 0.0661784,-0.00989297 0.128977,-0.0572072 0.139669,-0.126089 0.0116749,-0.0558553 -0.000430129,-0.115029 -0.0277126,-0.164555 -0.0559782,-0.0490347 0.0246403,-0.0551794 0.062676,-0.0465768 0.0189871,0.000184341 0.0379743,0.000368682 0.0568999,0l0 6.1447e-005z"/>
   <path id="_339065112" class="fil2" d="M2.2242 15.4571c0.0712786,0.128977 0.0715243,0.306805 -0.031338,0.419376 -0.0980695,0.0963489 -0.250335,0.109376 -0.378206,0.077669 -0.110297,-0.0293102 -0.200932,-0.126704 -0.211992,-0.241856 -0.012228,-0.078898 0.00153618,-0.160807 0.0344718,-0.233314 0.0356393,-0.0393261 0.124615,-0.0290644 0.149009,-0.00602181 -0.0490962,0.0750268 -0.0753341,0.181269 -0.0182498,0.259491 0.0525987,0.0658712 0.147043,0.0734292 0.224773,0.0618157 0.0661784,-0.00983152 0.128977,-0.0571457 0.139669,-0.126089 0.0116749,-0.0557939 -0.000430129,-0.115029 -0.0277126,-0.164555 -0.0559782,-0.0490347 0.0246403,-0.0551794 0.062676,-0.0465154 0.0189871,0.000184341 0.0379743,0.000368682 0.0568999,0l0 0zm0 -0.705596c0.0712786,0.128977 0.0715243,0.306805 -0.031338,0.419376 -0.0980695,0.0963489 -0.250335,0.109376 -0.378206,0.077669 -0.110297,-0.0293102 -0.200932,-0.126704 -0.211992,-0.241856 -0.012228,-0.078898 0.00153618,-0.160807 0.0344718,-0.233314 0.0356393,-0.0393261 0.124615,-0.0290644 0.149009,-0.00602181 -0.0490962,0.0750268 -0.0753341,0.181269 -0.0182498,0.259491 0.0525987,0.0658712 0.147043,0.0734292 0.224773,0.0618157 0.0661784,-0.00983152 0.128977,-0.0571457 0.139669,-0.126089 0.0116749,-0.0557939 -0.000430129,-0.115029 -0.0277126,-0.164555 -0.0559782,-0.0490347 0.0246403,-0.0551794 0.062676,-0.0465154 0.0189871,0.000184341 0.0379743,0.000368682 0.0568999,0l0 0z"/>
  </g>
 </g>
</svg>
