<?xml version="1.0" encoding="UTF-8"?>
<!DOCTYPE svg PUBLIC "-//W3C//DTD SVG 1.1//EN" "http://www.w3.org/Graphics/SVG/1.1/DTD/svg11.dtd">
<!-- Creator: CorelDRAW -->
<svg xmlns="http://www.w3.org/2000/svg" xml:space="preserve" width="110px" height="750px" style="shape-rendering:geometricPrecision; text-rendering:geometricPrecision; image-rendering:optimizeQuality; fill-rule:evenodd; clip-rule:evenodd"
viewBox="0 0 13.4117 91.7367"
 xmlns:xlink="http://www.w3.org/1999/xlink">
 <defs>
  <style type="text/css">
   <![CDATA[
    .fil1 {fill:#2C2C2C}
    .fil0 {fill:#575757}
   ]]>
  </style>
 </defs>
 <g id="Livello_x0020_1">
  <metadata id="CorelCorpID_0Corel-Layer"/>
  <g id="_372925968">
   <path id="_372470984" class="fil0" d="M13.4117 51.873c-2.2466,-1.23772 -3.76504,-3.58646 -3.76504,-6.28079 0,-2.69433 1.51844,-5.04321 3.76504,-6.28093l0 -39.3111 -13.4117 0 0 91.7364 13.4117 0 0 -39.8636zm-4.55994 -46.9838l0 2.94615c0,0.601308 -0.496563,1.08545 -1.11304,1.08545l-5.24692 0c-0.616622,0 -1.1129,-0.484138 -1.1129,-1.08545l0 -2.94615c0,-0.601308 0.496274,-1.08545 1.1129,-1.08545l5.24692 0c0.616478,0 1.11304,0.484138 1.11304,1.08545zm0 11.5422l0 2.94629c0,0.601308 -0.496563,1.0853 -1.11304,1.0853l-5.24692 0c-0.616622,0 -1.1129,-0.483993 -1.1129,-1.0853l0 -2.94629c0,-0.601163 0.496274,-1.0853 1.1129,-1.0853l5.24692 0c0.616478,0 1.11304,0.484138 1.11304,1.0853zm0 11.5374l0 2.94615c0,0.601308 -0.496563,1.08545 -1.11304,1.08545l-5.24692 0c-0.616622,0 -1.1129,-0.484138 -1.1129,-1.08545l0 -2.94615c0,-0.601308 0.496274,-1.08545 1.1129,-1.08545l5.24692 0c0.616478,0 1.11304,0.484138 1.11304,1.08545zm0 11.5423l0 2.94615c0,0.601308 -0.496563,1.0853 -1.11304,1.0853l-5.24692 0c-0.616622,0 -1.1129,-0.483993 -1.1129,-1.0853l0 -2.94615c0,-0.601308 0.496274,-1.0853 1.1129,-1.0853l5.24692 0c0.616478,0 1.11304,0.483993 1.11304,1.0853zm0 11.5422l0 2.946c0,0.601308 -0.496563,1.08545 -1.11304,1.08545l-5.24692 0c-0.616622,0 -1.1129,-0.484138 -1.1129,-1.08545l0 -2.946c0,-0.601308 0.496274,-1.08545 1.1129,-1.08545l5.24692 0c0.616478,0 1.11304,0.484138 1.11304,1.08545zm0 11.542l0 2.946c0,0.601308 -0.496563,1.08545 -1.11304,1.08545l-5.24692 0c-0.616622,0 -1.1129,-0.484138 -1.1129,-1.08545l0 -2.946c0,-0.601308 0.496274,-1.08545 1.1129,-1.08545l5.24692 0c0.616478,0 1.11304,0.484138 1.11304,1.08545zm0 11.5372l0 2.94615c0,0.601163 -0.496563,1.0853 -1.11304,1.0853l-5.24692 0c-0.616622,0 -1.1129,-0.484138 -1.1129,-1.0853l0 -2.94615c0,-0.601308 0.496274,-1.0853 1.1129,-1.0853l5.24692 0c0.616478,0 1.11304,0.483993 1.11304,1.0853zm0 11.5423l0 2.946c0,0.601452 -0.496563,1.08559 -1.11304,1.08559l-5.24692 0c-0.616622,0 -1.1129,-0.484138 -1.1129,-1.08559l0 -2.946c0,-0.601308 0.496274,-1.08545 1.1129,-1.08545l5.24692 0c0.616478,0 1.11304,0.484138 1.11304,1.08545z"/>
   <path id="_372402064" class="fil1" d="M13.4117 29.8092l-2.15038 0 0 -0.98359 2.15038 0 0 -1.09989 -4.58999 0c0.0182039,0.0780168 0.0299065,0.158634 0.0299065,0.242141l0 2.94615c0,0.460444 -0.292419,0.849661 -0.705619,1.00786l0 1.08053 5.2657 0 0 -1.09989 -2.07091 0 0 -0.98359 2.07091 0 0 -1.10972zm-2.14041 -29.8091l2.14041 0 0 1.07013 -2.14041 0 0 -1.07013zm2.14041 5.7848l0 1.09989 -2.15023 0 0 0.983735 2.15023 0 0 1.10004 -5.34502 0 0 -0.0969432c0.455965,-0.135807 0.785081,-0.54684 0.785081,-1.03705l0 -2.04968 4.55994 0zm0 46.7503l0 1.10004 -2.08059 0 0 0.983735 2.08059 0 0 1.09989 -5.27553 0 0 -0.707497c0.41869,-0.155745 0.715588,-0.54843 0.715588,-1.01277l0 -1.46339 4.55994 0zm0 30.2414l0 1.09498 -2.14041 0 0 -1.09498 2.14041 0zm0 5.8098l0 1.09989 -2.15023 0 0 0.983735 2.15023 0 0 1.06652 -5.34502 0 0 -2.07929c0.455965,-0.135663 0.785081,-0.546696 0.785081,-1.03705l0 -0.0338073 4.55994 0zm-0.0137252 -86.3638l-2.13665 0 0 -1.09989 -3.19465 0 0 1.09989 3.14523 0 0 1.09513 -3.2049 0 0 0.518523c0.325215,0.0781613 0.59365,0.293286 0.735381,0.581514l4.65558 0 0 -2.19516 0 0zm0 82.8009l-2.13665 0 0 -1.09989 -3.19465 0 0 0.712265c0.229138,0.0681925 0.426781,0.205011 0.566345,0.387628l2.57875 0 0 1.09513 -2.36001 0 0 1.10004 4.54636 0 0 -2.19516 -0.000144476 0zm-0.00505665 -47.2788l-2.18606 0 0 1.09989 2.18606 0 0 -1.09989zm-0.491795 30.8466c-0.0509999,-0.58686 -0.710387,-0.895027 -1.27196,-0.867287 -0.623123,-0.0605353 -1.48073,0.197065 -1.39636,0.954406 0.0528781,0.810075 1.40185,0.986624 1.71435,0.26179 0.160223,-0.251966 -0.258756,-0.934757 0.302965,-0.639738 0.508699,0.190274 -0.130462,1.06002 0.541639,0.930423 0.0742605,-0.162824 0.112835,-0.340385 0.109368,-0.518379 0.00216713,-0.041609 0.00332294,-0.0820622 0,-0.121215l0 0zm-0.014881 1.68141c-0.0065014,-0.156756 -0.0509999,-0.31409 -0.134362,-0.45062 -0.87899,-0.182039 0.00910197,0.576747 -0.5165,0.872055 -0.372747,0.233617 -0.890548,0.218881 -1.28699,0.0583682 -0.62269,-0.16817 0.15849,-0.947327 -0.427214,-0.945015 -0.481248,0.135374 -0.321458,0.817588 -0.119337,1.12908 0.390951,0.478503 1.12778,0.516789 1.69427,0.373036 0.504076,-0.0780168 0.809353,-0.566778 0.790137,-1.0369l0 0zm-0.387484 -50.1667c-0.00563455,-0.179294 -0.0541784,-0.357144 -0.173949,-0.494251 -0.281728,-0.342841 -0.922477,-0.381994 -1.17271,0.014592 -0.142309,-0.0346742 -0.398175,-0.242575 -0.630925,-0.198654 -0.370436,-0.0192153 -0.702585,0.287507 -0.715588,0.644506 -0.0700707,0.299354 0.0991103,0.625146 0.382716,0.755897 0.306288,0.17915 0.790571,0.059524 0.884335,-0.300365 0.0390084,0.173226 0.179005,0.310045 0.337784,0.387484 0.412333,0.222781 0.933457,-0.0772945 1.05843,-0.489339 0.0241274,-0.1007 0.0330849,-0.212235 0.0299065,-0.319869l0 0zm-0.00996882 -6.11031l-0.656064 0 0.000144476 -3.06231 -1.03343 0 0 3.06231 -0.655919 0 0.586138 0.988647 0.586282 0.988358 0.586427 -0.988358 0.586282 -0.988647 0.000144476 0zm-0.00505665 8.50889c0.000577903,-0.0813398 -0.0157478,-0.163691 -0.0496996,-0.237518 0.0822066,-0.377515 -0.142164,-0.802562 -0.521702,-0.930279 -0.213246,-0.0667477 -0.511444,-0.0632803 -0.640894,0.145342 -0.0684815,0.220903 -0.333739,0.214835 -0.457265,0.0434872 -0.19851,-0.241419 -0.596973,-0.138697 -0.765143,0.0872633 -0.292563,0.424614 -0.15141,0.95325 -0.183773,1.42944 0.390084,0.00693483 0.782336,-0.00361189 1.17256,-0.0047677 0.345441,-0.0401642 0.692761,0.104745 1.03358,0.00967987 0.2589,-0.0512889 0.4106,-0.298776 0.412333,-0.542651l0 0zm-0.407566 -2.37431c0.00346742,0.136674 -0.0664588,0.274937 -0.213535,0.334317 -0.235062,0.152422 -0.611854,-0.00722378 -0.576313,-0.300509 -0.0322181,-0.278838 0.305999,-0.446141 0.546407,-0.343997 0.161957,0.0401642 0.240263,0.173226 0.243441,0.310189l0 0zm-0.0247053 2.03017c0.00881301,0.366679 -0.478792,0.556231 -0.785081,0.407132 -0.0735381,-0.190997 -0.0498441,-0.422302 0.0796061,-0.586282 0.190274,-0.296464 0.678747,-0.15719 0.705619,0.17915l-0.000144476 0zm-0.477059 28.2794c-0.0498441,-0.053456 -0.0957874,-0.109801 -0.144042,-0.164702l-2.90671 0c0.204144,0.196631 0.328104,0.472146 0.328104,0.775401l0 0.324637 2.72264 0 0 -0.935335zm-0.0147365 18.1474c-0.0291841,0.389217 -0.6669,0.451631 -0.874511,0.16947 -0.293863,-0.556954 0.828279,-0.733936 0.874511,-0.16947zm-0.223648 -34.282l-3.19999 0 0 1.10004 3.19999 0 0 -1.10004zm0 2.28243l-3.19999 0 0 1.09989 3.19999 0 0 -1.09989zm0 2.28228l-2.69794 0c0.134362,0.179294 0.213679,0.399475 0.213679,0.639594l0 0.460299 2.48426 0 0 -1.09989zm-0.11428 2.28228l-2.36998 0 0 1.09989 1.63951 0c0.209345,-0.389217 0.454376,-0.756763 0.730469,-1.09989zm-0.337784 -18.8825c-0.00346742,0.279271 -0.372025,0.470557 -0.611276,0.300365 -0.0447875,-0.161813 -0.0352521,-0.344141 0.044643,-0.494251 0.117748,-0.31958 0.564755,-0.164124 0.561577,0.135663 0.00303399,0.0193597 0.00520112,0.0395863 0.00505665,0.0582237zm-0.0150255 -2.11281c0.0234051,0.16109 -0.128583,0.33894 -0.313079,0.319869 -0.246475,0.0291841 -0.376359,-0.25211 -0.30311,-0.45062 0.0654475,-0.251821 0.405399,-0.187818 0.526758,-0.0144476 0.0521557,0.041609 0.0814843,0.0915976 0.0894304,0.145198l0 0zm-0.288229 28.9386c-0.200532,-0.350353 -0.372458,-0.716888 -0.511733,-1.10004l-1.85333 0 0 1.10004 2.36507 0 0 0zm-0.596251 -5.65969l-1.76882 0 0 1.09513 1.51049 0c0.0567789,-0.374914 0.144765,-0.741449 0.258322,-1.09513l0 0zm-0.233473 3.37726c-0.062269,-0.355988 -0.09781,-0.723245 -0.104311,-1.09513l-1.43103 0 0 1.09513 1.53534 0z"/>
   <path id="_372470816" class="fil1" d="M3.76431 0.000144476l0 3.80361 3.4979 0 0 -3.80361 -3.4979 0zm3.4979 91.7364l-3.4979 0 0 -2.03061 3.4979 0 0 2.03061zm0 -82.8159l-3.4979 0 0 6.42527 3.4979 0 0 -6.42527zm0 11.5422l-3.4979 0 0 6.42021 3.4979 0 0 -6.42021zm0 11.5372l-3.4979 0 0 6.42541 3.4979 0 0 -6.42541zm0 11.5423l-3.4979 0 0 6.42527 3.4979 0 0 -6.42527zm0 11.542l-3.4979 0 0 6.42541 3.4979 0 0 -6.42541zm0 11.542l-3.4979 0 0 6.4205 3.4979 0 0 -6.4205zm0 11.5374l-3.4979 0 0 6.42527 3.4979 0 0 -6.42527z"/>
  </g>
 </g>
</svg>
