<?xml version="1.0" encoding="UTF-8"?>
<!DOCTYPE svg PUBLIC "-//W3C//DTD SVG 1.1//EN" "http://www.w3.org/Graphics/SVG/1.1/DTD/svg11.dtd">
<!-- Creator: CorelDRAW -->
<svg xmlns="http://www.w3.org/2000/svg" xml:space="preserve" width="688px" height="759px" style="shape-rendering:geometricPrecision; text-rendering:geometricPrecision; image-rendering:optimizeQuality; fill-rule:evenodd; clip-rule:evenodd"
viewBox="0 0 229.937 253.765"
 xmlns:xlink="http://www.w3.org/1999/xlink">
 <defs>
  <style type="text/css">
   <![CDATA[
    .fil2 {fill:black}
    .fil1 {fill:#2C2C2C}
    .fil0 {fill:#575757}
   ]]>
  </style>
 </defs>
 <g id="Livello_x0020_1">
  <metadata id="CorelCorpID_0Corel-Layer"/>
  <g id="_338614720">
   <path id="_338616016" class="fil0" d="M37.1924 3.11565l-37.1924 0 0 250.65 37.1924 0 0 -11.4106 0 -227.826 0 -11.413zm-4.64821 13.1039l0 8.0308c0,1.63917 -1.31931,2.95888 -2.95849,2.95888l-13.9486 0c-1.63917,0 -2.95888,-1.31971 -2.95888,-2.95888l0 -8.0308c0,-1.63917 1.31971,-2.95888 2.95888,-2.95888l13.9486 0c1.63917,0 2.95849,1.31971 2.95849,2.95888zm0 31.4633l0 8.0312c0,1.63917 -1.31931,2.95849 -2.95849,2.95849l-13.9486 0c-1.63917,0 -2.95888,-1.31931 -2.95888,-2.95849l0 -8.0312c0,-1.63917 1.31971,-2.95849 2.95888,-2.95849l13.9486 0c1.63917,0 2.95849,1.31931 2.95849,2.95849zm0 31.4503l0 8.0308c0,1.63917 -1.31931,2.95888 -2.95849,2.95888l-13.9486 0c-1.63917,0 -2.95888,-1.31971 -2.95888,-2.95888l0 -8.0308c0,-1.63917 1.31971,-2.95888 2.95888,-2.95888l13.9486 0c1.63917,0 2.95849,1.31971 2.95849,2.95888zm0 31.463l0 8.0308c0,1.63917 -1.31931,2.95888 -2.95849,2.95888l-13.9486 0c-1.63917,0 -2.95888,-1.31971 -2.95888,-2.95888l0 -8.0308c0,-1.63917 1.31971,-2.95888 2.95888,-2.95888l13.9486 0c1.63917,0 2.95849,1.31971 2.95849,2.95888zm0 31.4633l0 8.0312c0,1.63917 -1.31931,2.95849 -2.95849,2.95849l-13.9486 0c-1.63917,0 -2.95888,-1.31931 -2.95888,-2.95849l0 -8.0312c0,-1.63878 1.31971,-2.95849 2.95888,-2.95849l13.9486 0c1.63917,0 2.95849,1.31971 2.95849,2.95849zm0 31.4633l0 8.0308c0,1.63917 -1.31931,2.95888 -2.95849,2.95888l-13.9486 0c-1.63917,0 -2.95888,-1.31971 -2.95888,-2.95888l0 -8.0308c0,-1.63917 1.31971,-2.95888 2.95888,-2.95888l13.9486 0c1.63917,0 2.95849,1.31971 2.95849,2.95888zm0 31.4499l0 8.0308c0,1.63917 -1.31931,2.95888 -2.95849,2.95888l-13.9486 0c-1.63917,0 -2.95888,-1.31971 -2.95888,-2.95888l0 -8.0308c0,-1.63917 1.31971,-2.95888 2.95888,-2.95888l13.9486 0c1.63917,0 2.95849,1.31971 2.95849,2.95888zm0 31.4637l0 8.0308c0,1.63917 -1.31931,2.95888 -2.95849,2.95888l-13.9486 0c-1.63917,0 -2.95888,-1.31971 -2.95888,-2.95888l0 -8.0308c0,-1.63917 1.31971,-2.95888 2.95888,-2.95888l13.9486 0c1.63917,0 2.95849,1.31971 2.95849,2.95888z"/>
   <path id="_338613928" class="fil1" d="M28.3828 3.11565l-9.56335 0 0 10.1442 9.56335 0 0 -10.1442zm0 24.0928l-9.56335 0 0 17.5152 9.56335 0 0 -17.5152zm0 31.4633l-9.56335 0 0 17.5014 9.56335 0 0 -17.5014zm0 31.4499l-9.56335 0 0 17.5152 9.56335 0 0 -17.5152zm0 31.463l-9.56335 0 0 17.5152 9.56335 0 0 -17.5152zm0 31.4637l-9.56335 0 0 17.5148 9.56335 0 0 -17.5148zm0 31.463l-9.56335 0 0 17.5018 9.56335 0 0 -17.5018zm0 31.4499l-9.56335 0 0 17.5152 9.56335 0 0 -17.5152zm0 31.4637l-9.56335 0 0 6.34029 9.56335 0 0 -6.34029z"/>
   <path id="_338613712" class="fil1" d="M10.7504 5.18959l-10.7504 0 0 5.96989 10.7504 0 0 -5.96989zm-10.7504 245.077l0 -5.97028 10.7504 0 0 5.97028 -10.7504 0zm0 -8.45372l0 -3.88331 10.7504 0 0 3.88331 -10.7504 0zm0 -32.9687l0 -3.88331 10.7504 0 0 3.88331 -10.7504 0zm0 -5.91776l0 -3.88331 10.7504 0 0 3.88331 -10.7504 0zm0 -5.91737l0 -3.88331 10.7504 0 0 3.88331 -10.7504 0zm0 -12.4958l0 -5.97028 10.7504 0 0 5.97028 -10.7504 0zm0 -7.79308l0 -3.88331 10.7504 0 0 3.88331 -10.7504 0zm0 -5.91737l0 -3.88331 10.7504 0 0 3.88331 -10.7504 0zm0 -80.3096l0 -3.88331 10.7504 0 0 3.88331 -10.7504 0zm0 -6.10257l0 -3.88331 10.7504 0 0 3.88331 -10.7504 0zm0 -6.57801l0 -5.97028 10.7504 0 0 5.97028 -10.7504 0zm0 -60.0744l0 -3.88331 10.7504 0 0 3.88331 -10.7504 0z"/>
   <path id="_338614240" class="fil2" d="M6.89155 54.5595c-0.0572585,0.691446 0.779505,1.17242 1.38289,0.901525 0.669727,-0.238906 0.836764,-1.27864 0.221926,-1.67471 -0.522829,-0.386199 -1.44726,-0.17375 -1.57876,0.516511 -0.0201392,0.0837159 -0.0292216,0.170196 -0.0260625,0.256676m-0.541389 0.948517c-0.22706,0.860062 -1.30312,1.22889 -2.07947,0.895602 -0.667358,-0.255491 -1.07291,-0.961153 -1.07567,-1.65892 -0.0852954,-0.826497 0.29419,-1.80187 1.15109,-2.05657 0.709611,-0.250358 1.65694,0.0134261 1.94521,0.758182 0.22706,0.110173 0.214028,-0.509008 0.494792,-0.571005 0.870724,-0.794116 2.51029,-0.481366 2.94151,0.64327 0.302088,0.898366 0.274841,2.04788 -0.469125,2.72629 -0.783849,0.659065 -2.17029,0.580878 -2.7334,-0.32815 -0.0766079,-0.127548 -0.135051,-0.265758 -0.174935,-0.408707zm-1.3126 -0.134261c0.666568,0.0856903 1.10173,-0.829261 0.681574,-1.32642 -0.372773,-0.502295 -1.3284,-0.385409 -1.47016,0.260625 -0.165457,0.499136 0.231403,1.12898 0.788983,1.0658l-0.000394886 0zm1.80226 -5.2587l1.91441 0c-0.0473863,-0.57219 0.142949,-1.23481 -0.24325,-1.72447 -0.400415,-0.340787 -1.08001,-0.307616 -1.44963,0.0580483 -0.361716,0.480182 -0.17454,1.11437 -0.221531,1.66642zm-2.52095 0c0.475048,-0.10346 1.00578,0.181253 1.43976,-0.10346 0.0947727,-0.444642 0.158349,-1.05237 -0.147687,-1.4595 -0.390937,-0.392122 -1.24903,-0.165852 -1.27035,0.431216 -0.0505454,0.375932 -0.00552841,0.755022 -0.0217187,1.13174zm-1.01802 1.23481c0.0572585,-1.11674 -0.154795,-2.27297 0.205736,-3.35574 0.238116,-0.577719 0.855718,-0.95365 1.47845,-0.901525 0.597068,-0.00552841 1.24034,0.404758 1.29088,1.03934 0.140974,0.152426 0.0892443,-0.446221 0.260625,-0.545338 0.332494,-0.554815 1.01249,-0.787403 1.63325,-0.719878 0.628264,0.0256676 1.28693,0.413051 1.42593,1.06185 0.334469,1.02986 0.0931931,2.12133 0.201392,3.17725 -0.248778,0.530332 -0.961153,0.103855 -1.41132,0.243645l-5.08495 0 0 0.000394886z"/>
   <path id="_338614576" class="fil2" d="M14.2937 35.6661c0.458068,0.828471 0.459648,1.97167 -0.201392,2.6951 -0.630238,0.619182 -1.60877,0.702503 -2.43052,0.499136 -0.708821,-0.188361 -1.29128,-0.814255 -1.36236,-1.55427 -0.0785824,-0.507034 0.00987216,-1.03381 0.221531,-1.49938 0.229034,-0.252727 0.800829,-0.186781 0.957599,-0.0386988 -0.315514,0.482156 -0.484131,1.16491 -0.117281,1.6676 0.338023,0.423318 0.944963,0.472284 1.44449,0.397256 0.425292,-0.0631818 0.828866,-0.367244 0.897576,-0.810307 0.0750284,-0.358557 -0.0027642,-0.739227 -0.178094,-1.05751 -0.359741,-0.315119 0.158349,-0.354608 0.402784,-0.298929 0.12202,0.00118466 0.24404,0.00236932 0.365665,0l0 0zm0 -4.53448c0.458068,0.828471 0.459648,1.97167 -0.201392,2.6951 -0.630238,0.619182 -1.60877,0.702503 -2.43052,0.499136 -0.708821,-0.188361 -1.29128,-0.814255 -1.36236,-1.55427 -0.0785824,-0.507429 0.00987216,-1.03381 0.221531,-1.49938 0.229034,-0.252727 0.800829,-0.187176 0.957599,-0.0386988 -0.315514,0.482156 -0.484131,1.16491 -0.117281,1.6676 0.338023,0.423318 0.944963,0.471889 1.44449,0.397256 0.425292,-0.0635767 0.828866,-0.367639 0.897576,-0.810307 0.0750284,-0.358952 -0.0027642,-0.739227 -0.178094,-1.05751 -0.359741,-0.315119 0.158349,-0.354608 0.402784,-0.299324 0.12202,0.00118466 0.24404,0.00236932 0.365665,0l0 0.000394886z"/>
   <path id="_338614408" class="fil2" d="M14.2937 102.45c0.458068,0.828866 0.459648,1.97167 -0.201392,2.6951 -0.630238,0.619182 -1.60877,0.702897 -2.43052,0.499136 -0.708821,-0.188361 -1.29128,-0.814255 -1.36236,-1.55427 -0.0785824,-0.507034 0.00987216,-1.03342 0.221531,-1.49938 0.229034,-0.252727 0.800829,-0.186781 0.957599,-0.0386988 -0.315514,0.482156 -0.484131,1.16491 -0.117281,1.6676 0.338023,0.423318 0.944963,0.471889 1.44449,0.397256 0.425292,-0.0631818 0.828866,-0.367244 0.897576,-0.810307 0.0750284,-0.358557 -0.0027642,-0.739227 -0.178094,-1.05751 -0.359741,-0.315119 0.158349,-0.354608 0.402784,-0.298929 0.12202,0.00118466 0.24404,0.00236932 0.365665,0l0 0zm0 -4.53448c0.458068,0.828866 0.459648,1.97167 -0.201392,2.6951 -0.630238,0.619182 -1.60877,0.702897 -2.43052,0.499136 -0.708821,-0.188361 -1.29128,-0.814255 -1.36236,-1.55427 -0.0785824,-0.507034 0.00987216,-1.03342 0.221531,-1.49938 0.229034,-0.252727 0.800829,-0.186781 0.957599,-0.0386988 -0.315514,0.482156 -0.484131,1.16491 -0.117281,1.6676 0.338023,0.423318 0.944963,0.471889 1.44449,0.397256 0.425292,-0.0631818 0.828866,-0.367244 0.897576,-0.810307 0.0750284,-0.358557 -0.0027642,-0.739227 -0.178094,-1.05751 -0.359741,-0.315119 0.158349,-0.354608 0.402784,-0.298929 0.12202,0.00118466 0.24404,0.00236932 0.365665,0l0 0z"/>
  </g>
  <g id="_338613832">
   <path id="_338617216" class="fil0" d="M229.937 0l-35.9019 0 0 11.413 0 227.826 0 11.1192 35.9019 0 0 -108.695c-6.03268,-3.35693 -10.1182,-9.79397 -10.1182,-17.1831 0,-7.38911 4.08549,-13.8265 10.1182,-17.1835l0 -107.297zm-12.2316 13.526l0 8.0308c0,1.63917 -1.31971,2.95888 -2.95888,2.95888l-13.9486 0c-1.63917,0 -2.95849,-1.31971 -2.95849,-2.95888l0 -8.0308c0,-1.63917 1.31931,-2.95888 2.95849,-2.95888l13.9486 0c1.63917,0 2.95888,1.31971 2.95888,2.95888zm0 31.4633l0 8.0312c0,1.63917 -1.31971,2.95849 -2.95888,2.95849l-13.9486 0c-1.63917,0 -2.95849,-1.31931 -2.95849,-2.95849l0 -8.0312c0,-1.63878 1.31931,-2.95849 2.95849,-2.95849l13.9486 0c1.63917,0 2.95888,1.31971 2.95888,2.95849zm0 31.4503l0 8.0308c0,1.63917 -1.31971,2.95888 -2.95888,2.95888l-13.9486 0c-1.63917,0 -2.95849,-1.31971 -2.95849,-2.95888l0 -8.0308c0,-1.63917 1.31931,-2.95888 2.95849,-2.95888l13.9486 0c1.63917,0 2.95888,1.31971 2.95888,2.95888zm0 31.4633l0 8.0312c0,1.63917 -1.31971,2.95849 -2.95888,2.95849l-13.9486 0c-1.63917,0 -2.95849,-1.31931 -2.95849,-2.95849l0 -8.0312c0,-1.63917 1.31931,-2.95849 2.95849,-2.95849l13.9486 0c1.63917,0 2.95888,1.31931 2.95888,2.95849zm0 31.4633l0 8.0308c0,1.63917 -1.31971,2.95888 -2.95888,2.95888l-13.9486 0c-1.63917,0 -2.95849,-1.31971 -2.95849,-2.95888l0 -8.0308c0,-1.63917 1.31931,-2.95888 2.95849,-2.95888l13.9486 0c1.63917,0 2.95888,1.31971 2.95888,2.95888zm0 31.463l0 8.0308c0,1.63917 -1.31971,2.95888 -2.95888,2.95888l-13.9486 0c-1.63917,0 -2.95849,-1.31971 -2.95849,-2.95888l0 -8.0308c0,-1.63917 1.31931,-2.95888 2.95849,-2.95888l13.9486 0c1.63917,0 2.95888,1.31971 2.95888,2.95888zm0 31.4499l0 8.0312c0,1.63878 -1.31971,2.95849 -2.95888,2.95849l-13.9486 0c-1.63917,0 -2.95849,-1.31971 -2.95849,-2.95849l0 -8.0312c0,-1.63917 1.31931,-2.95849 2.95849,-2.95849l13.9486 0c1.63917,0 2.95888,1.31931 2.95888,2.95849zm0 31.4637l0 8.0308c0,1.63917 -1.31971,2.95888 -2.95888,2.95888l-13.9486 0c-1.63917,0 -2.95849,-1.31971 -2.95849,-2.95888l0 -8.0308c0,-1.63917 1.31931,-2.95888 2.95849,-2.95888l13.9486 0c1.63917,0 2.95888,1.31971 2.95888,2.95888z"/>
   <path id="_338614144" class="fil1" d="M229.937 81.4832l-0.000394886 0 0 -0.0264574 -5.82536 0 0 -2.68128 5.82536 0 0 -2.99837 -12.311 0c0.048571,0.212844 0.0793721,0.4324 0.0793721,0.66025l0 8.0308c0,1.25534 -0.777136,2.31601 -1.87571,2.74762l0 2.94546 14.1077 0 0 -2.99837 -5.61449 0 0 -2.68128 5.61449 0 0 -2.99837zm0 61.9233l0 2.99877 -5.64016 0 0 2.68128 5.64016 0 0 2.99837 -14.1338 0 0 -1.92862c1.11318,-0.424503 1.90217,-1.49504 1.90217,-2.76065l0 -3.98914 12.2316 0zm-0.000394886 -143.276l-5.7989 0 0 2.98534 5.7989 0 0 -2.98534zm0 15.8373l-12.2312 0 0 5.58725c0,1.33629 -0.874673,2.45698 -2.08697,2.82699l0 0.264179 14.3186 0 0 -2.99837 -5.82536 0 0 -2.68167 5.82536 0 0 -2.99837 -0.000394886 0zm0 209.875l-5.7989 0 0 2.98494 5.7989 0 0 -2.98494zm0 15.8373l-12.2312 0 0 0.0924034c0,1.33629 -0.874673,2.45698 -2.08697,2.8266l0 5.75942 14.3186 0 0 -2.99837 -5.82536 0 0 -2.68167 5.82536 0 0 -2.99837 -0.000394886 0zm-0.145318 -235.423l-5.68004 0 0 -2.99837 -8.49282 0 0 2.99837 8.36132 0 0 2.98534 -8.52007 0 0 1.4133c0.864801,0.213239 1.57836,0.799645 1.95508,1.58507l12.3765 0 0 -5.98371 0 0zm0 225.711l-5.68004 0 0 -2.99837 -8.49282 0 0 1.94166c0.609309,0.185991 1.13451,0.558764 1.5057,1.05672l6.85522 0 0 2.98534 -6.27395 0 0 2.99837 12.0863 0 0 -5.98371 -0.000394886 0zm-0.0134261 -128.879l-5.81154 0 0 2.99837 5.81154 0 0 -2.99837zm-1.30747 84.0859c-0.135446,-1.59968 -1.88835,-2.43961 -3.38141,-2.36418 -1.65655,-0.164668 -3.93623,0.53744 -3.71193,2.60191 0.140579,2.2082 3.72654,2.68957 4.55738,0.713559 0.426082,-0.686707 -0.687892,-2.5482 0.805568,-1.74382 1.35209,0.518486 -0.347105,2.88938 1.43976,2.53635 0.197443,-0.443852 0.300114,-0.927983 0.290636,-1.4133 0.00592329,-0.113332 0.00908238,-0.223506 0,-0.33052l0 0zm-0.0394886 4.58344c-0.017375,-0.427267 -0.135446,-0.856113 -0.356977,-1.2281 -2.33694,-0.496372 0.0240881,1.57204 -1.37341,2.37722 -0.99077,0.636557 -2.36734,0.596673 -3.42129,0.158744 -1.65536,-0.458068 0.421344,-2.58216 -1.13569,-2.57584 -1.27943,0.368824 -0.854534,2.22874 -0.317094,3.07774 1.03934,1.30431 2.99798,1.40895 4.50407,1.01683 1.33985,-0.212449 2.15134,-1.54479 2.1004,-2.8266l0 0zm-1.03026 -136.751c-0.0146108,-0.488869 -0.143739,-0.973789 -0.462412,-1.34735 -0.748704,-0.934696 -2.45224,-1.04131 -3.11723,0.0398835 -0.378301,-0.0947727 -1.05869,-0.661434 -1.67748,-0.541784 -0.984846,-0.052125 -1.86781,0.783849 -1.90217,1.75685 -0.186386,0.81623 0.263389,1.70433 1.01723,2.06052 0.814255,0.488474 2.10158,0.162298 2.35115,-0.818599 0.10346,0.472284 0.475838,0.845057 0.897971,1.05632 1.0962,0.607335 2.48147,-0.210869 2.81356,-1.33393 0.0643665,-0.274446 0.0880596,-0.578508 0.0793721,-0.871909l0 0zm-0.0264574 -16.6563l-1.74382 0 0.000394886 -8.34789 -2.74762 0 0 8.34789 -1.74342 0 1.55822 2.6947 1.55862 2.69431 1.55862 -2.69431 1.55862 -2.6947 0.000394886 0zm-0.0134261 23.1944c0.00157954,-0.221531 -0.0418579,-0.446221 -0.131892,-0.647219 0.218372,-1.02907 -0.377906,-2.18767 -1.38684,-2.53596 -0.567057,-0.182043 -1.35999,-0.172565 -1.70393,0.396071 -0.182043,0.602201 -0.887309,0.585616 -1.21546,0.118861 -0.527963,-0.658275 -1.58705,-0.378301 -2.03406,0.237722 -0.777926,1.15741 -0.402784,2.59835 -0.488869,3.89674 1.03737,0.0185597 2.07987,-0.00987216 3.11723,-0.0130312 0.918505,-0.109778 1.84175,0.285503 2.74762,0.0260625 0.688287,-0.13979 1.09186,-0.814255 1.0962,-1.47924l0 0zm-1.08317 -6.47219c0.00908238,0.372773 -0.176909,0.749494 -0.567846,0.911397 -0.62471,0.41542 -1.62654,-0.0197443 -1.53216,-0.818994 -0.0856903,-0.760156 0.813466,-1.21625 1.45279,-0.937855 0.430426,0.109383 0.638531,0.472284 0.647219,0.845451l0 0zm-0.065946 5.53433c0.0236932,0.999457 -1.27272,1.51636 -2.08697,1.10963 -0.195469,-0.52046 -0.132682,-1.15109 0.211659,-1.5981 0.505849,-0.807937 1.80424,-0.428452 1.87571,0.488474l-0.000394886 0zm-1.26798 77.0881c-0.132682,-0.145713 -0.254702,-0.299324 -0.38304,-0.448986l-7.72713 0c0.542574,0.535861 0.871909,1.28693 0.871909,2.11343l0 0.88494 7.23826 0 0 -2.54939zm-0.0394886 49.4686c-0.0773977,1.06106 -1.77264,1.23126 -2.3247,0.462017 -0.781085,-1.51794 2.20189,-2.00049 2.3247,-0.462017zm-0.594304 -93.4506l-8.50703 0 0 2.99837 8.50703 0 0 -2.99837zm0 6.22143l-8.50703 0 0 2.99837 8.50703 0 0 -2.99837zm0 6.22143l-7.17232 0c0.356977,0.488869 0.567846,1.0891 0.567846,1.74342l0 1.25495 6.60447 0 0 -2.99837zm-0.304062 6.22143l-6.30041 0 0 2.99837 4.35875 0c0.556395,-1.06106 1.20796,-2.06289 1.94166,-2.99837zm-0.897971 -51.4726c-0.00908238,0.761341 -0.988795,1.28259 -1.62496,0.818599 -0.118861,-0.441088 -0.093588,-0.937855 0.118861,-1.34735 0.31275,-0.871119 1.50136,-0.447406 1.49267,0.370008 0.00829261,0.0525199 0.013821,0.107804 0.0134261,0.158744zm-0.0398835 -5.75942c0.062392,0.439113 -0.341577,0.924034 -0.832025,0.871909 -0.655511,0.0793721 -1.00064,-0.687102 -0.805963,-1.22849 0.174145,-0.686312 1.07764,-0.511773 1.40027,-0.0394886 0.138605,0.113727 0.216793,0.249963 0.237722,0.396071l0 0zm-0.766079 78.8848c-0.533096,-0.954835 -0.990375,-1.9539 -1.36038,-2.99837l-4.927 0 0 2.99837 6.28738 0 0 0zm-1.58507 -15.4278l-4.70231 0 0 2.98534 4.0156 0c0.150847,-1.02197 0.384619,-2.02142 0.686707,-2.98534l0 0zm-0.620761 9.20638c-0.165457,-0.97063 -0.259835,-1.97167 -0.27721,-2.98534l-3.80433 0 0 2.98534 4.08154 0z"/>
   <path id="_338613616" class="fil1" d="M213.48 0l-9.29918 0 0 10.5672 9.29918 0 0 -10.5672zm0 250.358l-9.29918 0 0 -5.62673 9.29918 0 0 5.62673zm0 -225.843l-9.29918 0 0 17.5152 9.29918 0 0 -17.5152zm0 31.4633l-9.29918 0 0 17.5014 9.29918 0 0 -17.5014zm0 31.4499l-9.29918 0 0 17.5152 9.29918 0 0 -17.5152zm0 31.4637l-9.29918 0 0 17.5148 9.29918 0 0 -17.5148zm0 31.463l-9.29918 0 0 17.5152 9.29918 0 0 -17.5152zm0 31.463l-9.29918 0 0 17.5018 9.29918 0 0 -17.5018zm0 31.4503l-9.29918 0 0 17.5148 9.29918 0 0 -17.5148z"/>
  </g>
 </g>
</svg>
