<?xml version="1.0" encoding="UTF-8"?>
<!DOCTYPE svg PUBLIC "-//W3C//DTD SVG 1.1//EN" "http://www.w3.org/Graphics/SVG/1.1/DTD/svg11.dtd">
<!-- Creator: CorelDRAW -->
<svg xmlns="http://www.w3.org/2000/svg" xml:space="preserve" width="680px" height="680px" style="shape-rendering:geometricPrecision; text-rendering:geometricPrecision; image-rendering:optimizeQuality; fill-rule:evenodd; clip-rule:evenodd"
viewBox="0 0 680 680"
 xmlns:xlink="http://www.w3.org/1999/xlink">
 <defs>
  <style type="text/css">
   <![CDATA[
    .str0 {stroke:black;stroke-width:2.36221}
    .str1 {stroke:black;stroke-width:16.0004}
    .fil0 {fill:black}
    .fil1 {fill:white}
    .fil2 {fill:black;fill-rule:nonzero}
   ]]>
  </style>
 </defs>
 <g id="Livello_x0020_1">
  <metadata id="CorelCorpID_0Corel-Layer"/>
  <g id="_45077344">
   <path id="_45073624" class="fil0" d="M310.867 492.455c0.646064,9.27404 -0.497245,28.2603 4.58623,33.345 2.43308,2.43544 6.87639,2.0563 8.94451,-0.455907 4.15631,-5.05395 1.9441,-39.7099 2.07874,-48.9958l-1.0937 -31.7623 27.5044 -0.462993 -1.22599 47.9092c-0.108662,6.7134 -1.27205,29.4142 2.64686,33.5209 2.23229,2.34095 5.87718,2.49331 8.38939,0.19252 7.48112,-6.85395 2.23938,-38.6836 5.81458,-42.8162l4.54017 -41.0717c2.59725,-1.4752 17.8063,-4.57678 22.6158,-6.17836 19.5178,-6.49962 42.2706,-18.1536 56.3623,-31.4883 15.0933,-14.2819 27.6201,-30.7087 34.9654,-52.1836 3.30828,-9.67561 4.29686,-19.604 6.14883,-23.6693 0,0 1.45158,-13.8366 1.45158,-13.8366 1.05236,-32.2855 2.53938,-51.1489 -4.16576,-84.364 -7.7327,-38.3115 -26.6764,-78.6805 -57.247,-100.872 -5.16497,-3.74883 -1.7126,-5.55946 -1.89804,-19.2154 -0.115748,-8.59608 -3.12639,-34.1103 -11.6776,-33.4772 -3.18662,0.23504 -9.61774,8.54884 -11.889,10.9429l-11.0764 11.9859c-2.40591,-1.34528 -4.14686,-2.92324 -6.38269,-4.51891 -6.63781,-4.73269 -13.1622,-9.35671 -20.8394,-12.7559 -22.9182,-10.1469 -53.3907,-11.2925 -78.3439,-5.64568 -13.8024,3.12402 -21.0544,6.38624 -33.8257,11.3859 0,0 -22.7977,-28.715 -30.6733,-36.5918 -2.65276,-2.65394 -5.99529,1.58386 -5.99529,1.58386 -11.5051,12.4914 -9.86813,43.1966 -5.87954,60.436 1.00158,4.32993 1.24843,4.49174 -1.1563,7.25317 -33.1796,38.1178 -38.2217,79.4648 -37.4068,130.233 0.204331,12.6437 1.01693,26.8052 2.3126,39.6544 1.38662,13.7622 2.81221,23.0599 4.90277,36.619 0,0 2.91615,13.3016 2.91615,13.3016 5.16025,13.0772 5.85356,24.1571 15.4193,39.5871 13.5,21.7749 37.0914,38.7875 60.7242,49.3489 10.9299,4.88387 25.0938,9.33427 37.2367,11.5772 0.809057,0.15 2.25709,0.350788 2.95749,0.548033l2.42127 1.1315c2.89135,4.28151 5.3386,41.8253 5.83702,49.806z"/>
   <path id="_45072376" class="fil1" d="M358.287 271.124c5.56301,11.6847 8.18033,18.8752 19.5886,27.8138 31.428,24.6213 76.7565,2.30552 81.3439,-42.3603 3.16772,-30.8363 -12.3721,-53.8312 -32.0434,-63.4171 -11.8229,-5.76143 -26.8194,-6.09568 -39.2493,-0.344883 -13.8544,6.41104 -16.5556,12.2327 -25.1835,23.4201 -1.52953,-4.06891 -2.42008,-9.11104 -3.94725,-13.3193 -1.65118,-4.54489 -3.63308,-8.7449 -5.80513,-12.7536 -36.0863,-66.5954 -130.425,-48.756 -140.752,35.4946 -4.68781,38.2525 16.2272,79.8746 53.0222,92.9045 20.5075,7.26262 43.108,3.86221 59.5277,-6.6071 12.8138,-8.1697 19.6111,-16.1008 27.2646,-28.4705 2.57363,-4.15985 3.82442,-8.18033 6.23387,-12.3603z"/>
   <path id="_45072568" class="fil0" d="M294.556 219.56c2.98229,5.78151 5.75553,10.4197 2.91142,18.5575l-12.9957 11.3233c2.4756,18.7418 31.8083,26.8371 41.1721,3.35552 6.12049,-15.3473 -1.99252,-32.9587 -15.7512,-35.9316 -6.97797,-1.50827 -10.4221,0.453544 -15.3366,2.69528z"/>
   <path id="_45072616" class="fil0" d="M410.739 253.016c-9.19608,-5.97403 -7.12206,-2.73898 -10.8721,-19.7563 -14.4532,-4.65119 -23.8146,13.8402 -16.4752,26.5867 7.92403,13.7622 26.4851,6.99332 27.3473,-6.83033z"/>
   <ellipse id="_45076816" class="fil0 str0" transform="matrix(0.447766 1.42246 -1.27039 0.644138 482.135 367.309)" rx="32.7639" ry="16.4658"/>
   <g id="ciack">
    <path id="_45079504" class="fil1" d="M102.402 412.435l475.196 0c10.1221,0 18.4028,8.28073 18.4028,18.4028l0 198.662 -512.002 0 0 -198.662c0,-10.1221 8.28073,-18.4028 18.4028,-18.4028z"/>
    <path id="_45064408" class="fil2" d="M102.402 404.434l475.196 0c7.26852,0 13.8721,2.9693 18.6532,7.75041 4.78111,4.78111 7.75041,11.3847 7.75041,18.6532l0 198.662 -16.0016 0 0 -198.662c0,-2.85237 -1.17402,-5.45316 -3.06142,-7.34057 -1.88741,-1.88741 -4.4882,-3.06142 -7.34057,-3.06142l-475.196 0c-2.85237,0 -5.45316,1.17402 -7.34057,3.06142 -1.88741,1.88741 -3.06142,4.4882 -3.06142,7.34057l0 198.662 -16.0016 0 0 -198.662c0,-7.26852 2.9693,-13.8721 7.75041,-18.6532 4.78111,-4.78111 11.3847,-7.75041 18.6532,-7.75041z"/>
    <rect id="_45071656" class="fil1 str1" transform="matrix(0.997128 -0.19426 0.09713 0.498564 77.4957 354.663)" width="504.001" height="127.001" rx="29.0009" ry="29.0009"/>
    <polygon id="_45078760" class="fil0" points="83.999,495.142 596.001,495.142 596.001,629.499 83.999,629.499 "/>
    <polygon id="_45079624" class="fil2" points="83.999,493.961 596.001,493.961 597.182,493.961 597.182,495.142 597.182,629.499 594.82,629.499 594.82,496.323 85.1801,496.323 85.1801,629.499 82.8179,629.499 82.8179,495.142 82.8179,493.961 "/>
   </g>
   <ellipse id="_45073792" class="fil0 str0" cx="181.095" cy="347" rx="33.4997" ry="26.4993"/>
   <ellipse id="_45075376" class="fil0 str0" cx="509.717" cy="409.967" rx="28.9997" ry="24.4666"/>
  </g>
 </g>
</svg>
